<svg width="35" height="35" viewBox="0 0 35 35" fill="none" xmlns="http://www.w3.org/2000/svg">
<path d="M11.2766 22.6272H11.2782C11.2796 22.6272 11.2809 22.627 11.2822 22.627H29.873C30.3307 22.627 30.7331 22.3233 30.8589 21.8833L34.9605 7.52781C35.0489 7.21832 34.9869 6.8856 34.7933 6.62872C34.5995 6.37184 34.2964 6.2207 33.9746 6.2207H8.91182L8.17883 2.9221C8.07442 2.45293 7.65839 2.11914 7.17773 2.11914H1.02539C0.459023 2.11914 0 2.57816 0 3.14453C0 3.7109 0.459023 4.16992 1.02539 4.16992H6.35529C6.48506 4.75445 9.86298 19.9553 10.0574 20.8298C8.96763 21.3036 8.20312 22.3901 8.20312 23.6523C8.20312 25.3485 9.58313 26.7285 11.2793 26.7285H29.873C30.4394 26.7285 30.8984 26.2695 30.8984 25.7031C30.8984 25.1368 30.4394 24.6777 29.873 24.6777H11.2793C10.714 24.6777 10.2539 24.2176 10.2539 23.6523C10.2539 23.0878 10.7124 22.6286 11.2766 22.6272ZM32.6152 8.27148L29.0995 20.5762H12.1017L9.36737 8.27148H32.6152Z" fill="#6F6F6F" fill-opacity="0.5"/>
<path d="M10.2538 29.8047C10.2538 31.5009 11.6338 32.8809 13.33 32.8809C15.0261 32.8809 16.4061 31.5009 16.4061 29.8047C16.4061 28.1085 15.0261 26.7285 13.33 26.7285C11.6338 26.7285 10.2538 28.1085 10.2538 29.8047ZM13.33 28.7793C13.8953 28.7793 14.3553 29.2394 14.3553 29.8047C14.3553 30.37 13.8953 30.8301 13.33 30.8301C12.7647 30.8301 12.3046 30.37 12.3046 29.8047C12.3046 29.2394 12.7647 28.7793 13.33 28.7793Z" fill="#6F6F6F" fill-opacity="0.5"/>
<path d="M24.7462 29.8047C24.7462 31.5009 26.1262 32.8809 27.8223 32.8809C29.5185 32.8809 30.8985 31.5009 30.8985 29.8047C30.8985 28.1085 29.5185 26.7285 27.8223 26.7285C26.1262 26.7285 24.7462 28.1085 24.7462 29.8047ZM27.8223 28.7793C28.3876 28.7793 28.8477 29.2394 28.8477 29.8047C28.8477 30.37 28.3876 30.8301 27.8223 30.8301C27.257 30.8301 26.7969 30.37 26.7969 29.8047C26.7969 29.2394 27.257 28.7793 27.8223 28.7793Z" fill="#6F6F6F" fill-opacity="0.5"/>
</svg>
