<svg xmlns="http://www.w3.org/2000/svg" viewBox="0 0 30.07 41"><defs><style>.cls-1{fill:#6f6f6f;fill-opacity:0.4;}</style></defs><title>delivery</title><g id="Слой_2" data-name="Слой 2"><g id="Слой_1-2" data-name="Слой 1"><path class="cls-1" d="M15,0A15,15,0,0,0,0,15c0,8.08,13.91,25,14.51,25.72a.68.68,0,0,0,1.05,0C16.15,40,30.07,23.11,30.07,15A15,15,0,0,0,15,0Zm0,39.23C12.46,36,1.37,21.78,1.37,15A13.67,13.67,0,0,1,28.7,15C28.7,21.78,17.6,36,15,39.23Z"/><path class="cls-1" d="M24.33,12.44,15.45,5.61a.68.68,0,0,0-.83,0L5.73,12.44a.69.69,0,0,0,.42,1.23h2v7.51a.69.69,0,0,0,.68.69h12.3a.69.69,0,0,0,.69-.69V13.67h2.05A.69.69,0,0,0,24.6,13,.68.68,0,0,0,24.33,12.44ZM16.4,20.5H13.67V16.4H16.4Zm4.78-8.2a.69.69,0,0,0-.68.68V20.5H17.77V15.72a.69.69,0,0,0-.69-.69H13a.69.69,0,0,0-.68.69V20.5H9.57V13a.69.69,0,0,0-.69-.68H8.16L15,7l6.88,5.29Z"/></g></g></svg>