<svg width="41" height="41" viewBox="0 0 41 41" fill="none" xmlns="http://www.w3.org/2000/svg">
<path d="M20.5 0C12.1973 0 5.46667 6.73066 5.46667 15.0333C5.46667 23.1117 19.3807 40.0358 19.9732 40.7519C20.103 40.909 20.2962 41 20.5 41C20.7038 41 20.897 40.909 21.0269 40.7519C21.6193 40.0358 35.5333 23.1117 35.5333 15.0333C35.5333 6.73066 28.8027 0 20.5 0ZM20.5 39.2309C17.9286 36.0212 6.83334 21.7792 6.83334 15.0333C6.84197 7.48899 12.9558 1.37529 20.5 1.36667C28.0443 1.37529 34.158 7.48899 34.1667 15.0333C34.1667 21.7778 23.0714 36.0205 20.5 39.2309Z" fill="#6F6F6F" fill-opacity="0.4"/>
<path d="M29.8002 12.4425L20.9168 5.60912C20.6711 5.42001 20.3289 5.42001 20.0832 5.60912L11.1998 12.4425C10.901 12.6728 10.8455 13.102 11.0758 13.4008C11.2051 13.5686 11.4048 13.6669 11.6167 13.667H13.6667V21.1837C13.6667 21.561 13.9726 21.867 14.35 21.867H26.65C27.0274 21.867 27.3333 21.561 27.3333 21.1837V13.667H29.3833C29.7607 13.6668 30.0665 13.3607 30.0663 12.9833C30.0662 12.7715 29.9679 12.5718 29.8002 12.4425ZM21.8667 20.5003H19.1333V16.4003H21.8667V20.5003ZM26.65 12.3003C26.2726 12.3003 25.9667 12.6063 25.9667 12.9837V20.5003H23.2333V15.717C23.2333 15.3396 22.9274 15.0337 22.55 15.0337H18.45C18.0726 15.0337 17.7667 15.3396 17.7667 15.717V20.5003H15.0333V12.9837C15.0333 12.6063 14.7274 12.3003 14.35 12.3003H13.6257L20.5 7.01269L27.3743 12.3003H26.65Z" fill="#6F6F6F" fill-opacity="0.4"/>
</svg>
