<svg xmlns="http://www.w3.org/2000/svg" viewBox="0 0 37 37"><defs><style>.cls-1{fill:#6f6f6f;fill-opacity:0.2;}</style></defs><title>email</title><g id="Слой_2" data-name="Слой 2"><g id="Слой_1-2" data-name="Слой 1"><path class="cls-1" d="M18.5,0A18.5,18.5,0,1,0,31.58,31.58a.77.77,0,0,0-1.09-1.09,17,17,0,1,1,5-12V20a4.63,4.63,0,1,1-9.25,0V13.1a.77.77,0,0,0-1.54,0v.82a7.71,7.71,0,1,0,.46,8.45A6.16,6.16,0,0,0,37,20V18.5A18.52,18.52,0,0,0,18.5,0Zm0,24.67a6.17,6.17,0,1,1,6.17-6.17A6.18,6.18,0,0,1,18.5,24.67Z"/></g></g></svg>