<svg width="37" height="37" viewBox="0 0 37 37" fill="none" xmlns="http://www.w3.org/2000/svg">
<path d="M18.5 0C8.29927 0 0 8.29927 0 18.5C0 28.7007 8.29927 37 18.5 37C23.4419 37 28.0873 35.0759 31.5816 31.5816C31.8827 31.2805 31.8827 30.7927 31.5816 30.4916C31.2805 30.1905 30.7927 30.1905 30.4916 30.4916C27.2886 33.6946 23.0302 35.4584 18.5 35.4584C9.14912 35.4584 1.54164 27.8509 1.54164 18.5C1.54164 9.14912 9.14912 1.54164 18.5 1.54164C27.8509 1.54164 35.4584 9.14912 35.4584 18.5V20.0416C35.4584 22.592 33.3838 24.6666 30.8334 24.6666C28.283 24.6666 26.2084 22.592 26.2084 20.0416V13.1041C26.2084 12.6781 25.8636 12.3333 25.4375 12.3333C25.0114 12.3333 24.6666 12.6781 24.6666 13.1041V13.9227C23.2603 12.0338 21.0303 10.7916 18.5 10.7916C14.2498 10.7916 10.7916 14.2498 10.7916 18.5C10.7916 22.7502 14.2499 26.2084 18.5 26.2084C21.3349 26.2084 23.7903 24.6525 25.1292 22.3665C26.0497 24.6163 28.2562 26.2084 30.8333 26.2084C34.2335 26.2084 36.9999 23.442 36.9999 20.0417V18.5C37 8.29927 28.7007 0 18.5 0ZM18.5 24.6666C15.0998 24.6666 12.3334 21.9002 12.3334 18.5C12.3334 15.0998 15.0998 12.3334 18.5 12.3334C21.9002 12.3334 24.6666 15.0998 24.6666 18.5C24.6666 21.9002 21.9002 24.6666 18.5 24.6666Z" fill="#6F6F6F" fill-opacity="0.2"/>
</svg>
