<svg width="59" height="59" viewBox="0 0 59 59" fill="none" xmlns="http://www.w3.org/2000/svg">
<g clip-path="url(#clip0)">
<path d="M57.2989 31.4473C57.6973 31.287 58.0561 31.0327 58.3428 30.6992C58.8595 30.0987 59.0887 29.3051 58.9703 28.5214L57.131 16.3084C56.9505 15.1083 56.1403 14.0779 55.0167 13.6188L52.9785 12.7861C53.4759 12.2247 53.7793 11.487 53.7793 10.6794V7.65993C53.7793 5.90666 52.3524 4.47974 50.5987 4.47974H49.5548C47.8015 4.47974 46.3751 5.90666 46.3751 7.65993V10.6794C46.3751 11.5176 46.701 12.2801 47.2326 12.8486L44.7892 13.7543C43.8467 14.1036 43.1039 14.8436 42.7506 15.7844L38.5661 26.9338L35.1258 31.991V30.394C35.1258 28.2747 33.4017 26.5507 31.2825 26.5507C29.1637 26.5507 27.4397 28.2747 27.4397 30.394V31.6467L23.6748 26.1744L20.3289 11.5676C20.3159 11.5099 20.297 11.4546 20.2727 11.401C19.3927 9.47803 17.4575 8.23521 15.3428 8.23521H13.9843C14.2998 7.7063 14.4817 7.08916 14.4817 6.42972V3.534C14.4817 1.58537 12.8963 0 10.9477 0H10.3297C8.38103 0 6.79611 1.58537 6.79611 3.534V6.42972C6.79611 7.08871 6.97796 7.7063 7.29351 8.23476H5.42185C3.9067 8.23476 2.45051 8.8753 1.42646 9.99253C0.40195 11.1093 -0.109853 12.6155 0.0211362 14.1252C0.0215864 14.1324 0.0224866 14.1392 0.0229368 14.1464L1.57005 28.0227C1.76901 29.8074 3.09645 31.2119 4.79436 31.5603L6.03403 54.3362L4.02103 56.5054C3.63391 56.9226 3.53083 57.529 3.75815 58.0507C3.98592 58.5724 4.50042 58.9095 5.06984 58.9095H15.3689C15.9379 58.9095 16.4528 58.5724 16.6802 58.0507C16.9079 57.5294 16.8048 56.9226 16.4177 56.5054L14.4948 54.4334L14.7032 50.4326C14.7279 49.9564 14.3615 49.5494 13.8848 49.5247C13.4036 49.499 13.0017 49.8663 12.9769 50.343L12.7973 53.791H11.1827L11.0836 33.8006C11.0809 33.3248 10.6947 32.9404 10.2194 32.9404C10.218 32.9404 10.2167 32.9404 10.2149 32.9404C9.73909 32.9431 9.35467 33.3293 9.35512 33.8046V33.8091L9.45415 53.791H7.73554L6.48056 30.7343C6.48056 30.7338 6.48056 30.7334 6.48056 30.7329L6.34417 28.2342H14.1265L13.1898 46.2418C13.1651 46.7185 13.5315 47.125 14.0082 47.1498C14.4876 47.1732 14.8913 46.8081 14.9161 46.3319L15.9005 27.415L16.3624 18.5325L19.6735 26.9207C19.6808 27.0391 19.7109 27.1571 19.7672 27.2655L26.3936 40.0948C26.566 40.4284 26.6574 40.8033 26.6574 41.1792V43.9309V43.9331V48.809C26.6574 49.4081 26.9851 49.9307 27.4694 50.2111L28.1356 57.3755C28.1608 58.2586 28.8869 58.9694 29.7759 58.9694H32.6118C33.49 58.9694 34.2097 58.2757 34.2507 57.407L35.4062 49.9789C35.7145 49.6836 35.9081 49.269 35.9081 48.809V43.9349C35.9081 43.9336 35.9085 43.9322 35.9085 43.9304V41.1639C35.9085 40.7952 35.9963 40.4266 36.1678 40.0885L42.4193 27.3209C42.6759 27.0715 42.8964 26.7789 43.067 26.4485L43.8498 24.9338L42.5021 31.3546C42.4035 31.8218 42.7029 32.28 43.1701 32.3782C43.6369 32.4763 44.0956 32.1769 44.1937 31.7097L46.7005 19.7667C46.8004 19.2901 46.5403 18.826 46.0816 18.6626C45.6229 18.4996 45.1277 18.695 44.904 19.1276L44.6011 19.7141L43.4226 18.9137L44.3693 16.3916C44.5462 15.9203 44.918 15.5499 45.3897 15.3748L49.3901 13.892C49.4256 13.879 49.4616 13.8691 49.4972 13.8578C49.5166 13.8583 49.5355 13.8592 49.5548 13.8592H50.5987C50.718 13.8592 50.8354 13.852 50.9516 13.8394C51.0313 13.8628 51.11 13.8898 51.1879 13.9213L54.3632 15.2186C54.9258 15.4486 55.3314 15.9645 55.4219 16.5654L55.9733 20.225H55.0307L54.7251 18.7125C54.6305 18.2444 54.1759 17.9419 53.7069 18.0364C53.2387 18.131 52.9362 18.5869 53.0308 19.0546L56.8862 38.1286C54.7957 38.9956 52.5955 39.4651 50.3435 39.524C47.8024 39.5911 45.2115 39.1086 42.846 38.1304L43.4303 35.3468C43.5284 34.8796 43.2291 34.4213 42.7618 34.3232C42.2951 34.2251 41.8368 34.5244 41.7382 34.9916L41.136 37.8626C40.9766 38.6215 41.3795 39.3899 42.0938 39.6897C43.1521 40.1335 44.2527 40.486 45.3749 40.7435L46.2972 54.7674L44.7982 56.6458C44.4525 57.0793 44.3868 57.659 44.6276 58.1587C44.868 58.6588 45.3623 58.9689 45.9168 58.9689H53.8662C54.4208 58.9689 54.915 58.6588 55.1554 58.1587C55.3962 57.659 55.3305 57.0793 54.9848 56.6458L53.4147 54.6787L54.3749 40.7435C55.484 40.4864 56.5738 40.1353 57.6365 39.6883C58.3459 39.3904 58.7506 38.6265 58.598 37.8729L57.2989 31.4473ZM29.1687 30.394C29.1687 29.2277 30.1171 28.2792 31.283 28.2792C32.4488 28.2792 33.3972 29.2277 33.3972 30.394V32.6712C33.3972 33.8222 32.4727 34.7594 31.3275 34.7837C31.1655 34.7801 31.0007 34.7643 30.8387 34.7378C29.8853 34.533 29.1687 33.6849 29.1687 32.6716V30.394ZM21.1149 25.8647L18.2259 18.5451L19.9999 17.8717L21.7982 25.7216L21.1149 25.8647ZM8.52462 6.42972V3.534C8.52462 2.53831 9.33441 1.72852 10.3301 1.72852H10.9481C11.9434 1.72852 12.7532 2.53831 12.7532 3.534V6.42972C12.7532 7.42496 11.9434 8.23476 10.9481 8.23476H10.3301C9.33441 8.23521 8.52462 7.42496 8.52462 6.42972ZM13.1444 55.5196L14.6861 57.181H11.0836V55.5196H13.1444ZM9.35512 55.5196V57.181H5.75225L7.29396 55.5196H9.35512ZM6.25055 26.5057L6.18573 25.3201C6.16007 24.8434 5.75315 24.4774 5.276 24.5044C4.79931 24.5301 4.4338 24.9374 4.45991 25.4141L4.56884 27.4168L4.69443 29.7273C3.93911 29.4041 3.38409 28.6947 3.28776 27.8309L2.31097 19.069H4.11466L4.23844 21.3485C4.26365 21.8095 4.64492 22.166 5.1009 22.166C5.11666 22.166 5.13241 22.1655 5.14862 22.1646C5.62531 22.1385 5.99037 21.7311 5.96471 21.2549L5.59515 14.4682C5.56904 13.9915 5.16122 13.6265 4.68543 13.6521C4.20874 13.6782 3.84323 14.0856 3.86933 14.5618L4.02058 17.3405H2.11831L1.74245 13.9654C1.65467 12.9256 1.99453 11.9299 2.70034 11.1602C3.4084 10.3882 4.37484 9.96327 5.42185 9.96327H15.3433C16.7558 9.96327 18.0504 10.7771 18.6652 12.0438L19.6105 16.1702L17.5912 16.9372L16.7742 14.8666C16.5964 14.416 16.1391 14.1563 15.6602 14.2341C15.1821 14.3125 14.8306 14.705 14.8058 15.1884L14.217 26.5057H6.25055ZM31.283 46.0852C30.8054 46.0852 30.4187 46.4723 30.4187 46.9495V48.7005H28.3859V44.796H34.18V48.7005H32.1472V46.9495C32.1472 46.4723 31.7601 46.0852 31.283 46.0852ZM29.2258 50.429H30.4187V57.2409H29.8592L29.2258 50.429ZM32.5348 57.1959C32.5321 57.2107 32.5303 57.226 32.5289 57.2409H32.1472V50.429H33.5868L32.5348 57.1959ZM34.6203 39.3183C34.3322 39.8873 34.18 40.5256 34.18 41.1643V43.0666H28.3859V41.1792C28.3859 40.5287 28.2279 39.8796 27.9295 39.3017L21.8648 27.5599L22.4464 27.4384L27.1521 34.2773C27.9295 35.408 29.1502 36.1944 30.5069 36.4357C30.5087 36.4361 30.511 36.4366 30.5128 36.437C30.5137 36.437 30.515 36.4375 30.5159 36.4375C30.5164 36.4375 30.5173 36.4375 30.5182 36.4379C30.7653 36.4879 31.0205 36.5144 31.2821 36.5144H31.4059C32.2436 36.5144 33.0786 36.3069 33.8208 35.9149C34.5622 35.5232 35.2036 34.9498 35.6763 34.2552L39.7405 28.2815C39.8337 28.2896 39.9264 28.2936 40.0187 28.2936L34.6203 39.3183ZM43.8021 21.2612L41.5316 25.6554C41.3282 26.0488 40.9838 26.3342 40.5859 26.4719L42.7979 20.5792L43.8021 21.2612ZM48.1036 7.65993C48.1036 6.8596 48.7545 6.2087 49.5553 6.2087H50.5991C51.3995 6.2087 52.0508 6.8596 52.0508 7.65993V10.6794C52.0508 11.3438 51.602 11.9038 50.9921 12.0758L49.3298 12.1118C48.6361 12.0028 48.1036 11.4033 48.1036 10.6794V7.65993ZM49.0034 41.2386L48.9485 54.0913H47.9852L47.1281 41.0658C47.7511 41.1526 48.3773 41.2107 49.0034 41.2386ZM47.6692 55.8203H49.0273V57.2409H46.5353L47.6692 55.8203ZM50.7558 57.2409V55.8203H52.1138L53.2477 57.2409H50.7558ZM51.7227 54.0913H50.677L50.7319 41.2395C51.3653 41.212 51.995 41.1553 52.6198 41.0689L51.7227 54.0913ZM57.0329 29.5716C57.0032 29.6058 56.9721 29.6377 56.9393 29.667L55.38 21.9539H56.2335L57.2611 28.7789C57.3048 29.0683 57.2238 29.3497 57.0329 29.5716Z" fill="#59ACF4"/>
</g>
<defs>
<clipPath id="clip0">
<rect width="59" height="59" fill="white"/>
</clipPath>
</defs>
</svg>
