<svg width="59" height="59" viewBox="0 0 59 59" fill="none" xmlns="http://www.w3.org/2000/svg">
<path d="M29.5 15.7161V13.8281H31.3438C31.8535 13.8281 32.2656 13.416 32.2656 12.9062V1.84375C32.2656 1.33395 31.8535 0.921875 31.3438 0.921875H5.53125C5.02145 0.921875 4.60938 1.33395 4.60938 1.84375V12.9062C4.60938 13.416 5.02145 13.8281 5.53125 13.8281H7.375V15.7161C5.74789 15.8922 4.19822 16.6232 3.03573 17.7857C1.69256 19.1289 0.921875 20.9893 0.921875 22.8883V50.8617C0.921875 52.7617 1.69256 54.6211 3.03573 55.9643C4.37891 57.3074 6.23925 58.0781 8.13831 58.0781H28.7367C30.6367 58.0781 32.4961 57.3074 33.8393 55.9643C35.1824 54.6211 35.9531 52.7607 35.9531 50.8617V22.8883C35.9531 20.9883 35.1824 19.1289 33.8393 17.7857C32.6768 16.6232 31.1271 15.8922 29.5 15.7161ZM10.1406 11.9844V2.76562H11.9844V11.9844H10.1406ZM13.8281 2.76562H15.6719V11.9844H13.8281V2.76562ZM17.5156 2.76562H19.3594V11.9844H17.5156V2.76562ZM21.2031 2.76562H23.0469V11.9844H21.2031V2.76562ZM24.8906 2.76562H26.7344V11.9844H24.8906V2.76562ZM30.4219 11.9844H28.5781V2.76562H30.4219V11.9844ZM6.45312 2.76562H8.29688V11.9844H6.45312V2.76562ZM27.6562 13.8281V15.6719H9.21875V13.8281H27.6562ZM2.76562 30.4219H34.1094V45.1719H2.76562V30.4219ZM32.5357 54.6607C31.5355 55.661 30.1508 56.2344 28.7367 56.2344H8.13831C6.72416 56.2344 5.3395 55.661 4.33927 54.6607C3.33903 53.6605 2.76562 52.2758 2.76562 50.8617V47.0156H34.1094V50.8617C34.1094 52.2758 33.536 53.6605 32.5357 54.6607ZM34.1094 28.5781H2.76562V22.8883C2.76562 21.4742 3.33903 20.0895 4.33927 19.0893C5.3395 18.089 6.72416 17.5156 8.13831 17.5156H8.29688H28.5781H28.7367C30.1508 17.5156 31.5355 18.089 32.5357 19.0893C33.536 20.0895 34.1094 21.4742 34.1094 22.8883V28.5781Z" fill="#6F6F6F" fill-opacity="0.5"/>
<path d="M6.45312 32.2656H8.29688V43.3281H6.45312V32.2656Z" fill="#6F6F6F" fill-opacity="0.5"/>
<path d="M13.8281 32.2656H15.6719V43.3281H13.8281V32.2656Z" fill="#6F6F6F" fill-opacity="0.5"/>
<path d="M21.2031 32.2656H23.0469V43.3281H21.2031V32.2656Z" fill="#6F6F6F" fill-opacity="0.5"/>
<path d="M28.5781 32.2656H30.4219V43.3281H28.5781V32.2656Z" fill="#6F6F6F" fill-opacity="0.5"/>
<path d="M42.4062 43.3281C39.8646 43.3281 37.7969 45.3959 37.7969 47.9375V53.4688C37.7969 56.0104 39.8646 58.0781 42.4062 58.0781C44.9479 58.0781 47.0156 56.0104 47.0156 53.4688V47.9375C47.0156 45.3959 44.9479 43.3281 42.4062 43.3281ZM42.4062 45.1719C43.931 45.1719 45.1719 46.4127 45.1719 47.9375V49.7812H39.6406V47.9375C39.6406 46.4127 40.8815 45.1719 42.4062 45.1719ZM42.4062 56.2344C40.8815 56.2344 39.6406 54.9935 39.6406 53.4688V51.625H45.1719V53.4688C45.1719 54.9935 43.931 56.2344 42.4062 56.2344Z" fill="#6F6F6F" fill-opacity="0.5"/>
<path d="M53.4688 43.3281C50.9271 43.3281 48.8594 45.3959 48.8594 47.9375V53.4688C48.8594 56.0104 50.9271 58.0781 53.4688 58.0781C56.0104 58.0781 58.0781 56.0104 58.0781 53.4688V47.9375C58.0781 45.3959 56.0104 43.3281 53.4688 43.3281ZM53.4688 45.1719C54.9935 45.1719 56.2344 46.4127 56.2344 47.9375V49.7812H50.7031V47.9375C50.7031 46.4127 51.944 45.1719 53.4688 45.1719ZM53.4688 56.2344C51.944 56.2344 50.7031 54.9935 50.7031 53.4688V51.625H56.2344V53.4688C56.2344 54.9935 54.9935 56.2344 53.4688 56.2344Z" fill="#6F6F6F" fill-opacity="0.5"/>
<path d="M57.1562 28.8012C57.1562 26.137 54.988 23.9688 52.3238 23.9688C51.0332 23.9688 49.819 24.4712 48.9064 25.3838L41.9776 32.3126C41.0649 33.2253 40.5625 34.4385 40.5625 35.73C40.5625 38.3942 42.7308 40.5625 45.395 40.5625C46.6856 40.5625 47.8997 40.0601 48.8124 39.1474L55.7412 32.2186C56.6538 31.306 57.1562 30.0928 57.1562 28.8012ZM47.5088 37.8439C46.9446 38.4081 46.1933 38.7188 45.395 38.7188C43.7467 38.7188 42.4062 37.3783 42.4062 35.73C42.4062 34.9317 42.7169 34.1804 43.2811 33.6162L46.0938 30.8035L50.3215 35.0312L47.5088 37.8439ZM54.4376 30.9151L51.625 33.7277L47.3973 29.5L50.2099 26.6874C50.7741 26.1232 51.5254 25.8125 52.3238 25.8125C53.9721 25.8125 55.3125 27.1529 55.3125 28.8012C55.3125 29.5996 55.0018 30.3509 54.4376 30.9151Z" fill="#6F6F6F" fill-opacity="0.5"/>
</svg>
