<svg xmlns="http://www.w3.org/2000/svg" viewBox="0 0 33.04 32.36"><title>injection</title><g id="Слой_2" data-name="Слой 2"><g id="Слой_1-2" data-name="Слой 1"><path d="M32.6,5.6,33,5.2,27.84,0l-.5.24L28.5,1.35,25.41,4.44,22.32,1.35,22,1.73l1.15,1.16L6.56,19.43a2.71,2.71,0,0,0,0,3.86l-.87,3.18L0,31.78l.58.58,5.89-5.13,3.18-.86a2.74,2.74,0,0,0,3.86,0L30,9.82,31.2,11l.38-.38L28.5,7.52l2.91-3.08ZM23.69,3.47l5.78,5.77-4,4L19.64,7.51ZM6.56,26.37l.77-2.44L9,25.6ZM12.71,26a1.67,1.67,0,0,1-2.31,0L6.93,22.53a1.63,1.63,0,0,1,0-2.31l3.47-3.46,1.73,1.73.58-.58L11,16.18,12.13,15l1.74,1.74.57-.58-1.73-1.71,1.16-1.18L15.6,15l.58-.58-1.74-1.73,4.63-4.62,5.77,5.78ZM28.11,7.07,25.8,4.82l2.62-2.51,2.13,2.13Z"/></g></g></svg>