<svg width="34" height="34" viewBox="0 0 34 34" fill="none" xmlns="http://www.w3.org/2000/svg">
<g clip-path="url(#clip0)">
<path d="M32.7385 6.41808L33.1779 6.02136L27.9779 0.821289L27.4778 1.06054L28.6316 2.16982L25.5444 5.25706L22.4571 2.16982L22.0895 2.5547L23.2451 3.71026L6.69106 20.2513C5.19362 21.8411 6.13694 23.675 6.69106 24.1104L5.8269 27.29L0.133972 32.5991L0.71175 33.1769L6.60531 28.0552L9.7849 27.191C10.3258 27.8177 12.1267 28.6093 13.644 27.191L30.1784 10.6436L31.334 11.7991L31.7188 11.4249L28.6316 8.3443L31.5449 5.25706L32.7385 6.41808ZM23.8228 4.28803L29.6006 10.0658L25.5562 14.1102L19.7784 8.33248L23.8228 4.28803ZM6.69106 27.191L7.46287 24.7562L9.13129 26.4258L6.69106 27.191ZM12.8451 26.8214C12.225 27.4415 11.1541 27.4415 10.534 26.8214L7.0673 23.3547C6.75726 23.0447 6.15036 22.0661 7.0673 21.0436L10.534 17.5769L12.2673 19.3102L12.8451 18.7325L11.1117 16.9991L12.2673 15.8436L14.0006 17.5769L14.5784 16.9991L12.8451 15.2906L14.0006 14.1102L15.734 15.8436L16.3117 15.2658L14.5784 13.5325L19.2006 8.91025L24.9784 14.688L12.8451 26.8214ZM28.2424 7.89079L25.9304 5.64627L28.5557 3.1324L30.6856 5.25706L28.2424 7.89079Z" fill="white"/>
</g>
<defs>
<clipPath id="clip0">
<rect x="0.244476" y="0.243652" width="33.5111" height="33.5111" fill="white"/>
</clipPath>
</defs>
</svg>
