<svg xmlns="http://www.w3.org/2000/svg" viewBox="0 0 182.37 182.6"><title>logo_short</title><g id="Слой_2" data-name="Слой 2"><g id="Слой_1-2" data-name="Слой 1"><path d="M162.74,88.63c6.71-2.16,16.14-2.55,17.73-1.59a3.29,3.29,0,0,1,1.9,3.5c-.08,1.8-.32,2.87-1.9,3.51s-5.38.11-8.55.64a27,27,0,0,0-7,2.23c-5.44,2.29-8.23,4.78-12.66,8.29-5.66,4.47-9.11,7.1-16.15,8.61-6,1.28-14.25,1.38-19.95-1.92-5.54-3.21-8.47-6.41-10.76-12.43-2.39-6.28-2.43-11,0-17.22,2.11-5.43,4.65-8.28,9.5-11.47s8.26-4.07,13.93-4.15c5.49-.07,8.76.93,13.61,3.51a50.55,50.55,0,0,1,9.82,6.69,3.46,3.46,0,0,1,.63,4.47c-1,1.66-3.8,1.91-5.06,1.27-4.54-2.28-6.89-4.81-11.72-6.37-5.29-1.72-9.24-2.45-14.25,0S114,82.07,113,87.67c-.94,5.76.78,10.11,5.07,14,5.6,5.12,13,4.78,19.31,1.91S154.82,91.18,162.74,88.63Z"/><path d="M19.64,93c-6.72,2.16-16.15,2.55-17.73,1.59A3.27,3.27,0,0,1,0,91.06c.07-1.8.31-2.87,1.9-3.51s5.37-.11,8.55-.64a26.55,26.55,0,0,0,7-2.23c5.44-2.29,8.23-4.78,12.67-8.29,5.65-4.47,9.11-7.1,16.14-8.61,6-1.28,14.25-1.38,20,1.92,5.55,3.21,8.47,6.42,10.76,12.43,2.4,6.28,2.44,11,0,17.22-2.11,5.43-4.64,8.28-9.49,11.47s-8.26,4.07-13.94,4.15C48,115,44.76,114,39.9,111.46a50.07,50.07,0,0,1-9.81-6.69,3.45,3.45,0,0,1-.64-4.47c1-1.65,3.8-1.91,5.07-1.27,4.54,2.28,6.88,4.81,11.71,6.37,5.3,1.72,9.24,2.45,14.25,0s8-5.87,8.87-11.47c.94-5.76-.78-10.11-5.07-14C58.68,74.78,51.3,75.12,45,78S27.55,90.42,19.64,93Z"/><path d="M94.86,162.82c2.15,6.77,2.53,16.26,1.58,17.86A3.26,3.26,0,0,1,93,182.59c-1.78-.07-2.85-.32-3.48-1.91s-.11-5.42-.64-8.61a27.1,27.1,0,0,0-2.21-7c-2.27-5.49-4.75-8.29-8.23-12.76-4.45-5.69-7.06-9.17-8.55-16.26-1.28-6-1.38-14.34,1.9-20.08,3.18-5.59,6.37-8.53,12.34-10.84,6.24-2.41,10.88-2.45,17.1,0,5.4,2.13,8.23,4.68,11.4,9.56s4,8.32,4.12,14c.07,5.53-.93,8.82-3.49,13.71a49.91,49.91,0,0,1-6.65,9.88,3.38,3.38,0,0,1-4.43.64c-1.64-1-1.9-3.82-1.27-5.1,2.27-4.57,4.78-6.93,6.34-11.8,1.7-5.33,2.43-9.3,0-14.34s-5.84-8-11.4-8.93c-5.71-1-10,.79-13.93,5.1-5.09,5.64-4.75,13.07-1.9,19.45S92.33,154.85,94.86,162.82Z"/><path d="M89.6,19.77C87.46,13,87.07,3.51,88,1.92A3.26,3.26,0,0,1,91.5,0C93.29.08,94.35.33,95,1.92s.11,5.41.63,8.61a27.25,27.25,0,0,0,2.22,7c2.27,5.48,4.74,8.29,8.23,12.75,4.44,5.7,7.05,9.18,8.55,16.26,1.27,6.06,1.37,14.35-1.9,20.09s-6.38,8.53-12.35,10.84c-6.23,2.41-10.88,2.45-17.1,0-5.39-2.13-8.23-4.68-11.4-9.56s-4-8.32-4.11-14c-.08-5.53.92-8.82,3.48-13.71a50.38,50.38,0,0,1,6.65-9.89,3.39,3.39,0,0,1,4.43-.63c1.65,1,1.9,3.82,1.27,5.1-2.27,4.57-4.78,6.93-6.33,11.79-1.71,5.34-2.43,9.31,0,14.35s5.83,8,11.39,8.93c5.72,1,10-.79,13.93-5.1,5.09-5.65,4.75-13.07,1.91-19.45S92.14,27.74,89.6,19.77Z"/><path d="M91.82,63.13A8.93,8.93,0,1,0,83,54.2,8.9,8.9,0,0,0,91.82,63.13Z"/></g></g></svg>