<svg xmlns="http://www.w3.org/2000/svg" viewBox="0 0 29.9 39"><defs><style>.cls-1{fill:#6f6f6f;fill-opacity:0.4;}</style></defs><title>person</title><g id="Слой_2" data-name="Слой 2"><g id="Слой_1-2" data-name="Слой 1"><path class="cls-1" d="M26.66,27.88l-6.21-3.11a1.69,1.69,0,0,1-.95-1.53V21c.15-.18.31-.39.47-.62a15,15,0,0,0,1.92-3.77A2.59,2.59,0,0,0,23.4,14.3V11.7A2.59,2.59,0,0,0,22.75,10V6.54A5.8,5.8,0,0,0,21.39,2.3C20.06.77,17.89,0,15,0S9.84.77,8.51,2.29A5.83,5.83,0,0,0,7.15,6.54V10A2.59,2.59,0,0,0,6.5,11.7v2.6a2.59,2.59,0,0,0,1,2A13.58,13.58,0,0,0,9.75,21v2.16a1.7,1.7,0,0,1-.9,1.5L3.06,27.85A5.86,5.86,0,0,0,0,33v2.1C0,38.18,9.78,39,15,39s15-.82,15-3.9v-2A5.83,5.83,0,0,0,26.66,27.88ZM28.6,35.1c0,.88-4.82,2.6-13.65,2.6S1.3,36,1.3,35.1V33a4.55,4.55,0,0,1,2.38-4l5.8-3.16a3,3,0,0,0,1.57-2.65V20.56l-.15-.18a12.17,12.17,0,0,1-2.22-4.59l-.06-.26-.22-.14a1.28,1.28,0,0,1-.6-1.09V11.7a1.27,1.27,0,0,1,.44-1l.21-.19V6.41A4.53,4.53,0,0,1,9.49,3.15C10.56,1.92,12.4,1.3,15,1.3s4.37.62,5.45,1.84a4.57,4.57,0,0,1,1.06,3.27v4.14l.21.19a1.27,1.27,0,0,1,.44,1v2.6a1.28,1.28,0,0,1-.92,1.23l-.33.1-.1.33a14,14,0,0,1-1.84,3.71,8.21,8.21,0,0,1-.55.7l-.16.18v2.69a3,3,0,0,0,1.67,2.7L26.08,29a4.55,4.55,0,0,1,2.52,4.08Z"/></g></g></svg>