<svg width="39" height="39" viewBox="0 0 39 39" fill="none" xmlns="http://www.w3.org/2000/svg">
<path d="M31.2091 27.8778L24.9996 24.7734C24.414 24.4803 24.05 23.8914 24.05 23.2362V21.0385C24.1988 20.8566 24.3555 20.6492 24.5173 20.4204C25.3227 19.2829 25.9681 18.0167 26.4374 16.6511C27.3546 16.2305 27.95 15.3237 27.95 14.3V11.7C27.95 11.074 27.716 10.4676 27.3 9.99375V6.5364C27.3364 6.1789 27.4794 4.0508 25.9402 2.29515C24.6051 0.7722 22.4386 0 19.5 0C16.5613 0 14.3949 0.7722 13.0598 2.2945C11.5206 4.05015 11.6636 6.1789 11.7 6.5364V9.99375C11.284 10.4676 11.05 11.074 11.05 11.7V14.3C11.05 15.091 11.4094 15.8288 12.023 16.3208C12.6184 18.6784 13.8645 20.4548 14.3 21.0249V23.1757C14.3 23.8049 13.9568 24.3821 13.4049 24.6837L7.60629 27.8466C5.72064 28.8756 4.54999 30.8477 4.54999 32.9953V35.1C4.54999 38.1849 14.3292 39 19.5 39C24.6707 39 34.45 38.1849 34.45 35.1V33.122C34.45 30.8874 33.2078 28.8775 31.2091 27.8778ZM33.15 35.1C33.15 35.982 28.3322 37.7 19.5 37.7C10.6678 37.7 5.84999 35.982 5.84999 35.1V32.9953C5.84999 31.3242 6.76129 29.7882 8.22834 28.9887L14.027 25.8258C14.9974 25.296 15.6 24.2801 15.6 23.1757V20.5634L15.4485 20.3827C15.4329 20.3638 13.8398 18.4366 13.232 15.7904L13.1729 15.533L12.9512 15.39C12.5749 15.1469 12.35 14.7394 12.35 14.3V11.7C12.35 11.3354 12.5047 10.9954 12.7855 10.7412L13 10.5482V6.5L12.9941 6.41485C12.9922 6.3973 12.7712 4.5955 14.0374 3.1512C15.1144 1.9227 16.9526 1.3 19.5 1.3C22.0382 1.3 23.8725 1.91815 24.9509 3.1382C26.2164 4.56885 26.0071 6.39925 26.0058 6.41485L26 10.5482L26.2145 10.7419C26.4953 10.9954 26.65 11.3354 26.65 11.7V14.3C26.65 14.8674 26.2782 15.364 25.7257 15.5343L25.402 15.6338L25.298 15.9556C24.8631 17.3082 24.2437 18.5575 23.4559 19.669C23.2628 19.9426 23.075 20.1851 22.9118 20.3703L22.75 20.5549V23.2362C22.75 24.3867 23.3889 25.4208 24.4179 25.9356L30.6273 29.04C32.1834 29.8181 33.15 31.382 33.15 33.122V35.1Z" fill="#6F6F6F" fill-opacity="0.4"/>
</svg>
