<svg width="59" height="59" viewBox="0 0 59 59" fill="none" xmlns="http://www.w3.org/2000/svg">
<g clip-path="url(#clip0)">
<path d="M30.1956 30.2105L41.2939 19.0661C41.6702 18.6749 41.6581 18.0527 41.267 17.6763C40.8852 17.3093 40.2813 17.3105 39.9012 17.6793L29.4998 28.1249L23.2292 21.8829C22.838 21.5066 22.2158 21.5186 21.8395 21.9098C21.4723 22.2915 21.4736 22.8955 21.8424 23.2756L28.8059 30.2105C29.1897 30.5942 29.8118 30.5942 30.1956 30.2105Z" fill="#6F6F6F" fill-opacity="0.5"/>
<path d="M58.9857 29.4853C58.9857 13.201 45.7846 0 29.5004 0C13.2162 0 0.0151744 13.201 0.0151744 29.4853C0.00731166 29.5042 0.00731166 29.5253 0.0151744 29.5442C0.0493282 45.8095 13.235 58.9822 29.5004 59C32.8778 59.0064 36.2306 58.4233 39.4075 57.2771C42.1159 59.0905 45.73 58.7277 48.0241 56.4122C48.4372 55.9892 48.7925 55.5133 49.0806 54.9969C53.892 55.6163 58.2945 52.2182 58.9139 47.4068C58.9644 47.0143 58.9884 46.6188 58.9856 46.2231C58.9852 44.1213 58.2344 42.0886 56.8685 40.4911C58.2687 37.0114 58.9874 33.2951 58.9856 29.5442C58.9936 29.5253 58.9936 29.5042 58.9857 29.4853ZM48.0653 51.5452C48.0694 51.7091 48.0651 51.8731 48.0526 52.0366C48.0427 52.1349 48.0182 52.2332 48.0024 52.3314C47.9788 52.4759 47.9592 52.6214 47.9218 52.7639C47.8953 52.8681 47.855 52.9693 47.8236 53.0715C47.7793 53.2042 47.739 53.3389 47.683 53.4647C47.6702 53.4892 47.6565 53.5128 47.6457 53.5384C47.4078 54.0902 47.0654 54.5909 46.6373 55.0126C44.8979 56.7684 42.1221 56.9506 40.1682 55.4372C39.9087 55.2082 37.0487 52.3688 34.8235 50.1535L38.2576 46.7233L41.7761 43.2097L42.2676 43.7011L45.4814 46.915L46.6353 48.0689C47.3203 48.7476 47.7845 49.6173 47.967 50.5643C48.0191 50.8071 48.0521 51.0535 48.0653 51.3014C48.0653 51.383 48.0604 51.4636 48.0653 51.5452ZM28.5638 43.8967C26.646 41.9762 26.6482 38.8647 28.5687 36.9469C29.4912 36.0256 30.7421 35.5087 32.046 35.5101C33.3502 35.5044 34.6018 36.0241 35.5184 36.9519L40.3864 41.8199L36.9258 45.2756L33.4318 48.7647L28.5638 43.8967ZM31.0012 49.1166C30.5098 49.1549 30.0046 49.1746 29.5004 49.1746C18.6442 49.1746 9.84359 40.3739 9.84359 29.5177C9.84359 18.6615 18.6442 9.86086 29.5004 9.86086C40.3554 9.86086 49.1557 18.6598 49.1573 29.5148C49.1666 32.393 48.5354 35.2372 47.3095 37.8414C47.2486 37.8611 47.1906 37.8876 47.1297 37.9092C47.0501 37.9387 46.9695 37.9662 46.8908 37.9977L46.7395 38.0586C46.6294 38.1048 46.5223 38.1569 46.4142 38.2031C46.306 38.2493 46.2117 38.3014 46.1124 38.3485C46.0574 38.377 45.9994 38.4016 45.9444 38.4311H45.9385C45.8677 38.4694 45.8009 38.5146 45.7311 38.554C45.6328 38.61 45.5345 38.665 45.4441 38.724C45.3537 38.783 45.2829 38.8223 45.2033 38.8793C45.1443 38.9196 45.0863 38.9609 45.0284 39.0021C44.9704 39.0434 44.8839 39.1004 44.8141 39.1564C44.704 39.239 44.5989 39.3265 44.4937 39.4149C44.4396 39.4601 44.3826 39.5014 44.3296 39.5486L44.2244 39.642C44.1123 39.7402 44.0052 39.8513 43.8981 39.9584C43.8303 40.0263 43.7585 40.0911 43.6927 40.1619L43.6593 40.1973C43.5531 40.3113 43.4548 40.4332 43.3556 40.5521C43.2976 40.6219 43.2366 40.6877 43.1806 40.7595C43.1541 40.7929 43.1295 40.8292 43.1039 40.8636C43.0548 40.9285 43.0057 40.9963 42.9614 41.0602C42.8858 41.1673 42.8052 41.2705 42.7334 41.3816L42.4926 41.1408L42.4395 41.0877L36.9111 35.5651C34.2263 32.8763 29.8702 32.873 27.1814 35.5578C27.179 35.5602 27.1765 35.5627 27.174 35.5651C24.4909 38.2512 24.4909 42.6033 27.174 45.2894L31.0012 49.1166ZM50.1401 53.103C50.051 53.103 49.9606 53.101 49.8688 53.0971C49.9289 52.838 49.9729 52.5753 50.0005 52.3108C50.0074 52.2577 50.0064 52.2047 50.0114 52.1516C50.034 51.8876 50.0408 51.6223 50.032 51.3574C50.032 51.2729 50.0261 51.1894 50.0202 51.1049C50.001 50.7903 49.9593 50.4777 49.8954 50.1692C49.8337 49.8641 49.7513 49.5638 49.6487 49.2699C49.6163 49.1775 49.576 49.0881 49.5406 48.9967C49.462 48.8001 49.3774 48.6035 49.2811 48.4138C49.231 48.3155 49.1769 48.2173 49.1219 48.119C49.0236 47.9411 48.9106 47.7691 48.7926 47.601C48.7307 47.5135 48.6708 47.4251 48.6059 47.3406C48.5705 47.2963 48.542 47.2472 48.5076 47.203H56.9532C56.4614 50.5881 53.5608 53.1 50.1401 53.103ZM56.9502 45.2402H46.5862L44.1674 42.8205C44.1762 42.8048 44.1831 42.788 44.192 42.7723C44.2342 42.6996 44.2814 42.6318 44.3256 42.561C44.4092 42.4293 44.4927 42.2976 44.5841 42.1679C44.6401 42.0902 44.702 42.0155 44.761 41.9408C44.8495 41.8298 44.9389 41.7197 45.0333 41.6145C45.1001 41.5398 45.1699 41.4681 45.2397 41.3973C45.3379 41.299 45.4362 41.2008 45.5345 41.1103C45.6092 41.0435 45.6859 40.9776 45.7625 40.9138C45.8697 40.8253 45.9788 40.7418 46.0908 40.6602C46.1704 40.6022 46.25 40.5442 46.3326 40.4892C46.4525 40.4096 46.5753 40.3368 46.7002 40.2651C46.7808 40.2189 46.8614 40.1668 46.9449 40.1255C47.0854 40.0528 47.2309 39.9879 47.3773 39.929C47.4501 39.8965 47.5199 39.8611 47.5936 39.8307C47.8188 39.7415 48.0484 39.6641 48.2816 39.5987C48.886 39.4265 49.5117 39.3405 50.1401 39.3432C53.5621 39.3381 56.4661 41.8526 56.9502 45.2402ZM54.0715 30.4976H56.9777C56.8883 33.4179 56.3308 36.3047 55.3266 39.0483C55.2981 39.0277 55.2666 39.0139 55.2381 38.9943C54.9108 38.7618 54.5679 38.552 54.212 38.3662C54.1472 38.3318 54.0793 38.3043 54.0155 38.268C53.6871 38.1079 53.349 37.9683 53.0031 37.8502C52.9432 37.8296 52.8862 37.805 52.8252 37.7864C52.4419 37.6661 52.0509 37.5725 51.6547 37.5062C51.5652 37.4915 51.4768 37.4787 51.3873 37.4669C50.9742 37.4078 50.5575 37.378 50.1401 37.3775C49.9652 37.3775 49.7971 37.4031 49.6251 37.4129C50.6191 34.8985 51.1274 32.2184 51.123 29.5148C51.123 17.573 41.4422 7.89222 29.5004 7.89222C17.5587 7.89222 7.87791 17.573 7.87791 29.5148C7.87791 41.4565 17.5587 51.1373 29.5004 51.1373C30.5911 51.1329 31.6799 51.0431 32.7566 50.869L32.8637 50.9761L37.6796 55.792C35.3461 56.5165 32.9254 56.9222 30.4833 56.998V54.0858C30.4833 53.543 30.0432 53.103 29.5004 53.103C28.9577 53.103 28.5176 53.543 28.5176 54.0858V57.0098C14.1013 56.4781 2.53715 44.9139 2.00543 30.4976H4.92938C5.47216 30.4976 5.91223 30.0575 5.91223 29.5148C5.91223 28.972 5.47216 28.5319 4.92938 28.5319H2.00543C2.53715 14.1156 14.1013 2.55146 28.5176 2.01974V4.9437C28.5176 5.48647 28.9577 5.92654 29.5004 5.92654C30.0432 5.92654 30.4833 5.48647 30.4833 4.9437V2.01974C44.8996 2.55146 56.4637 14.1156 56.9954 28.5319H54.0715C53.5287 28.5319 53.0886 28.972 53.0886 29.5148C53.0886 30.0575 53.5287 30.4976 54.0715 30.4976Z" fill="#6F6F6F" fill-opacity="0.5"/>
</g>
<defs>
<clipPath id="clip0">
<rect width="59" height="59" fill="white"/>
</clipPath>
</defs>
</svg>
