<svg xmlns="http://www.w3.org/2000/svg" viewBox="0 0 35 35"><defs><style>.cls-1{fill:#6f6f6f;fill-opacity:0.2;}</style></defs><title>question</title><g id="Слой_2" data-name="Слой 2"><g id="Слой_1-2" data-name="Слой 1"><path class="cls-1" d="M29.87,5.13a17.48,17.48,0,0,0-24.74,0A17.5,17.5,0,0,0,2.34,26.25L0,35l8.75-2.34A17.5,17.5,0,0,0,29.87,5.13ZM17.5,33.5a16.66,16.66,0,0,1-8.38-2.44l-.37-.23L2.34,32.66,4.5,26.25,4,25.5a15.49,15.49,0,0,1-2.5-8,16.42,16.42,0,0,1,16-16,16.42,16.42,0,0,1,16,16A16.42,16.42,0,0,1,17.5,33.5Z"/><path class="cls-1" d="M18.53,24.17H16.47v2h2.06Z"/><path class="cls-1" d="M17.5,8.78a5.13,5.13,0,0,0-5.13,5.13h2.05a3.08,3.08,0,0,1,6.16,0A3,3,0,0,1,19.79,16l-3.32,3.71v2.44h2.06V20.46l2.79-3.13A5.13,5.13,0,0,0,17.5,8.78Z"/></g></g></svg>