<svg width="59" height="59" viewBox="0 0 59 59" fill="none" xmlns="http://www.w3.org/2000/svg">
<g clip-path="url(#clip0)">
<path d="M51.9506 24.2028C51.3972 23.7311 50.7992 23.3054 50.1721 22.9373C49.5377 22.5655 48.8757 22.2497 48.2059 21.9993C46.5041 21.3598 44.688 21.1042 42.8805 21.2388C43.1141 20.4267 43.2354 19.5793 43.2354 18.7178C43.2354 16.1647 42.1559 13.7124 40.2732 11.9894C39.201 11.0092 37.8972 10.2918 36.5027 9.91484C36.0423 9.79026 35.5676 10.0627 35.4431 10.5236C35.3185 10.9843 35.591 11.4588 36.0518 11.5832C37.1971 11.8929 38.2252 12.4587 39.1067 13.2647C40.6322 14.6607 41.5071 16.6484 41.5071 18.7178C41.5071 20.5663 40.8191 22.3365 39.5699 23.702L35.7849 27.8394L24.8841 17.8664L28.6693 13.7292C29.8162 12.476 31.3071 11.6762 32.9808 11.4164C33.4525 11.3432 33.7755 10.9014 33.7022 10.4299C33.6289 9.95828 33.1867 9.63548 32.7157 9.70855C30.8432 9.99931 29.0958 10.8807 27.7422 12.2052C27.6956 10.5132 27.3059 8.84318 26.5797 7.27815C24.005 1.72935 17.8552 -1.15027 11.9581 0.430887C11.2602 0.616547 10.5701 0.867089 9.9077 1.17525C9.24493 1.48284 8.60878 1.84759 8.017 2.25901C3.00155 5.74217 1.23 12.2974 3.80469 17.846C5.90537 22.3731 10.3855 25.1232 15.1679 25.1229C15.7293 25.1229 16.295 25.0839 16.8616 25.0066C16.1046 26.9734 16.0507 29.1622 16.7527 31.2072C15.4934 31.5531 14.3133 32.1704 13.2864 33.0387C9.44822 36.2843 8.96615 42.0475 12.2119 45.8857L20.5699 55.7696C22.1422 57.6289 24.3443 58.7645 26.7709 58.9676C27.0302 58.9893 27.2887 59 27.5459 59C29.6959 59 31.7564 58.2484 33.4169 56.8441C37.255 53.5985 37.7372 47.8353 34.4915 43.9971L28.4495 36.8522C29.5079 36.4767 30.4819 35.9098 31.3354 35.1708C31.6982 38.3086 33.2384 41.2507 35.6648 43.3136C36.2204 43.7861 36.8188 44.2112 37.4428 44.5769C38.0756 44.9484 38.7373 45.2643 39.4082 45.5151C40.681 45.9938 42.0168 46.2596 43.3787 46.3051C43.3885 46.3054 43.3983 46.3055 43.4081 46.3055C43.8721 46.3055 44.2556 45.9373 44.2713 45.4702C44.2872 44.9933 43.9134 44.5937 43.4363 44.5777C42.611 44.5501 41.7974 44.4266 41.005 44.2133L51.5873 26.2278C54.9535 29.6884 55.6347 35.0027 53.1376 39.2477C51.685 41.7156 49.3617 43.4804 46.5957 44.2169C46.1345 44.3397 45.8601 44.8131 45.9831 45.2743C46.086 45.6611 46.4354 45.9164 46.8176 45.9164C46.8912 45.9164 46.966 45.9069 47.0405 45.8871C50.2482 45.0329 52.9426 42.9864 54.6274 40.1243C57.7284 34.8517 56.6023 28.1554 51.9506 24.2028ZM25.012 8.00569C25.917 9.95598 26.2178 12.0946 25.8903 14.2063L21.4103 19.103L13.4183 1.88078C18.179 1.07822 22.939 3.53812 25.012 8.00569ZM10.6359 2.7427C10.9874 2.57916 11.3481 2.43707 11.7134 2.31272L20.1462 20.4846L18.6574 22.1119C18.5877 22.1881 18.5199 22.2655 18.4532 22.3435L9.61106 3.2885C9.94193 3.09016 10.2836 2.90611 10.6359 2.7427ZM5.37259 17.1186C3.29968 12.6514 4.49373 7.42901 8.18018 4.31129L16.9649 23.2423C12.2037 24.045 7.44515 21.5853 5.37259 17.1186ZM14.4022 34.3584C15.7481 33.2203 17.4175 32.6112 19.1601 32.6112C19.3685 32.6112 19.5781 32.62 19.7882 32.6375C21.7546 32.802 23.5393 33.7224 24.8136 35.2291L28.4347 39.5112L17.1524 49.0517L13.5313 44.7696C10.9011 41.6592 11.2918 36.9887 14.4022 34.3584ZM32.3008 55.5243C29.1901 58.1547 24.5198 57.764 21.8894 54.6535L18.2684 50.3715L29.5506 40.831L33.1717 45.113C35.8018 48.2236 35.4111 52.8941 32.3008 55.5243ZM27.2354 35.4166L26.1332 34.1132C24.5611 32.2539 22.3589 31.1181 19.9323 30.9152C19.4454 30.8745 18.9613 30.8742 18.4832 30.9093C17.4797 28.3043 18.0206 25.3672 19.9324 23.2785L23.7176 19.1413L34.6185 29.1145L30.8328 33.2526C29.8561 34.3202 28.6199 35.061 27.2354 35.4166ZM32.9837 33.4622L40.8453 24.8688C41.351 24.3159 41.7805 23.7086 42.1316 23.0624C43.6311 22.8273 45.1553 22.9097 46.61 23.3009L36.0279 41.2857C34.0232 39.2107 32.9085 36.3706 32.9837 33.4622ZM37.3514 42.4443L48.2652 23.8955C48.6153 24.0543 48.9611 24.2307 49.2977 24.4278C49.6301 24.6231 49.9518 24.8393 50.2627 25.0702L39.3492 43.6187C38.9988 43.4598 38.6532 43.2834 38.317 43.0861C37.9851 42.8915 37.6631 42.6755 37.3514 42.4443Z" fill="#6F6F6F" fill-opacity="0.5"/>
</g>
<defs>
<clipPath id="clip0">
<rect width="59" height="59" fill="white"/>
</clipPath>
</defs>
</svg>
