<svg xmlns="http://www.w3.org/2000/svg" viewBox="0 0 30.55 23.9"><title>sneeze</title><g id="Слой_2" data-name="Слой 2"><g id="Слой_1-2" data-name="Слой 1"><path d="M26.57,13.13,25.21,9.85a3.19,3.19,0,0,1-.25-1A9.31,9.31,0,0,0,16.15,0,9.16,9.16,0,0,0,6.84,11a9.24,9.24,0,0,0,2.64,4.77,1.36,1.36,0,0,1,.27.39,1.18,1.18,0,0,1,.09.46V23.9H19.4V21.11h.87a1.93,1.93,0,0,0,.94-.24,2,2,0,0,0,.72-.65l1-1.46a.84.84,0,0,0,.14-.4.87.87,0,0,0-.1-.42.83.83,0,0,0-.29-.3.75.75,0,0,0-.41-.12H20.79l-1-1.19h4V14.74h1.67A1.18,1.18,0,0,0,26,14.6a1.21,1.21,0,0,0,.43-.38,1.11,1.11,0,0,0,.2-.53A1.07,1.07,0,0,0,26.57,13.13Zm-.8.64a.35.35,0,0,1-.14.13.53.53,0,0,1-.18,0H23.78a.79.79,0,0,0-.56.23.8.8,0,0,0-.24.57v.79H19.83a.76.76,0,0,0-.42.12.86.86,0,0,0-.3.33.84.84,0,0,0-.07.44.71.71,0,0,0,.17.41L20.16,18a.74.74,0,0,0,.28.22.85.85,0,0,0,.35.08h1.45l-1,1.46a1.24,1.24,0,0,1-.43.39,1.26,1.26,0,0,1-.57.14H19.4a.83.83,0,0,0-.56.23.82.82,0,0,0-.24.57v2h-8V16.63a2.09,2.09,0,0,0-.16-.78A2.23,2.23,0,0,0,10,15.2a8.32,8.32,0,0,1-1.9-2.75,8.19,8.19,0,0,1-.68-3.27,8.34,8.34,0,0,1,2.56-6,8.25,8.25,0,0,1,2.81-1.8A8.45,8.45,0,0,1,16.12.8a8.54,8.54,0,0,1,8.05,8.09,4.06,4.06,0,0,0,.3,1.27l1.36,3.25a.41.41,0,0,1,0,.19.28.28,0,0,1-.07.17Z"/><path d="M25.37,15.93h.8v.8h-.8Z"/><path d="M25.37,17.52h.8v.8h-.8Z"/><path d="M27,16.73h.79v.79H27Z"/><path d="M24.18,16.73H25v.79h-.79Z"/><path d="M28.56,16.73h2v.79h-2Z"/><path d="M26.45,15.59l.69-.4.39.69-.69.4Z"/><path d="M27.83,14.79l1.72-1,.4.69-1.73,1Z"/><path d="M26.44,18.66l.4-.69.69.4-.4.69Z"/><path d="M27.83,19.46l.39-.69,1.73,1-.4.69Z"/><path d="M4.21,5.78H10v9.05h3.29L7.09,23.05.92,14.83H4.21Z"/><path d="M.08,15.05l6.7,8.67a.4.4,0,0,0,.62,0l6.7-8.67a.4.4,0,0,0-.31-.64H10.24V5.35A.39.39,0,0,0,9.85,5H4.33a.4.4,0,0,0-.39.39v9.06H.39a.39.39,0,0,0-.35.23A.38.38,0,0,0,.08,15.05Zm4.13,0c.22,0,.41-.42.41-.64V5.78H9.56v8.86c0,.21.08.41.3.41h3.52l-6.29,8-6.17-8Z"/></g></g></svg>