<svg width="37" height="36" viewBox="0 0 37 36" fill="none" xmlns="http://www.w3.org/2000/svg">
<path d="M29.6645 19.6613L27.7485 15.0531C27.5544 14.6041 27.4371 14.1256 27.4015 13.6376C27.0304 6.90805 21.5888 1.45356 15.0177 1.2196C12.409 1.12388 9.8329 1.82346 7.631 3.22555C5.42911 4.62763 3.70547 6.66597 2.6887 9.07022C1.67194 11.4745 1.41009 14.131 1.93789 16.6875C2.46569 19.244 3.7582 21.5796 5.64399 23.3846C5.80464 23.5403 5.93245 23.7266 6.01984 23.9325C6.10723 24.1385 6.15243 24.3598 6.15277 24.5835V34.7945H19.5861V30.8765H20.813C21.2739 30.877 21.7278 30.7635 22.1342 30.546C22.5406 30.3285 22.8868 30.0138 23.142 29.63L24.5117 27.5792C24.6241 27.4104 24.6886 27.2143 24.6983 27.0118C24.7079 26.8092 24.6624 26.6079 24.5665 26.4292C24.4707 26.2505 24.3281 26.1012 24.154 25.9973C23.9799 25.8933 23.7808 25.8386 23.578 25.839H21.5345L20.1912 24.1598H25.7431V21.9209H28.09C28.3604 21.9207 28.6267 21.8553 28.8664 21.73C29.106 21.6048 29.3119 21.4236 29.4665 21.2017C29.6211 20.9799 29.7198 20.724 29.7543 20.4558C29.7887 20.1876 29.7579 19.9151 29.6645 19.6613ZM28.545 20.567C28.4934 20.6398 28.4251 20.6992 28.3456 20.7401C28.2662 20.7809 28.1781 20.802 28.0888 20.8015H25.7431C25.4462 20.8015 25.1614 20.9194 24.9515 21.1294C24.7415 21.3393 24.6236 21.624 24.6236 21.9209V23.0404H20.1912C19.9802 23.0403 19.7736 23.0998 19.595 23.2121C19.4164 23.3243 19.2732 23.4848 19.1818 23.6749C19.0904 23.865 19.0546 24.0771 19.0785 24.2867C19.1024 24.4962 19.185 24.6948 19.3169 24.8595L20.6602 26.5386C20.7648 26.67 20.8977 26.776 21.049 26.8487C21.2003 26.9214 21.3661 26.9589 21.5339 26.9584H23.578L22.2101 29.0098C22.0567 29.2397 21.8489 29.4282 21.6052 29.5586C21.3615 29.6889 21.0894 29.7571 20.813 29.757H19.5861C19.2892 29.757 19.0045 29.875 18.7945 30.0849C18.5846 30.2948 18.4667 30.5796 18.4667 30.8765V33.6751H7.27222V24.583C7.27146 24.2085 7.19558 23.8381 7.04905 23.4935C6.90253 23.1489 6.68835 22.8372 6.4192 22.5769C5.27607 21.482 4.36579 20.1675 3.74296 18.7123C3.12012 17.257 2.79754 15.691 2.79456 14.1081C2.79158 12.5252 3.10826 10.958 3.72562 9.50042C4.34297 8.04285 5.24829 6.72496 6.3873 5.62573C7.5206 4.52252 8.86698 3.66201 10.3441 3.09681C11.8213 2.5316 13.3982 2.27357 14.9785 2.33848C20.9759 2.55174 25.9423 7.5439 26.2849 13.7008C26.3266 14.3153 26.4722 14.9183 26.7153 15.4841L28.6183 20.0598C28.6478 20.144 28.6566 20.234 28.6441 20.3222C28.6315 20.4105 28.5979 20.4944 28.5461 20.567H28.545Z" fill="white"/>
<path d="M27.9819 23.6001H29.1014V24.7195H27.9819V23.6001Z" fill="white"/>
<path d="M27.9819 25.8389H29.1014V26.9583H27.9819V25.8389Z" fill="white"/>
<path d="M30.2208 24.7197H31.3403V25.8392H30.2208V24.7197Z" fill="white"/>
<path d="M26.3027 24.7197H27.4222V25.8392H26.3027V24.7197Z" fill="white"/>
<path d="M32.4597 24.7197H35.2583V25.8392H32.4597V24.7197Z" fill="white"/>
<path d="M29.4896 23.1206L30.4586 22.5612L31.018 23.5301L30.0491 24.0895L29.4896 23.1206Z" fill="white"/>
<path d="M31.4295 21.9917L33.8531 20.5924L34.4128 21.5618L31.9892 22.9611L31.4295 21.9917Z" fill="white"/>
<path d="M29.4881 27.4385L30.0475 26.4695L31.0165 27.029L30.457 27.9979L29.4881 27.4385Z" fill="white"/>
<path d="M31.4293 28.5635L31.989 27.594L34.4126 28.9933L33.8529 29.9628L31.4293 28.5635Z" fill="white"/>
</svg>
