<svg width="36" height="36" viewBox="0 0 36 36" fill="none" xmlns="http://www.w3.org/2000/svg">
<g clip-path="url(#clip0)">
<path d="M21.1754 25.6085C20.7003 25.8048 20.208 25.9554 19.7048 26.0589C19.5353 26.0934 19.403 26.2257 19.3678 26.3949L18.69 29.6572C18.49 30.6436 18.7272 31.6682 19.3407 32.4664C19.7613 33.0288 19.7705 33.7986 19.3627 34.3708C18.9553 34.9427 18.2247 35.1857 17.5558 34.9715C16.8868 34.7576 16.4327 34.1353 16.433 33.4332C16.4324 33.0945 16.5396 32.7646 16.7399 32.4915C17.3578 31.6855 17.6018 30.6538 17.4096 29.6562L16.7332 26.3922C16.698 26.223 16.5653 26.0907 16.3962 26.0562C15.3732 25.8474 14.4001 25.4437 13.5294 24.8675C13.3849 24.7724 13.1978 24.7724 13.0533 24.8675L10.2654 26.6964C9.42725 27.2527 8.87095 28.1454 8.74068 29.1429C8.64086 29.8383 8.10284 30.3891 7.41018 30.5055C6.71718 30.6219 6.02891 30.2771 5.70712 29.6525C5.38532 29.0282 5.50443 28.2675 6.00151 27.7708C6.24006 27.5305 6.54934 27.3725 6.884 27.3204C7.89101 27.1877 8.79313 26.6304 9.36262 25.7892L11.1892 23.003C11.2843 22.8585 11.2843 22.6714 11.1892 22.5269C10.6126 21.6569 10.2089 20.6841 10.0001 19.6619C9.96527 19.4923 9.8333 19.3597 9.66378 19.3245L6.40181 18.6467C5.41544 18.4464 4.39083 18.684 3.59293 19.2974C2.93005 19.7979 1.99578 19.7143 1.43205 19.1042C0.868645 18.4941 0.858832 17.5561 1.41005 16.9349C1.96093 16.3133 2.89316 16.2107 3.5662 16.697C4.37221 17.3156 5.40427 17.5592 6.40147 17.367L9.66445 16.6902C9.83398 16.655 9.96595 16.5224 10.0008 16.3532C10.2092 15.3303 10.6129 14.3571 11.1892 13.4865C11.2843 13.342 11.2843 13.1549 11.1892 13.0104L9.36025 10.2225C8.80396 9.38396 7.91165 8.82801 6.91377 8.69773C6.21841 8.59791 5.66753 8.05989 5.55112 7.36723C5.43472 6.67423 5.77953 5.98597 6.40418 5.66417C7.02848 5.34237 7.7895 5.46148 8.2859 5.95856C8.52649 6.19678 8.68417 6.50606 8.73628 6.84105C8.86926 7.84806 9.42657 8.75018 10.2674 9.31933L13.0536 11.1462C13.2536 11.2775 13.5223 11.2217 13.6536 11.0214C13.7845 10.8214 13.7287 10.5527 13.5287 10.4218L10.7415 8.59351C10.106 8.15734 9.68746 7.47077 9.59069 6.70604C9.51117 6.19001 9.26821 5.7129 8.89769 5.34474C8.13464 4.57764 6.9625 4.39356 6.00049 4.88928C5.03882 5.38501 4.50892 6.44684 4.69063 7.51341C4.87268 8.57998 5.72437 9.40596 6.79636 9.55518C7.54587 9.65196 8.21687 10.0692 8.63544 10.6986L10.3104 13.2523C9.80522 14.0702 9.43435 14.9638 9.21204 15.8991L6.22517 16.5197C5.46788 16.6605 4.68623 16.4716 4.07681 15.9999C3.65587 15.6913 3.14695 15.5259 2.62483 15.5269C1.5427 15.5238 0.583054 16.2223 0.253135 17.253C-0.0764454 18.2837 0.299155 19.4091 1.18198 20.0351C2.06481 20.6608 3.25151 20.6428 4.11471 19.9901C4.7133 19.5292 5.4821 19.3495 6.22281 19.4978L9.21407 20.1156C9.43639 21.0509 9.80725 21.9446 10.3124 22.7621L8.63815 25.3152C8.20198 25.9503 7.51507 26.3692 6.75068 26.466C6.23431 26.5455 5.7572 26.7885 5.38904 27.159C4.62228 27.9224 4.43786 29.0945 4.93358 30.0562C5.42965 31.0182 6.49114 31.5481 7.55771 31.366C8.62462 31.184 9.4506 30.3323 9.59948 29.2606C9.69626 28.5108 10.1135 27.8398 10.7429 27.4212L13.2966 25.7462C14.1145 26.2514 15.0081 26.6223 15.9434 26.8446L16.564 29.8315C16.7051 30.5891 16.5163 31.3708 16.0442 31.9799C15.736 32.4011 15.5702 32.9097 15.5715 33.4318C15.5712 34.091 15.8334 34.7231 16.2997 35.1887C16.7663 35.6543 17.3988 35.9152 18.0579 35.9138C18.2366 35.9138 18.4146 35.8952 18.5895 35.8583C19.4152 35.6773 20.0916 35.0879 20.3843 34.295C20.6766 33.5019 20.545 32.6147 20.0347 31.9406C19.5732 31.3424 19.3935 30.5732 19.5424 29.8322L20.1586 26.8426C20.6184 26.7333 21.0688 26.5878 21.506 26.4074C21.727 26.3161 21.8322 26.063 21.7408 25.8417C21.6498 25.6207 21.3964 25.5155 21.1754 25.6065V25.6085Z" fill="white"/>
<path d="M14.8457 10.4384C15.3448 10.2266 15.8635 10.0648 16.3948 9.95585C16.564 9.92133 16.6966 9.78903 16.7318 9.61984L17.4096 6.35787C17.6096 5.3715 17.372 4.34689 16.7589 3.549C16.3379 2.98661 16.3291 2.21646 16.7366 1.6446C17.1443 1.07241 17.8749 0.829451 18.5438 1.04364C19.2128 1.25784 19.6666 1.87978 19.6662 2.58225C19.6672 2.92063 19.5596 3.25021 19.3597 3.52328C18.7414 4.3293 18.4978 5.36135 18.69 6.35855L19.3664 9.62153C19.402 9.79106 19.5343 9.92303 19.7038 9.95788C20.7267 10.1663 21.6996 10.57 22.5699 11.1463C22.7143 11.241 22.9015 11.241 23.046 11.1463L25.8342 9.31733C26.6727 8.76103 27.2287 7.86839 27.3589 6.87085C27.4591 6.17549 27.9971 5.62461 28.6898 5.50821C29.3824 5.3918 30.071 5.73661 30.3925 6.36126C30.7143 6.98556 30.5952 7.74658 30.0984 8.24298C29.8599 8.48357 29.5506 8.64125 29.216 8.69336C28.2089 8.82634 27.3068 9.38365 26.7373 10.2245L24.9104 13.0104C24.8157 13.1549 24.8157 13.342 24.9104 13.4865C25.487 14.3565 25.8907 15.3293 26.0998 16.3519C26.1343 16.5214 26.2666 16.654 26.4358 16.6892L29.6978 17.367C29.9245 17.4137 30.1556 17.4367 30.3871 17.4364C31.1535 17.4337 31.8983 17.1802 32.507 16.7146C32.6972 16.5695 32.7341 16.2977 32.5893 16.1076C32.4444 15.9171 32.1727 15.8802 31.9822 16.025C31.3839 16.4865 30.6152 16.6662 29.8741 16.5173L26.8855 15.8981C26.6632 14.9628 26.2924 14.0692 25.7872 13.2513L27.4615 10.6983C27.898 10.0631 28.5849 9.64454 29.3493 9.54743C29.8653 9.46791 30.3424 9.22495 30.7106 8.85443C31.4777 8.09105 31.6618 6.9189 31.166 5.95723C30.6703 4.99556 29.6088 4.46566 28.5419 4.64737C27.4753 4.82942 26.6494 5.68112 26.5005 6.7531C26.4034 7.50261 25.9865 8.17361 25.3567 8.59218L22.8027 10.2672C21.9851 9.76196 21.0915 9.3911 20.1562 9.16878L19.5356 6.18192C19.3945 5.42463 19.5837 4.64297 20.0554 4.03355C20.364 3.61227 20.5298 3.10369 20.5284 2.58157C20.5315 1.49944 19.8331 0.539799 18.8024 0.20988C17.7717 -0.120039 16.6462 0.2559 16.0202 1.13873C15.3945 2.02156 15.4125 3.20791 16.0652 4.07145C16.5268 4.6697 16.7061 5.4385 16.5575 6.17955L15.941 9.17115C15.4507 9.28789 14.9712 9.44557 14.5073 9.64285C14.2945 9.74064 14.198 9.99002 14.2897 10.2056C14.3811 10.4211 14.6278 10.525 14.8457 10.4397V10.4384Z" fill="white"/>
<path d="M35.9012 17.4719C35.6915 16.5156 34.9386 15.7722 33.9799 15.5746C33.7451 15.5279 33.517 15.6802 33.4703 15.9147C33.4236 16.1495 33.5763 16.3772 33.8107 16.4239C34.6212 16.5955 35.1707 17.3514 35.0844 18.175C34.9981 18.9986 34.3031 19.624 33.4751 19.6233C33.1364 19.6243 32.8064 19.5167 32.5334 19.3167C31.7277 18.6982 30.6956 18.4545 29.6981 18.6467L26.4351 19.3235C26.2659 19.3587 26.1336 19.4913 26.0991 19.6608C25.8903 20.6834 25.487 21.6566 24.9104 22.5269C24.8157 22.6714 24.8157 22.8585 24.9104 23.003L26.7393 25.7912C27.296 26.6297 28.1883 27.1857 29.1861 27.316C29.8812 27.4158 30.4324 27.9538 30.5484 28.6468C30.6649 29.3395 30.32 30.0281 29.6957 30.3495C29.0711 30.6713 28.3104 30.5522 27.814 30.0555C27.5734 29.8169 27.4154 29.5077 27.3633 29.1727C27.2307 28.166 26.6733 27.2639 25.8321 26.6944L23.0463 24.8675C22.8463 24.7365 22.5776 24.7924 22.4467 24.9923C22.3154 25.1923 22.3712 25.461 22.5712 25.5919L25.3588 27.4199C25.9939 27.8564 26.4125 28.5429 26.5092 29.3077C26.5891 29.8237 26.8317 30.3008 27.2022 30.669C27.6665 31.1353 28.2972 31.3972 28.9554 31.3968C29.0423 31.3965 29.1296 31.3921 29.2163 31.3833C30.0781 31.2936 30.8313 30.7614 31.2029 29.9783C31.5744 29.1953 31.5105 28.2753 31.0347 27.5508C30.6432 26.9526 30.0108 26.554 29.3022 26.4592C28.5524 26.3621 27.8814 25.9452 27.4628 25.3155L25.7878 22.7614C26.2934 21.9439 26.6639 21.0502 26.8862 20.1149L29.873 19.4944C30.6307 19.3536 31.412 19.5427 32.0214 20.0141C32.4427 20.3227 32.9516 20.4885 33.4737 20.4872C34.2259 20.4865 34.9372 20.1451 35.4086 19.5587C35.8799 18.9726 36.0603 18.2041 35.8992 17.4695L35.9012 17.4719Z" fill="white"/>
<path d="M16.9524 14.8884C16.7132 14.8884 16.5193 15.0823 16.5193 15.3215C16.5193 16.1827 15.8212 16.8807 14.96 16.8807C14.0988 16.8807 13.4008 16.1827 13.4008 15.3215C13.4008 14.4603 14.0988 13.7622 14.96 13.7622C15.1992 13.7622 15.3931 13.5684 15.3931 13.3291C15.3931 13.0899 15.1992 12.896 14.96 12.896C13.6204 12.896 12.5345 13.9819 12.5345 15.3215C12.5345 16.6611 13.6204 17.747 14.96 17.747C16.2997 17.747 17.3855 16.6611 17.3855 15.3215C17.3855 15.0823 17.1916 14.8884 16.9524 14.8884Z" fill="white"/>
<path d="M22.5252 20.3037C22.5252 20.0645 22.3313 19.8706 22.092 19.8706C21.5056 19.8706 21.0302 19.3952 21.0302 18.8088C21.0302 18.222 21.5056 17.7466 22.092 17.7466C22.6788 17.7466 23.1542 18.222 23.1542 18.8088C23.1542 19.048 23.3481 19.2419 23.5873 19.2419C23.8266 19.2419 24.0205 19.048 24.0205 18.8088C24.0205 17.7436 23.1569 16.8804 22.092 16.8804C21.0272 16.8804 20.164 17.7436 20.164 18.8088C20.164 19.8737 21.0272 20.7369 22.092 20.7369C22.3313 20.7369 22.5252 20.543 22.5252 20.3037Z" fill="white"/>
<path d="M15.4541 21.7125C15.2152 21.7125 15.0209 21.9064 15.0209 22.1457C15.0209 22.3849 15.2152 22.5788 15.4541 22.5788C16.2019 22.5784 16.8076 21.9721 16.8072 21.2246C16.8069 20.4768 16.2009 19.8711 15.4534 19.8711C14.7056 19.8714 14.0999 20.4775 14.0999 21.2249C14.0999 21.4642 14.2938 21.6581 14.533 21.6581C14.7722 21.6581 14.9661 21.4642 14.9661 21.2249C14.9661 20.9556 15.1844 20.7373 15.4534 20.7373C15.7227 20.7373 15.941 20.9556 15.941 21.2249C15.941 21.4943 15.7227 21.7125 15.4534 21.7125H15.4541Z" fill="white"/>
<path d="M19.3704 11.3449C19.3095 11.576 19.4472 11.8129 19.6783 11.8738C20.7594 12.1614 21.7451 12.7296 22.5356 13.5207C22.7048 13.6899 22.9789 13.6899 23.1481 13.5207C23.3173 13.3515 23.3173 13.0774 23.1481 12.9082C22.2493 12.0092 21.129 11.3635 19.9 11.037C19.6689 10.9764 19.432 11.1138 19.3704 11.3449Z" fill="white"/>
<path d="M18.0498 10.7971C17.8106 10.7971 17.6167 10.991 17.6167 11.2302C17.6167 11.4695 17.8106 11.6634 18.0498 11.6634C18.1693 11.6634 18.2877 11.6664 18.4055 11.6728H18.4298C18.6691 11.6796 18.868 11.4908 18.8745 11.2516C18.8812 11.0123 18.6924 10.8134 18.4532 10.8066C18.3198 10.7998 18.1855 10.7971 18.0498 10.7971Z" fill="white"/>
</g>
<defs>
<clipPath id="clip0">
<rect x="0.0888977" y="0.0917969" width="35.8222" height="35.8222" fill="white"/>
</clipPath>
</defs>
</svg>
