<svg xmlns="http://www.w3.org/2000/svg" viewBox="0 0 35.82 35.82"><title>virus</title><g id="Слой_2" data-name="Слой 2"><g id="Слой_1-2" data-name="Слой 1"><path d="M21,25.52a9.25,9.25,0,0,1-1.47.45.43.43,0,0,0-.34.33l-.67,3.27a3.43,3.43,0,0,0,.65,2.8,1.62,1.62,0,1,1-2.91,1,1.57,1.57,0,0,1,.3-.94,3.53,3.53,0,0,0,.67-2.84L16.6,26.3a.45.45,0,0,0-.34-.34,8.19,8.19,0,0,1-2.87-1.18.41.41,0,0,0-.47,0L10.13,26.6a3.47,3.47,0,0,0-1.52,2.45,1.62,1.62,0,1,1-2.74-1.37,1.56,1.56,0,0,1,.88-.45A3.55,3.55,0,0,0,9.23,25.7l1.82-2.79a.41.41,0,0,0,0-.47,8.11,8.11,0,0,1-1.18-2.87.45.45,0,0,0-.34-.34l-3.26-.67a3.42,3.42,0,0,0-2.81.65,1.62,1.62,0,1,1,0-2.6,3.61,3.61,0,0,0,2.84.67l3.26-.68a.45.45,0,0,0,.34-.34,8.19,8.19,0,0,1,1.18-2.87.41.41,0,0,0,0-.47L9.23,10.13A3.47,3.47,0,0,0,6.78,8.61,1.62,1.62,0,1,1,8.15,5.87a1.56,1.56,0,0,1,.45.88,3.55,3.55,0,0,0,1.53,2.48l2.79,1.82a.42.42,0,0,0,.6-.12.44.44,0,0,0-.13-.6L10.61,8.5A2.64,2.64,0,0,1,9.46,6.61,2.49,2.49,0,0,0,5.87,4.8a2.48,2.48,0,0,0,.79,4.66A2.63,2.63,0,0,1,8.5,10.61l1.68,2.55a8.8,8.8,0,0,0-1.1,2.65l-3,.62a2.71,2.71,0,0,1-2.15-.52,2.37,2.37,0,0,0-1.45-.47A2.48,2.48,0,1,0,4,19.9a2.62,2.62,0,0,1,2.11-.49l3,.61a8.8,8.8,0,0,0,1.1,2.65L8.5,25.22a2.64,2.64,0,0,1-1.88,1.15,2.48,2.48,0,1,0,2.84,2.8,2.63,2.63,0,0,1,1.15-1.84l2.55-1.68a8.8,8.8,0,0,0,2.65,1.1l.62,3a2.71,2.71,0,0,1-.52,2.15,2.44,2.44,0,0,0-.47,1.45,2.46,2.46,0,0,0,2.48,2.48,3.07,3.07,0,0,0,.53,0,2.48,2.48,0,0,0,1.45-3.92,2.62,2.62,0,0,1-.49-2.11l.61-3a9.21,9.21,0,0,0,1.35-.43.44.44,0,1,0-.33-.81Z"/><path d="M14.71,10.35a8.46,8.46,0,0,1,1.55-.49.43.43,0,0,0,.34-.33l.67-3.26a3.45,3.45,0,0,0-.65-2.81,1.62,1.62,0,1,1,2.91-1,1.58,1.58,0,0,1-.31.94,3.56,3.56,0,0,0-.66,2.84l.67,3.26a.45.45,0,0,0,.34.34,8.07,8.07,0,0,1,2.86,1.18.42.42,0,0,0,.48,0L25.7,9.23a3.47,3.47,0,0,0,1.52-2.45A1.62,1.62,0,1,1,30,8.15a1.56,1.56,0,0,1-.88.45,3.55,3.55,0,0,0-2.48,1.53l-1.82,2.79a.41.41,0,0,0,0,.47A8.11,8.11,0,0,1,26,16.26a.45.45,0,0,0,.34.34l3.26.68a3.22,3.22,0,0,0,.69.06,3.46,3.46,0,0,0,2.12-.72.42.42,0,0,0,.08-.6.43.43,0,0,0-.6-.09,2.66,2.66,0,0,1-2.11.5l-3-.62a8.8,8.8,0,0,0-1.1-2.65l1.68-2.55a2.64,2.64,0,0,1,1.88-1.15,2.48,2.48,0,1,0-2.84-2.8A2.63,2.63,0,0,1,25.22,8.5l-2.55,1.68A8.8,8.8,0,0,0,20,9.08l-.62-3a2.71,2.71,0,0,1,.52-2.15,2.44,2.44,0,0,0,.47-1.45A2.48,2.48,0,1,0,15.93,4a2.62,2.62,0,0,1,.49,2.11l-.61,3a9.31,9.31,0,0,0-1.44.47.44.44,0,0,0-.22.56.44.44,0,0,0,.56.24Z"/><path d="M35.77,17.38a2.49,2.49,0,0,0-1.93-1.9.43.43,0,0,0-.5.34.42.42,0,0,0,.34.51,1.62,1.62,0,0,1-.34,3.2,1.57,1.57,0,0,1-.94-.3,3.53,3.53,0,0,0-2.84-.67l-3.26.67a.45.45,0,0,0-.34.34,8.11,8.11,0,0,1-1.18,2.87.41.41,0,0,0,0,.47L26.6,25.7a3.47,3.47,0,0,0,2.45,1.52A1.62,1.62,0,1,1,27.68,30a1.53,1.53,0,0,1-.45-.88A3.55,3.55,0,0,0,25.7,26.6l-2.79-1.82a.42.42,0,0,0-.6.12.44.44,0,0,0,.13.6l2.78,1.83a2.64,2.64,0,0,1,1.15,1.89,2.5,2.5,0,0,0,2.45,2.09l.26,0a2.48,2.48,0,0,0,1.82-3.83,2.43,2.43,0,0,0-1.73-1.09,2.63,2.63,0,0,1-1.84-1.15l-1.68-2.55A8.8,8.8,0,0,0,26.75,20l3-.62a2.71,2.71,0,0,1,2.15.52,2.45,2.45,0,0,0,1.45.48,2.53,2.53,0,0,0,1.93-.93,2.47,2.47,0,0,0,.49-2.09Z"/><path d="M16.82,14.8a.44.44,0,0,0-.44.43,1.56,1.56,0,1,1-1.55-1.56.43.43,0,0,0,.43-.43.44.44,0,0,0-.43-.44,2.43,2.43,0,1,0,2.42,2.43A.43.43,0,0,0,16.82,14.8Z"/><path d="M22.39,20.21a.43.43,0,0,0-.43-.43A1.06,1.06,0,1,1,23,18.72a.43.43,0,0,0,.43.43.44.44,0,0,0,.44-.43A1.93,1.93,0,1,0,22,20.65.44.44,0,0,0,22.39,20.21Z"/><path d="M15.32,21.62a.43.43,0,0,0-.43.43.44.44,0,0,0,.43.44A1.36,1.36,0,1,0,14,21.13a.44.44,0,0,0,.44.44.44.44,0,0,0,.43-.44.49.49,0,0,1,1,0,.49.49,0,0,1-.49.49Z"/><path d="M19.24,11.25a.42.42,0,0,0,.3.53,6.4,6.4,0,0,1,2.86,1.65.43.43,0,0,0,.61-.61A7.17,7.17,0,0,0,19.77,11,.42.42,0,0,0,19.24,11.25Z"/><path d="M17.91,10.71a.43.43,0,0,0,0,.86h.38a.44.44,0,0,0,.45-.42.42.42,0,0,0-.42-.44Z"/></g></g></svg>