<svg width="1920" height="610" viewBox="0 0 1920 610" fill="none" xmlns="http://www.w3.org/2000/svg">
<path d="M0 3C0 3 109.5 154.136 171 202.5C267.308 278.236 326.135 247.658 448 235C540.763 225.365 632.712 211.584 717 251.5C809.126 295.127 818.695 412.095 915 445.5C997.489 474.112 1074.5 456.5 1117 465C1151.41 471.882 1203.63 522.5 1309 522.5C1388 522.5 1443 514.258 1481 479.5C1522 442 1547.5 400.727 1616 374.363C1684.5 348 1737 354.837 1787 374.363C1837 393.89 1920 374.363 1920 374.363V1294.5H0L0 3Z" fill="white"/>
</svg>
