<svg width="175" height="62" viewBox="0 0 175 62" fill="none" xmlns="http://www.w3.org/2000/svg">
<path d="M55.1349 30.0279C57.4105 29.2947 60.6055 29.1638 61.1419 29.4878C61.6782 29.8118 61.8086 30.1106 61.7855 30.676C61.7606 31.2839 61.6782 31.6481 61.1419 31.8641C60.6055 32.0801 59.3203 31.9019 58.2457 32.0801C57.2914 32.2385 56.7783 32.4612 55.8858 32.8362C54.0415 33.6111 53.0969 34.4564 51.5951 35.6446C49.6787 37.1609 48.5087 38.0512 46.1246 38.561C44.0865 38.9969 41.2976 39.0302 39.3668 37.9129C37.4877 36.8254 36.4963 35.7379 35.7197 33.7003C34.909 31.5738 34.8955 29.9888 35.7197 27.8676C36.435 26.0268 37.294 25.0599 38.9377 23.9791C40.5469 22.921 41.7356 22.6017 43.6574 22.5749C45.5166 22.549 46.6249 22.8907 48.2699 23.7631C49.7695 24.5583 51.1528 25.5859 51.5951 26.0314C52.0242 26.4634 52.1315 27.0035 51.8097 27.5436C51.475 28.105 50.5225 28.1916 50.0934 27.9756C48.5554 27.2011 47.7614 26.3459 46.1246 25.8153C44.3302 25.2336 42.9937 24.9869 41.2976 25.8153C39.5785 26.6548 38.6048 27.8056 38.2941 29.7038C37.9751 31.6524 38.5582 33.129 40.0104 34.4564C41.9088 36.1918 44.4083 36.0767 46.5536 35.1045C48.699 34.1324 52.4533 30.892 55.1349 30.0279Z" fill="#5BADF5"/>
<path d="M6.65303 31.4979C4.3775 32.2311 1.18245 32.3621 0.646117 32.038C0.109787 31.714 -0.0206293 31.4154 0.00251766 30.8499C0.0274012 30.242 0.109784 29.8777 0.646115 29.6617C1.18245 29.4457 2.46765 29.6239 3.54231 29.4457C4.49657 29.2876 5.00965 29.0646 5.90217 28.6896C7.74653 27.9147 8.6911 27.0694 10.1928 25.8812C12.1092 24.3649 13.2794 23.4747 15.6634 22.9648C17.7015 22.5291 20.4904 22.4956 22.4213 23.6129C24.3004 24.7004 25.2915 25.7879 26.0683 27.8255C26.8788 29.9521 26.8926 31.537 26.0683 33.6582C25.3529 35.499 24.4939 36.4659 22.8503 37.5467C21.241 38.6048 20.0523 38.9241 18.1305 38.9509C16.2714 38.9768 15.1632 38.6351 13.5181 37.7628C12.0184 36.9676 10.6351 35.9399 10.1928 35.4945C9.76376 35.0624 9.65649 34.5223 9.97829 33.9823C10.3129 33.4208 11.2655 33.3342 11.6946 33.5502C13.2326 34.3247 14.0266 35.1799 15.6634 35.7105C17.4578 36.2923 18.7943 36.539 20.4904 35.7105C22.2093 34.871 23.1831 33.7202 23.4939 31.822C23.8129 29.8734 23.2298 28.3969 21.7777 27.0694C19.8792 25.3342 17.3797 25.4492 15.2343 26.4213C13.089 27.3934 9.33469 30.6338 6.65303 31.4979Z" fill="#5BADF5"/>
<path d="M32.1381 55.1645C32.8665 57.4559 32.9965 60.6732 32.6744 61.2132C32.3526 61.7533 32.0562 61.8847 31.4945 61.8613C30.891 61.8363 30.5291 61.7533 30.3146 61.2132C30.1001 60.6732 30.2773 59.3789 30.1 58.2969C29.943 57.336 29.7216 56.8192 29.3492 55.9206C28.5797 54.0634 27.7402 53.1122 26.5603 51.6C25.0547 49.6702 24.1704 48.492 23.6641 46.0913C23.2314 44.039 23.1981 41.2307 24.3077 39.2864C25.3878 37.3942 26.4678 36.396 28.4911 35.6139C30.6029 34.7976 32.1769 34.784 34.2834 35.6139C36.1117 36.3342 37.0719 37.1992 38.145 38.8544C39.1958 40.4748 39.5129 41.6718 39.5395 43.607C39.5654 45.4791 39.2261 46.5951 38.3596 48.2516C37.5699 49.7616 36.5493 51.1546 36.107 51.6C35.6779 52.0321 35.1416 52.1401 34.6052 51.816C34.0477 51.479 33.9616 50.5199 34.1762 50.0878C34.9453 48.5391 35.7946 47.7396 36.3215 46.0913C36.8992 44.2844 37.1442 42.9386 36.3215 41.2307C35.4878 39.4996 34.345 38.5191 32.4599 38.2063C30.5248 37.885 29.0585 38.4722 27.7402 39.9345C26.0171 41.8461 26.1312 44.3631 27.0966 46.5233C28.062 48.6836 31.28 52.4641 32.1381 55.1645Z" fill="#5BADF5"/>
<path d="M30.3577 6.6994C29.6296 4.40801 29.4995 1.19069 29.8213 0.65062C30.1434 0.110553 30.4398 -0.0207731 31.0013 0.00253521C31.605 0.0275923 31.9667 0.110549 32.1812 0.65062C32.3957 1.19069 32.2187 2.48484 32.3957 3.56699C32.553 4.52791 32.7742 5.04456 33.1466 5.9433C33.9163 7.80051 34.7556 8.75166 35.9355 10.2639C37.4413 12.1936 38.3254 13.3719 38.8317 15.7726C39.2646 17.8248 39.2979 20.6332 38.1881 22.5775C37.1082 24.4697 36.0282 25.4678 34.0047 26.25C31.8929 27.0661 30.3188 27.08 28.2123 26.25C26.3843 25.5295 25.4241 24.6646 24.3508 23.0096C23.3 21.3891 22.9829 20.192 22.9563 18.2569C22.9306 16.3848 23.2699 15.2689 24.1362 13.6123C24.9259 12.1022 25.9467 10.7092 26.3888 10.2639C26.8179 9.8318 27.3542 9.72379 27.8905 10.0478C28.4483 10.3847 28.5341 11.344 28.3196 11.7761C27.5507 13.3248 26.7014 14.1244 26.1743 15.7726C25.5968 17.5795 25.3518 18.9253 26.1743 20.6332C27.0082 22.3641 28.151 23.3446 30.0361 23.6577C31.9712 23.9789 33.4375 23.3917 34.7556 21.9294C36.4789 20.0178 36.3646 17.5008 35.3992 15.3405C34.4338 13.1802 31.2158 9.39975 30.3577 6.6994Z" fill="#5BADF5"/>
<path d="M31.1073 21.3868C32.766 21.3868 34.1107 20.0327 34.1107 18.3624C34.1107 16.692 32.766 15.338 31.1073 15.338C29.4485 15.338 28.1038 16.692 28.1038 18.3624C28.1038 20.0327 29.4485 21.3868 31.1073 21.3868Z" fill="#5BADF5"/>
<path d="M81.3477 33.875V41H79.3555V23.8672H84.0547C86.1562 23.8672 87.707 24.2695 88.707 25.0742C89.7148 25.8789 90.2188 27.0898 90.2188 28.707C90.2188 30.9727 89.0703 32.5039 86.7734 33.3008L91.4258 41H89.0703L84.9219 33.875H81.3477ZM81.3477 32.1641H84.0781C85.4844 32.1641 86.5156 31.8867 87.1719 31.332C87.8281 30.7695 88.1562 29.9297 88.1562 28.8125C88.1562 27.6797 87.8203 26.8633 87.1484 26.3633C86.4844 25.8633 85.4141 25.6133 83.9375 25.6133H81.3477V32.1641ZM95.8438 41H93.8984V28.1562H95.8438V41ZM93.7344 24.6758C93.7344 24.2305 93.8438 23.9062 94.0625 23.7031C94.2812 23.4922 94.5547 23.3867 94.8828 23.3867C95.1953 23.3867 95.4648 23.4922 95.6914 23.7031C95.918 23.9141 96.0312 24.2383 96.0312 24.6758C96.0312 25.1133 95.918 25.4414 95.6914 25.6602C95.4648 25.8711 95.1953 25.9766 94.8828 25.9766C94.5547 25.9766 94.2812 25.8711 94.0625 25.6602C93.8438 25.4414 93.7344 25.1133 93.7344 24.6758ZM105.945 27.9453C107.633 27.9453 108.941 28.5234 109.871 29.6797C110.809 30.8281 111.277 32.457 111.277 34.5664C111.277 36.6758 110.805 38.3164 109.859 39.4883C108.922 40.6523 107.617 41.2344 105.945 41.2344C105.109 41.2344 104.344 41.082 103.648 40.7773C102.961 40.4648 102.383 39.9883 101.914 39.3477H101.773L101.363 41H99.9688V22.7656H101.914V27.1953C101.914 28.1875 101.883 29.0781 101.82 29.8672H101.914C102.82 28.5859 104.164 27.9453 105.945 27.9453ZM105.664 29.5742C104.336 29.5742 103.379 29.957 102.793 30.7227C102.207 31.4805 101.914 32.7617 101.914 34.5664C101.914 36.3711 102.215 37.6641 102.816 38.4453C103.418 39.2188 104.383 39.6055 105.711 39.6055C106.906 39.6055 107.797 39.1719 108.383 38.3047C108.969 37.4297 109.262 36.1758 109.262 34.543C109.262 32.8711 108.969 31.625 108.383 30.8047C107.797 29.9844 106.891 29.5742 105.664 29.5742ZM122.586 41L122.199 39.1719H122.105C121.465 39.9766 120.824 40.5234 120.184 40.8125C119.551 41.0938 118.758 41.2344 117.805 41.2344C116.531 41.2344 115.531 40.9062 114.805 40.25C114.086 39.5938 113.727 38.6602 113.727 37.4492C113.727 34.8555 115.801 33.4961 119.949 33.3711L122.129 33.3008V32.5039C122.129 31.4961 121.91 30.7539 121.473 30.2773C121.043 29.793 120.352 29.5508 119.398 29.5508C118.328 29.5508 117.117 29.8789 115.766 30.5352L115.168 29.0469C115.801 28.7031 116.492 28.4336 117.242 28.2383C118 28.043 118.758 27.9453 119.516 27.9453C121.047 27.9453 122.18 28.2852 122.914 28.9648C123.656 29.6445 124.027 30.7344 124.027 32.2344V41H122.586ZM118.191 39.6289C119.402 39.6289 120.352 39.2969 121.039 38.6328C121.734 37.9688 122.082 37.0391 122.082 35.8438V34.6836L120.137 34.7656C118.59 34.8203 117.473 35.0625 116.785 35.4922C116.105 35.9141 115.766 36.5742 115.766 37.4727C115.766 38.1758 115.977 38.7109 116.398 39.0781C116.828 39.4453 117.426 39.6289 118.191 39.6289ZM130.859 41L125.984 28.1562H128.07L130.836 35.7734C131.461 37.5547 131.828 38.7109 131.938 39.2422H132.031C132.117 38.8281 132.387 37.9727 132.84 36.6758C133.301 35.3711 134.328 32.5312 135.922 28.1562H138.008L133.133 41H130.859ZM142.016 41H140.07V28.1562H142.016V41ZM139.906 24.6758C139.906 24.2305 140.016 23.9062 140.234 23.7031C140.453 23.4922 140.727 23.3867 141.055 23.3867C141.367 23.3867 141.637 23.4922 141.863 23.7031C142.09 23.9141 142.203 24.2383 142.203 24.6758C142.203 25.1133 142.09 25.4414 141.863 25.6602C141.637 25.8711 141.367 25.9766 141.055 25.9766C140.727 25.9766 140.453 25.8711 140.234 25.6602C140.016 25.4414 139.906 25.1133 139.906 24.6758ZM152 27.9219C152.57 27.9219 153.082 27.9688 153.535 28.0625L153.266 29.8672C152.734 29.75 152.266 29.6914 151.859 29.6914C150.82 29.6914 149.93 30.1133 149.188 30.957C148.453 31.8008 148.086 32.8516 148.086 34.1094V41H146.141V28.1562H147.746L147.969 30.5352H148.062C148.539 29.6992 149.113 29.0547 149.785 28.6016C150.457 28.1484 151.195 27.9219 152 27.9219ZM157.883 41H155.938V28.1562H157.883V41ZM155.773 24.6758C155.773 24.2305 155.883 23.9062 156.102 23.7031C156.32 23.4922 156.594 23.3867 156.922 23.3867C157.234 23.3867 157.504 23.4922 157.73 23.7031C157.957 23.9141 158.07 24.2383 158.07 24.6758C158.07 25.1133 157.957 25.4414 157.73 25.6602C157.504 25.8711 157.234 25.9766 156.922 25.9766C156.594 25.9766 156.32 25.8711 156.102 25.6602C155.883 25.4414 155.773 25.1133 155.773 24.6758ZM170.797 41V32.6914C170.797 31.6445 170.559 30.8633 170.082 30.3477C169.605 29.832 168.859 29.5742 167.844 29.5742C166.5 29.5742 165.516 29.9375 164.891 30.6641C164.266 31.3906 163.953 32.5898 163.953 34.2617V41H162.008V28.1562H163.59L163.906 29.9141H164C164.398 29.2812 164.957 28.793 165.676 28.4492C166.395 28.0977 167.195 27.9219 168.078 27.9219C169.625 27.9219 170.789 28.2969 171.57 29.0469C172.352 29.7891 172.742 30.9805 172.742 32.6211V41H170.797Z" fill="#6F6F6F"/>
</svg>
