<?xml version="1.0" encoding="UTF-8"?><!DOCTYPE svg PUBLIC "-//W3C//DTD SVG 1.1//EN" "http://www.w3.org/Graphics/SVG/1.1/DTD/svg11.dtd"><svg xmlns="http://www.w3.org/2000/svg" xmlns:xlink="http://www.w3.org/1999/xlink"><defs><clipPath id="clip0"><path d="M.244.244h33.511v33.511H.244z"/></clipPath><clipPath id="clip0"><path d="M0 0h30v30H0z"/></clipPath><clipPath id="clip0"><path d="M.089.092h35.822v35.822H.089z"/></clipPath></defs><symbol id="basket"><path d="M11.277 22.627h18.596c.458 0 .86-.304.986-.744L34.96 7.528a1.026 1.026 0 00-.986-1.307H8.912l-.733-3.299a1.026 1.026 0 00-1.001-.803H1.025a1.025 1.025 0 100 2.05h5.33l3.702 16.66a3.08 3.08 0 00-1.854 2.823 3.08 3.08 0 003.076 3.076h18.594a1.025 1.025 0 100-2.05H11.279a1.026 1.026 0 01-.003-2.05zM32.615 8.271L29.1 20.576H12.102L9.367 8.271h23.248zM10.254 29.805a3.08 3.08 0 003.076 3.076 3.08 3.08 0 003.076-3.076 3.08 3.08 0 00-3.076-3.076 3.08 3.08 0 00-3.076 3.076zm3.076-1.026a1.027 1.027 0 010 2.051c-.565 0-1.025-.46-1.025-1.025 0-.566.46-1.026 1.025-1.026zM24.746 29.805a3.08 3.08 0 003.076 3.076 3.08 3.08 0 003.076-3.076 3.08 3.08 0 00-3.076-3.076 3.08 3.08 0 00-3.076 3.076zm3.076-1.026a1.027 1.027 0 010 2.05c-.565.001-1.025-.459-1.025-1.024 0-.566.46-1.026 1.025-1.026z"/></symbol><symbol id="delivery"><path d="M20.5 0C12.197 0 5.467 6.73 5.467 15.033c0 8.079 13.914 25.003 14.506 25.719a.683.683 0 001.054 0c.592-.716 14.506-17.64 14.506-25.719C35.533 6.731 28.803 0 20.5 0zm0 39.23C17.929 36.022 6.833 21.78 6.833 15.034 6.842 7.49 12.956 1.375 20.5 1.367c7.544.008 13.658 6.122 13.667 13.666 0 6.745-11.096 20.987-13.667 24.198z"/><path d="M29.8 12.443l-8.883-6.834a.683.683 0 00-.834 0L11.2 12.443a.683.683 0 00.417 1.224h2.05v7.517c0 .377.306.683.683.683h12.3a.683.683 0 00.683-.683v-7.517h2.05a.683.683 0 00.417-1.224zM21.867 20.5h-2.734v-4.1h2.734v4.1zm4.783-8.2a.683.683 0 00-.683.684V20.5h-2.734v-4.783a.683.683 0 00-.683-.683h-4.1a.683.683 0 00-.683.683V20.5h-2.734v-7.516a.683.683 0 00-.683-.684h-.724L20.5 7.013l6.874 5.287h-.724z"/></symbol><symbol id="email"><path d="M18.5 0C8.3 0 0 8.3 0 18.5S8.3 37 18.5 37c4.942 0 9.587-1.924 13.082-5.418a.77.77 0 10-1.09-1.09A16.847 16.847 0 0118.5 35.458c-9.35 0-16.958-7.607-16.958-16.958 0-9.35 7.607-16.958 16.958-16.958 9.35 0 16.958 7.607 16.958 16.958v1.542a4.63 4.63 0 01-4.625 4.625 4.63 4.63 0 01-4.625-4.625v-6.938a.77.77 0 10-1.541 0v.819c-1.407-1.89-3.637-3.131-6.167-3.131-4.25 0-7.708 3.458-7.708 7.708s3.458 7.708 7.708 7.708c2.835 0 5.29-1.555 6.63-3.841.92 2.25 3.126 3.841 5.703 3.841 3.4 0 6.167-2.766 6.167-6.166V18.5C37 8.3 28.7 0 18.5 0zm0 24.667a6.174 6.174 0 01-6.167-6.167c0-3.4 2.767-6.167 6.167-6.167s6.167 2.767 6.167 6.167-2.767 6.167-6.167 6.167z"/></symbol><symbol id="injection"><g clip-path="url(#clip0)"><path d="M32.739 6.418l.439-.397-5.2-5.2-.5.24 1.154 1.109-3.088 3.087-3.087-3.087-.367.385 1.155 1.155L6.691 20.251c-1.497 1.59-.554 3.424 0 3.86l-.864 3.179L.134 32.6l.578.577 5.893-5.122 3.18-.864c.54.627 2.342 1.418 3.859 0l16.534-16.547 1.156 1.155.385-.374-3.087-3.08 2.913-3.088 1.194 1.161zm-8.916-2.13l5.778 5.778-4.045 4.044-5.778-5.778 4.045-4.044zM6.69 27.191l.772-2.435 1.668 1.67-2.44.765zm6.154-.37c-.62.62-1.69.62-2.311 0l-3.467-3.466c-.31-.31-.917-1.289 0-2.311l3.467-3.467 1.733 1.733.578-.577-1.733-1.734 1.155-1.155 1.734 1.733.577-.578-1.733-1.708 1.156-1.18 1.733 1.733.578-.578-1.734-1.733 4.623-4.623 5.777 5.778-12.133 12.133zm15.397-18.93L25.93 5.646l2.626-2.514 2.13 2.125-2.444 2.634z"/></g></symbol><symbol id="person"><path d="M31.21 27.878L25 24.773a1.71 1.71 0 01-.95-1.537v-2.198c.149-.181.305-.389.467-.618a14.875 14.875 0 001.92-3.769A2.58 2.58 0 0027.95 14.3v-2.6c0-.626-.234-1.232-.65-1.706V6.536c.036-.357.18-2.485-1.36-4.24C24.605.771 22.44 0 19.5 0c-2.939 0-5.105.772-6.44 2.295-1.54 1.755-1.396 3.884-1.36 4.241v3.458a2.592 2.592 0 00-.65 1.706v2.6c0 .791.36 1.529.973 2.02.595 2.358 1.841 4.135 2.277 4.705v2.15c0 .63-.343 1.207-.895 1.509l-5.799 3.163a5.862 5.862 0 00-3.056 5.148V35.1c0 3.085 9.78 3.9 14.95 3.9s14.95-.815 14.95-3.9v-1.978a5.833 5.833 0 00-3.24-5.244zm1.94 7.222c0 .882-4.818 2.6-13.65 2.6S5.85 35.982 5.85 35.1v-2.105a4.56 4.56 0 012.378-4.006l5.799-3.163a3.019 3.019 0 001.573-2.65v-2.613l-.152-.18c-.015-.02-1.608-1.946-2.216-4.593l-.06-.257-.22-.143a1.297 1.297 0 01-.602-1.09v-2.6c0-.365.155-.705.436-.959l.214-.193V6.5l-.006-.085c-.002-.018-.223-1.82 1.043-3.264C15.114 1.923 16.953 1.3 19.5 1.3c2.538 0 4.372.618 5.45 1.838 1.266 1.43 1.057 3.261 1.056 3.277L26 10.548l.215.194c.28.253.435.593.435.958v2.6c0 .567-.372 1.064-.924 1.234l-.324.1-.104.322a13.61 13.61 0 01-1.842 3.713 8.55 8.55 0 01-.544.701l-.162.185v2.681c0 1.15.639 2.185 1.668 2.7l6.21 3.104a4.539 4.539 0 012.522 4.082V35.1z"/></symbol><symbol id="phone"><g clip-path="url(#clip0)"><path d="M29.213 23.143l-6.072-4.05a1.772 1.772 0 00-2.373.386l-1.77 2.274a.756.756 0 01-.969.204l-.336-.185c-1.115-.608-2.503-1.365-5.3-4.162-2.795-2.797-3.554-4.186-4.162-5.3l-.184-.335a.757.757 0 01.2-.973l2.273-1.769c.727-.57.895-1.602.385-2.373L6.856.788A1.763 1.763 0 004.479.253L1.94 1.778a3.582 3.582 0 00-1.633 2.12C-.607 7.23.081 12.98 8.55 21.45c6.738 6.737 11.754 8.549 15.201 8.549.794.003 1.584-.1 2.35-.307a3.578 3.578 0 002.12-1.633l1.526-2.538a1.763 1.763 0 00-.534-2.378zm-.327 1.865l-1.523 2.54c-.337.575-.883.999-1.525 1.181-3.076.844-8.449.145-16.58-7.986C1.126 12.61.428 7.239 1.27 4.163a2.588 2.588 0 011.184-1.527l2.539-1.523a.765.765 0 011.031.232l2.2 3.302 1.846 2.77a.77.77 0 01-.167 1.029l-2.273 1.768a1.75 1.75 0 00-.463 2.246l.18.328c.64 1.172 1.433 2.63 4.333 5.529 2.9 2.9 4.358 3.694 5.53 4.333l.328.18a1.75 1.75 0 002.245-.463l1.768-2.273a.77.77 0 011.03-.167l6.072 4.05c.34.226.443.68.232 1.031z"/></g></symbol><symbol id="question"><path d="M29.874 5.126A17.386 17.386 0 0017.5 0C12.826 0 8.431 1.82 5.126 5.126A17.386 17.386 0 000 17.5c0 3.083.81 6.1 2.344 8.753L0 35l8.747-2.344A17.47 17.47 0 0017.5 35c4.674 0 9.069-1.82 12.374-5.126A17.386 17.386 0 0035 17.5c0-4.674-1.82-9.069-5.126-12.374zM17.5 33.5c-2.854 0-5.956-.95-8.377-2.436l-.376-.23-6.403 1.822L4.5 26.253 4 25.5c-1.485-2.421-2.5-5.146-2.5-8 0-8.519 7.481-16 16-16s16 7.481 16 16-7.481 16-16 16z"/><path d="M18.525 24.165h-2.05v2.05h2.05v-2.05zM17.5 8.784a5.133 5.133 0 00-5.127 5.127h2.05a3.08 3.08 0 013.077-3.076 3.08 3.08 0 013.076 3.076 3.07 3.07 0 01-.784 2.05l-3.317 3.71v2.443h2.05v-1.659l2.796-3.126a5.118 5.118 0 001.306-3.418c0-2.827-2.3-5.127-5.127-5.127z"/></symbol><symbol id="sneeze"><path d="M29.665 19.661l-1.916-4.608a4.368 4.368 0 01-.348-1.415c-.37-6.73-5.812-12.184-12.383-12.418a12.874 12.874 0 00-9.374 22.165 1.674 1.674 0 01.509 1.198v10.212h13.433v-3.919h1.227a2.794 2.794 0 002.329-1.246l1.37-2.05a1.12 1.12 0 00-.934-1.741h-2.043l-1.344-1.68h5.552v-2.238h2.347a1.678 1.678 0 001.575-2.26zm-1.12.906a.556.556 0 01-.456.235h-2.346a1.12 1.12 0 00-1.12 1.119v1.12h-4.432a1.119 1.119 0 00-.874 1.819l1.343 1.679a1.113 1.113 0 00.874.42h2.044l-1.368 2.05a1.68 1.68 0 01-1.397.748h-1.227a1.12 1.12 0 00-1.12 1.12v2.798H7.273v-9.092a2.798 2.798 0 00-.853-2.006 11.757 11.757 0 01-.032-16.951 11.632 11.632 0 018.591-3.288c5.998.214 10.964 5.206 11.307 11.363.042.614.187 1.217.43 1.783l1.903 4.576a.557.557 0 01-.072.507h-.001zM27.982 23.6h1.12v1.12h-1.12V23.6zM27.982 25.839h1.12v1.12h-1.12v-1.12zM30.22 24.72h1.12v1.12h-1.12v-1.12z"/><path d="M26.303 24.72h1.12v1.12h-1.12v-1.12zM32.46 24.72h2.798v1.12H32.46v-1.12zM29.49 23.12l.969-.559.559.97-.969.559-.56-.97zM31.43 21.992l2.423-1.4.56.97-2.424 1.4-.56-.97zM29.488 27.439l.56-.97.969.56-.56.969-.969-.56zM31.43 28.564l.559-.97 2.424 1.4-.56.969-2.424-1.4z"/></symbol><symbol id="virus"><g clip-path="url(#clip0)"><path d="M21.175 25.608a8.15 8.15 0 01-1.47.45.433.433 0 00-.337.337l-.678 3.262c-.2.987.037 2.011.65 2.81a1.615 1.615 0 11-2.907.966c0-.339.107-.668.307-.941a3.555 3.555 0 00.67-2.836l-.677-3.264a.433.433 0 00-.337-.336 8.147 8.147 0 01-2.867-1.189.433.433 0 00-.476 0l-2.788 1.83a3.477 3.477 0 00-1.524 2.446 1.614 1.614 0 11-1.857-1.823 3.554 3.554 0 002.479-1.53l1.826-2.787a.433.433 0 000-.476A8.132 8.132 0 0110 19.662a.433.433 0 00-.336-.337l-3.262-.678a3.474 3.474 0 00-2.81.65 1.616 1.616 0 11-.026-2.6 3.552 3.552 0 002.835.67l3.263-.677a.433.433 0 00.337-.337 8.137 8.137 0 011.188-2.867.433.433 0 000-.476L9.36 10.223a3.475 3.475 0 00-2.446-1.525A1.614 1.614 0 118.736 6.84a3.555 3.555 0 001.531 2.478l2.787 1.827a.433.433 0 10.475-.724l-2.787-1.828A2.7 2.7 0 019.59 6.706a2.444 2.444 0 00-.693-1.361 2.482 2.482 0 10-2.102 4.21 2.61 2.61 0 011.84 1.144l1.674 2.553A8.995 8.995 0 009.212 15.9l-2.987.62A2.703 2.703 0 014.077 16a2.483 2.483 0 10.038 3.99 2.615 2.615 0 012.108-.491l2.991.618a8.99 8.99 0 001.098 2.646l-1.674 2.553a2.702 2.702 0 01-1.887 1.151A2.483 2.483 0 109.6 29.261a2.61 2.61 0 011.143-1.84l2.554-1.675a8.994 8.994 0 002.646 1.099l.621 2.986a2.7 2.7 0 01-.52 2.149c-.308.421-.474.93-.473 1.452a2.481 2.481 0 002.487 2.482 2.48 2.48 0 001.977-3.973 2.61 2.61 0 01-.493-2.109l.617-2.99c.46-.109.91-.254 1.347-.435a.433.433 0 00-.33-.8v.002zM14.846 10.438a8.163 8.163 0 011.549-.482.433.433 0 00.337-.336l.678-3.262a3.476 3.476 0 00-.651-2.809 1.615 1.615 0 112.907-.967c.001.339-.106.668-.306.941a3.553 3.553 0 00-.67 2.836l.676 3.263c.036.17.168.301.338.336a8.132 8.132 0 012.866 1.188.434.434 0 00.476 0l2.788-1.829a3.476 3.476 0 001.525-2.446 1.615 1.615 0 111.857 1.822 3.556 3.556 0 00-2.479 1.532L24.91 13.01a.434.434 0 000 .476c.577.87.98 1.843 1.19 2.866.034.17.167.302.336.337l3.262.678c.226.047.458.07.69.07a3.51 3.51 0 002.119-.722.433.433 0 00-.525-.69 2.61 2.61 0 01-2.108.492l-2.988-.619a8.994 8.994 0 00-1.099-2.647l1.675-2.553a2.704 2.704 0 011.887-1.15c.516-.08.993-.323 1.362-.694a2.482 2.482 0 10-4.21-2.1 2.61 2.61 0 01-1.144 1.838l-2.554 1.675a8.989 8.989 0 00-2.647-1.098l-.62-2.987a2.702 2.702 0 01.52-2.148c.308-.422.474-.93.472-1.452a2.483 2.483 0 10-4.463 1.49 2.61 2.61 0 01.492 2.108l-.616 2.991c-.49.117-.97.275-1.434.472a.433.433 0 00.339.797v-.002z"/><path d="M35.901 17.472a2.48 2.48 0 00-1.921-1.897.433.433 0 10-.17.849 1.617 1.617 0 01-.335 3.2 1.586 1.586 0 01-.942-.307 3.552 3.552 0 00-2.835-.67l-3.263.677a.433.433 0 00-.336.337 8.136 8.136 0 01-1.189 2.866.434.434 0 000 .476l1.83 2.788a3.477 3.477 0 002.446 1.525 1.614 1.614 0 11-1.372 2.74 1.587 1.587 0 01-.45-.883 3.554 3.554 0 00-1.532-2.479l-2.786-1.826a.433.433 0 00-.475.724l2.788 1.828a2.702 2.702 0 011.15 1.888c.08.516.323.993.693 1.361a2.471 2.471 0 002.014.714 2.483 2.483 0 001.819-3.832 2.46 2.46 0 00-1.733-1.092 2.611 2.611 0 01-1.84-1.143l-1.674-2.555a8.978 8.978 0 001.098-2.646l2.987-.62a2.704 2.704 0 012.148.52c.422.308.93.473 1.453.472a2.486 2.486 0 002.425-3.017l.002.002zM16.952 14.888a.433.433 0 00-.433.434 1.56 1.56 0 11-1.559-1.56.433.433 0 100-.866 2.425 2.425 0 102.425 2.425.433.433 0 00-.433-.433zM22.525 20.304a.433.433 0 00-.433-.433 1.062 1.062 0 111.062-1.062.433.433 0 10.866 0 1.928 1.928 0 10-1.928 1.928c.24 0 .433-.194.433-.433zM15.454 21.712a.433.433 0 000 .867 1.354 1.354 0 10-1.354-1.354.433.433 0 10.866 0 .488.488 0 11.487.487h.001zM19.37 11.345a.433.433 0 00.308.529 6.345 6.345 0 012.858 1.647.433.433 0 10.612-.613 7.211 7.211 0 00-3.248-1.871.434.434 0 00-.53.308zM18.05 10.797a.433.433 0 100 .866c.12 0 .238.003.355.01h.025a.433.433 0 10.023-.866 7.922 7.922 0 00-.403-.01z"/></g></symbol></svg>