<?xml version="1.0" encoding="UTF-8"?><!DOCTYPE svg PUBLIC "-//W3C//DTD SVG 1.1//EN" "http://www.w3.org/Graphics/SVG/1.1/DTD/svg11.dtd"><svg xmlns="http://www.w3.org/2000/svg" xmlns:xlink="http://www.w3.org/1999/xlink"><defs><style>.cls-1{fill:#6f6f6f;fill-opacity:.5}</style><style>.cls-1{fill:#6f6f6f;fill-opacity:.4}</style><clipPath id="phone-a"><path d="M0 0h30v30H0z"/></clipPath><style>.cls-1{fill:#6f6f6f;fill-opacity:.2}</style></defs><symbol id="basket" viewBox="0 0 35 30.76"><g id="&#x421;&#x43B;&#x43E;&#x439;_2"><g id="&#x421;&#x43B;&#x43E;&#x439;_1-2"><path class="cls-1" d="M11.28 20.51h18.59a1 1 0 001-.75L35 5.41a1 1 0 00-1-1.31H8.91L8.18.8a1 1 0 00-1-.8H1a1 1 0 100 2.05h5.36c.13.59 3.5 15.79 3.7 16.66a3.08 3.08 0 001.22 5.9h18.59a1 1 0 100-2.05H11.28a1 1 0 110-2zM32.62 6.15L29.1 18.46h-17L9.37 6.15zM10.25 27.69a3.08 3.08 0 103.08-3.08 3.08 3.08 0 00-3.08 3.08zm3.08-1a1 1 0 11-1 1 1 1 0 011-1.03z"/><path class="cls-1" d="M24.75 27.69a3.08 3.08 0 103.07-3.08 3.08 3.08 0 00-3.07 3.08zm3.07-1a1 1 0 11-1 1 1 1 0 011-1.03z"/></g></g></symbol><symbol id="delivery" viewBox="0 0 30.07 41"><g id="&#x421;&#x43B;&#x43E;&#x439;_2"><g id="&#x421;&#x43B;&#x43E;&#x439;_1-2"><path class="cls-1" d="M15 0A15 15 0 000 15c0 8.08 13.91 25 14.51 25.72a.68.68 0 001.05 0C16.15 40 30.07 23.11 30.07 15A15 15 0 0015 0zm0 39.23C12.46 36 1.37 21.78 1.37 15a13.67 13.67 0 0127.33 0c0 6.78-11.1 21-13.7 24.23z"/><path class="cls-1" d="M24.33 12.44l-8.88-6.83a.68.68 0 00-.83 0l-8.89 6.83a.69.69 0 00.42 1.23h2v7.51a.69.69 0 00.68.69h12.3a.69.69 0 00.69-.69v-7.51h2.05a.69.69 0 00.73-.67.68.68 0 00-.27-.56zM16.4 20.5h-2.73v-4.1h2.73zm4.78-8.2a.69.69 0 00-.68.68v7.52h-2.73v-4.78a.69.69 0 00-.69-.69H13a.69.69 0 00-.68.69v4.78H9.57V13a.69.69 0 00-.69-.68h-.72L15 7l6.88 5.29z"/></g></g></symbol><symbol id="email" viewBox="0 0 37 37"><g><path d="M18.5 0a18.5 18.5 0 1013.08 31.58.77.77 0 00-1.09-1.09 17 17 0 115-12V20a4.63 4.63 0 11-9.25 0v-6.9a.77.77 0 00-1.54 0v.82a7.71 7.71 0 10.46 8.45A6.16 6.16 0 0037 20v-1.5A18.52 18.52 0 0018.5 0zm0 24.67a6.17 6.17 0 116.17-6.17 6.18 6.18 0 01-6.17 6.17z"/></g></symbol><symbol id="injection" viewBox="0 0 33.04 32.36"><g><path d="M32.6 5.6l.4-.4L27.84 0l-.5.24 1.16 1.11-3.09 3.09-3.09-3.09-.32.38 1.15 1.16L6.56 19.43a2.71 2.71 0 000 3.86l-.87 3.18L0 31.78l.58.58 5.89-5.13 3.18-.86a2.74 2.74 0 003.86 0L30 9.82 31.2 11l.38-.38-3.08-3.1 2.91-3.08zm-8.91-2.13l5.78 5.77-4 4-5.83-5.73zM6.56 26.37l.77-2.44L9 25.6zm6.15-.37a1.67 1.67 0 01-2.31 0l-3.47-3.47a1.63 1.63 0 010-2.31l3.47-3.46 1.73 1.73.58-.58L11 16.18 12.13 15l1.74 1.74.57-.58-1.73-1.71 1.16-1.18L15.6 15l.58-.58-1.74-1.73 4.63-4.62 5.77 5.78zm15.4-18.93L25.8 4.82l2.62-2.51 2.13 2.13z"/></g></symbol><symbol id="logo_short" viewBox="0 0 182.37 182.6"><g><g><path d="M162.74 88.63c6.71-2.16 16.14-2.55 17.73-1.59a3.29 3.29 0 011.9 3.5c-.08 1.8-.32 2.87-1.9 3.51s-5.38.11-8.55.64a27 27 0 00-7 2.23c-5.44 2.29-8.23 4.78-12.66 8.29-5.66 4.47-9.11 7.1-16.15 8.61-6 1.28-14.25 1.38-19.95-1.92-5.54-3.21-8.47-6.41-10.76-12.43-2.39-6.28-2.43-11 0-17.22 2.11-5.43 4.65-8.28 9.5-11.47s8.26-4.07 13.93-4.15c5.49-.07 8.76.93 13.61 3.51a50.55 50.55 0 019.82 6.69 3.46 3.46 0 01.63 4.47c-1 1.66-3.8 1.91-5.06 1.27-4.54-2.28-6.89-4.81-11.72-6.37-5.29-1.72-9.24-2.45-14.25 0S114 82.07 113 87.67c-.94 5.76.78 10.11 5.07 14 5.6 5.12 13 4.78 19.31 1.91s17.44-12.4 25.36-14.95zM19.64 93c-6.72 2.16-16.15 2.55-17.73 1.59A3.27 3.27 0 010 91.06c.07-1.8.31-2.87 1.9-3.51s5.37-.11 8.55-.64a26.55 26.55 0 007-2.23c5.44-2.29 8.23-4.78 12.67-8.29 5.65-4.47 9.11-7.1 16.14-8.61 6-1.28 14.25-1.38 20 1.92 5.55 3.21 8.47 6.42 10.76 12.43 2.4 6.28 2.44 11 0 17.22-2.11 5.43-4.64 8.28-9.49 11.47s-8.26 4.07-13.94 4.15c-5.59.03-8.83-.97-13.69-3.51a50.07 50.07 0 01-9.81-6.69 3.45 3.45 0 01-.64-4.47c1-1.65 3.8-1.91 5.07-1.27 4.54 2.28 6.88 4.81 11.71 6.37 5.3 1.72 9.24 2.45 14.25 0s8-5.87 8.87-11.47c.94-5.76-.78-10.11-5.07-14C58.68 74.78 51.3 75.12 45 78S27.55 90.42 19.64 93zM94.86 162.82c2.15 6.77 2.53 16.26 1.58 17.86a3.26 3.26 0 01-3.44 1.91c-1.78-.07-2.85-.32-3.48-1.91s-.11-5.42-.64-8.61a27.1 27.1 0 00-2.21-7c-2.27-5.49-4.75-8.29-8.23-12.76-4.45-5.69-7.06-9.17-8.55-16.26-1.28-6-1.38-14.34 1.9-20.08 3.18-5.59 6.37-8.53 12.34-10.84 6.24-2.41 10.88-2.45 17.1 0 5.4 2.13 8.23 4.68 11.4 9.56s4 8.32 4.12 14c.07 5.53-.93 8.82-3.49 13.71a49.91 49.91 0 01-6.65 9.88 3.38 3.38 0 01-4.43.64c-1.64-1-1.9-3.82-1.27-5.1 2.27-4.57 4.78-6.93 6.34-11.8 1.7-5.33 2.43-9.3 0-14.34s-5.84-8-11.4-8.93c-5.71-1-10 .79-13.93 5.1-5.09 5.64-4.75 13.07-1.9 19.45s12.31 17.55 14.84 25.52zM89.6 19.77C87.46 13 87.07 3.51 88 1.92A3.26 3.26 0 0191.5 0c1.79.08 2.85.33 3.5 1.92s.11 5.41.63 8.61a27.25 27.25 0 002.22 7c2.27 5.48 4.74 8.29 8.23 12.75 4.44 5.7 7.05 9.18 8.55 16.26 1.27 6.06 1.37 14.35-1.9 20.09s-6.38 8.53-12.35 10.84c-6.23 2.41-10.88 2.45-17.1 0-5.39-2.13-8.23-4.68-11.4-9.56s-4-8.32-4.11-14c-.08-5.53.92-8.82 3.48-13.71a50.38 50.38 0 016.65-9.89 3.39 3.39 0 014.43-.63c1.65 1 1.9 3.82 1.27 5.1-2.27 4.57-4.78 6.93-6.33 11.79-1.71 5.34-2.43 9.31 0 14.35s5.83 8 11.39 8.93c5.72 1 10-.79 13.93-5.1 5.09-5.65 4.75-13.07 1.91-19.45S92.14 27.74 89.6 19.77z"/><path d="M91.82 63.13A8.93 8.93 0 1083 54.2a8.9 8.9 0 008.82 8.93z"/></g></g></symbol><symbol id="minus" viewBox="0 0 6.02 2.34"><g><path d="M0 2.34V0h6v2.34z"/></g></symbol><symbol id="person" viewBox="0 0 29.9 39"><g><path d="M26.66 27.88l-6.21-3.11a1.69 1.69 0 01-.95-1.53V21c.15-.18.31-.39.47-.62a15 15 0 001.92-3.77 2.59 2.59 0 001.51-2.31v-2.6a2.59 2.59 0 00-.65-1.7V6.54a5.8 5.8 0 00-1.36-4.24C20.06.77 17.89 0 15 0S9.84.77 8.51 2.29a5.83 5.83 0 00-1.36 4.25V10a2.59 2.59 0 00-.65 1.7v2.6a2.59 2.59 0 001 2A13.58 13.58 0 009.75 21v2.16a1.7 1.7 0 01-.9 1.5l-5.79 3.19A5.86 5.86 0 000 33v2.1C0 38.18 9.78 39 15 39s15-.82 15-3.9v-2a5.83 5.83 0 00-3.34-5.22zm1.94 7.22c0 .88-4.82 2.6-13.65 2.6S1.3 36 1.3 35.1V33a4.55 4.55 0 012.38-4l5.8-3.16a3 3 0 001.57-2.65v-2.63l-.15-.18a12.17 12.17 0 01-2.22-4.59l-.06-.26-.22-.14a1.28 1.28 0 01-.6-1.09v-2.6a1.27 1.27 0 01.44-1l.21-.19v-4.1a4.53 4.53 0 011.04-3.26C10.56 1.92 12.4 1.3 15 1.3s4.37.62 5.45 1.84a4.57 4.57 0 011.06 3.27v4.14l.21.19a1.27 1.27 0 01.44 1v2.6a1.28 1.28 0 01-.92 1.23l-.33.1-.1.33a14 14 0 01-1.84 3.71 8.21 8.21 0 01-.55.7l-.16.18v2.69a3 3 0 001.67 2.7L26.08 29a4.55 4.55 0 012.52 4.08z"/></g></symbol><symbol id="phone" viewBox="0 0 30 30"><g><g clip-path="url(#phone-a)"><path d="M29.21 23.14l-6.07-4.05a1.77 1.77 0 00-2.37.39L19 21.75a.76.76 0 01-1 .25l-.34-.19a20.44 20.44 0 01-5.3-4.16 20.69 20.69 0 01-4.16-5.3L8.05 12a.75.75 0 01.2-1l2.27-1.77a1.78 1.78 0 00.39-2.37L6.86.79A1.77 1.77 0 004.48.25L1.94 1.78A3.57 3.57 0 00.31 3.9C-.61 7.23.08 13 8.55 21.45 15.29 28.19 20.3 30 23.75 30a8.92 8.92 0 002.35-.31 3.57 3.57 0 002.12-1.63l1.53-2.54a1.77 1.77 0 00-.54-2.38zM28.89 25l-1.53 2.54a2.57 2.57 0 01-1.52 1.18c-3.08.84-8.45.14-16.58-8S.43 7.24 1.27 4.16a2.57 2.57 0 011.18-1.52L5 1.11a.78.78 0 011 .23l2.22 3.31 1.85 2.77a.77.77 0 01-.17 1l-2.27 1.79a1.75 1.75 0 00-.46 2.25l.18.33a21.23 21.23 0 004.33 5.53 21.23 21.23 0 005.53 4.33l.33.18a1.74 1.74 0 002.24-.46l1.77-2.28a.78.78 0 011-.16l6.1 4.07a.77.77 0 01.24 1z"/></g></g></symbol><symbol id="plus" viewBox="0 0 11.45 11.62"><g><path d="M4.66 6.87H0V4.78h4.66V0h2.11v4.78h4.68v2.09H6.77v4.75H4.66z"/></g></symbol><symbol id="question" viewBox="0 0 35 35"><g id="&#x421;&#x43B;&#x43E;&#x439;_2"><g id="&#x421;&#x43B;&#x43E;&#x439;_1-2"><path class="cls-1" d="M29.87 5.13a17.48 17.48 0 00-24.74 0 17.5 17.5 0 00-2.79 21.12L0 35l8.75-2.34A17.5 17.5 0 0029.87 5.13zM17.5 33.5a16.66 16.66 0 01-8.38-2.44l-.37-.23-6.41 1.83 2.16-6.41-.5-.75a15.49 15.49 0 01-2.5-8 16.42 16.42 0 0116-16 16.42 16.42 0 0116 16 16.42 16.42 0 01-16 16z"/><path class="cls-1" d="M18.53 24.17h-2.06v2h2.06zM17.5 8.78a5.13 5.13 0 00-5.13 5.13h2.05a3.08 3.08 0 016.16 0 3 3 0 01-.79 2.09l-3.32 3.71v2.44h2.06v-1.69l2.79-3.13a5.13 5.13 0 00-3.82-8.55z"/></g></g></symbol><symbol id="sneeze" viewBox="0 0 30.55 23.9"><g><g><path d="M26.57 13.13l-1.36-3.28a3.19 3.19 0 01-.25-1A9.31 9.31 0 0016.15 0a9.16 9.16 0 00-9.31 11 9.24 9.24 0 002.64 4.77 1.36 1.36 0 01.27.39 1.18 1.18 0 01.09.46v7.28h9.56v-2.79h.87a1.93 1.93 0 00.94-.24 2 2 0 00.72-.65l1-1.46a.84.84 0 00.14-.4.87.87 0 00-.1-.42.83.83 0 00-.29-.3.75.75 0 00-.41-.12h-1.48l-1-1.19h4v-1.59h1.67a1.18 1.18 0 00.54-.14 1.21 1.21 0 00.43-.38 1.11 1.11 0 00.2-.53 1.07 1.07 0 00-.06-.56zm-.8.64a.35.35 0 01-.14.13.53.53 0 01-.18 0h-1.67a.79.79 0 00-.56.23.8.8 0 00-.24.57v.79h-3.15a.76.76 0 00-.42.12.86.86 0 00-.3.33.84.84 0 00-.07.44.71.71 0 00.17.41l.95 1.21a.74.74 0 00.28.22.85.85 0 00.35.08h1.45l-1 1.46a1.24 1.24 0 01-.43.39 1.26 1.26 0 01-.57.14h-.84a.83.83 0 00-.56.23.82.82 0 00-.24.57v2h-8v-6.46a2.09 2.09 0 00-.16-.78 2.23 2.23 0 00-.44-.65 8.32 8.32 0 01-1.9-2.75 8.19 8.19 0 01-.68-3.27 8.34 8.34 0 012.56-6 8.25 8.25 0 012.81-1.8A8.45 8.45 0 0116.12.8a8.54 8.54 0 018.05 8.09 4.06 4.06 0 00.3 1.27l1.36 3.25a.41.41 0 010 .19.28.28 0 01-.07.17zM25.37 15.93h.8v.8h-.8zM25.37 17.52h.8v.8h-.8zM27 16.73h.79v.79H27z"/><path d="M24.18 16.73H25v.79h-.79zM28.56 16.73h2v.79h-2zM26.45 15.59l.69-.4.39.69-.69.4zM27.83 14.79l1.72-1 .4.69-1.73 1zM26.44 18.66l.4-.69.69.4-.4.69zM27.83 19.46l.39-.69 1.73 1-.4.69zM4.21 5.78H10v9.05h3.29l-6.2 8.22-6.17-8.22h3.29z"/><path d="M.08 15.05l6.7 8.67a.4.4 0 00.62 0l6.7-8.67a.4.4 0 00-.31-.64h-3.55V5.35A.39.39 0 009.85 5H4.33a.4.4 0 00-.39.39v9.06H.39a.39.39 0 00-.35.23.38.38 0 00.04.37zm4.13 0c.22 0 .41-.42.41-.64V5.78h4.94v8.86c0 .21.08.41.3.41h3.52l-6.29 8-6.17-8z"/></g></g></symbol><symbol id="virus" viewBox="0 0 35.82 35.82"><g><g><path d="M21 25.52a9.25 9.25 0 01-1.47.45.43.43 0 00-.34.33l-.67 3.27a3.43 3.43 0 00.65 2.8 1.62 1.62 0 11-2.91 1 1.57 1.57 0 01.3-.94 3.53 3.53 0 00.67-2.84l-.63-3.29a.45.45 0 00-.34-.34 8.19 8.19 0 01-2.87-1.18.41.41 0 00-.47 0l-2.79 1.82a3.47 3.47 0 00-1.52 2.45 1.62 1.62 0 11-2.74-1.37 1.56 1.56 0 01.88-.45 3.55 3.55 0 002.48-1.53l1.82-2.79a.41.41 0 000-.47 8.11 8.11 0 01-1.18-2.87.45.45 0 00-.34-.34l-3.26-.67a3.42 3.42 0 00-2.81.65 1.62 1.62 0 110-2.6 3.61 3.61 0 002.84.67l3.26-.68a.45.45 0 00.34-.34 8.19 8.19 0 011.18-2.87.41.41 0 000-.47l-1.85-2.79a3.47 3.47 0 00-2.45-1.52 1.62 1.62 0 111.37-2.74 1.56 1.56 0 01.45.88 3.55 3.55 0 001.53 2.48l2.79 1.82a.42.42 0 00.6-.12.44.44 0 00-.13-.6L10.61 8.5a2.64 2.64 0 01-1.15-1.89A2.49 2.49 0 005.87 4.8a2.48 2.48 0 00.79 4.66 2.63 2.63 0 011.84 1.15l1.68 2.55a8.8 8.8 0 00-1.1 2.65l-3 .62a2.71 2.71 0 01-2.15-.52 2.37 2.37 0 00-1.45-.47A2.48 2.48 0 104 19.9a2.62 2.62 0 012.11-.49l3 .61a8.8 8.8 0 001.1 2.65L8.5 25.22a2.64 2.64 0 01-1.88 1.15 2.48 2.48 0 102.84 2.8 2.63 2.63 0 011.15-1.84l2.55-1.68a8.8 8.8 0 002.65 1.1l.62 3a2.71 2.71 0 01-.52 2.15 2.44 2.44 0 00-.47 1.45 2.46 2.46 0 002.48 2.48 3.07 3.07 0 00.53 0 2.48 2.48 0 001.45-3.92 2.62 2.62 0 01-.49-2.11l.61-3a9.21 9.21 0 001.35-.43.44.44 0 10-.33-.81zM14.71 10.35a8.46 8.46 0 011.55-.49.43.43 0 00.34-.33l.67-3.26a3.45 3.45 0 00-.65-2.81 1.62 1.62 0 112.91-1 1.58 1.58 0 01-.31.94 3.56 3.56 0 00-.66 2.84l.67 3.26a.45.45 0 00.34.34 8.07 8.07 0 012.86 1.18.42.42 0 00.48 0l2.79-1.79a3.47 3.47 0 001.52-2.45A1.62 1.62 0 1130 8.15a1.56 1.56 0 01-.88.45 3.55 3.55 0 00-2.48 1.53l-1.82 2.79a.41.41 0 000 .47A8.11 8.11 0 0126 16.26a.45.45 0 00.34.34l3.26.68a3.22 3.22 0 00.69.06 3.46 3.46 0 002.12-.72.42.42 0 00.08-.6.43.43 0 00-.6-.09 2.66 2.66 0 01-2.11.5l-3-.62a8.8 8.8 0 00-1.1-2.65l1.68-2.55a2.64 2.64 0 011.88-1.15 2.48 2.48 0 10-2.84-2.8 2.63 2.63 0 01-1.18 1.84l-2.55 1.68A8.8 8.8 0 0020 9.08l-.62-3a2.71 2.71 0 01.52-2.15 2.44 2.44 0 00.47-1.45A2.48 2.48 0 1015.93 4a2.62 2.62 0 01.49 2.11l-.61 3a9.31 9.31 0 00-1.44.47.44.44 0 00-.22.56.44.44 0 00.56.24z"/><path d="M35.77 17.38a2.49 2.49 0 00-1.93-1.9.43.43 0 00-.5.34.42.42 0 00.34.51 1.62 1.62 0 01-.34 3.2 1.57 1.57 0 01-.94-.3 3.53 3.53 0 00-2.84-.67l-3.26.67a.45.45 0 00-.34.34 8.11 8.11 0 01-1.18 2.87.41.41 0 000 .47l1.82 2.79a3.47 3.47 0 002.45 1.52A1.62 1.62 0 1127.68 30a1.53 1.53 0 01-.45-.88 3.55 3.55 0 00-1.53-2.52l-2.79-1.82a.42.42 0 00-.6.12.44.44 0 00.13.6l2.78 1.83a2.64 2.64 0 011.15 1.89 2.5 2.5 0 002.45 2.09h.26a2.48 2.48 0 001.82-3.83 2.43 2.43 0 00-1.73-1.09 2.63 2.63 0 01-1.84-1.15l-1.68-2.55a8.8 8.8 0 001.1-2.69l3-.62a2.71 2.71 0 012.15.52 2.45 2.45 0 001.45.48 2.53 2.53 0 001.93-.93 2.47 2.47 0 00.49-2.09zM16.82 14.8a.44.44 0 00-.44.43 1.56 1.56 0 11-1.55-1.56.43.43 0 00.43-.43.44.44 0 00-.43-.44 2.43 2.43 0 102.42 2.43.43.43 0 00-.43-.43zM22.39 20.21a.43.43 0 00-.43-.43A1.06 1.06 0 1123 18.72a.43.43 0 00.43.43.44.44 0 00.44-.43A1.93 1.93 0 1022 20.65a.44.44 0 00.39-.44zM15.32 21.62a.43.43 0 00-.43.43.44.44 0 00.43.44A1.36 1.36 0 1014 21.13a.44.44 0 00.44.44.44.44 0 00.43-.44.49.49 0 011 0 .49.49 0 01-.49.49zM19.24 11.25a.42.42 0 00.3.53 6.4 6.4 0 012.86 1.65.43.43 0 00.61-.61A7.17 7.17 0 0019.77 11a.42.42 0 00-.53.25zM17.91 10.71a.43.43 0 000 .86h.38a.44.44 0 00.45-.42.42.42 0 00-.42-.44z"/></g></g></symbol></svg>