<?xml version="1.0" encoding="UTF-8"?><!DOCTYPE svg PUBLIC "-//W3C//DTD SVG 1.1//EN" "http://www.w3.org/Graphics/SVG/1.1/DTD/svg11.dtd"><svg xmlns="http://www.w3.org/2000/svg" xmlns:xlink="http://www.w3.org/1999/xlink"><defs><style>.cls-1{fill:#6f6f6f;fill-opacity:.5}</style><style>.cls-1{fill:#6f6f6f;fill-opacity:.4}</style><clipPath id="clip0"><path d="M0 0h59v59H0z"/></clipPath><clipPath id="phone-a"><path d="M0 0h30v30H0z"/></clipPath><clipPath id="clip0"><path d="M0 0h59v59H0z"/></clipPath><style>.cls-1{fill:#6f6f6f;fill-opacity:.2}</style><clipPath id="clip0"><path d="M0 0h59v59H0z"/></clipPath></defs><symbol id="basket" viewBox="0 0 35 30.76"><g id="&#x421;&#x43B;&#x43E;&#x439;_2"><g id="&#x421;&#x43B;&#x43E;&#x439;_1-2"><path class="cls-1" d="M11.28 20.51h18.59a1 1 0 001-.75L35 5.41a1 1 0 00-1-1.31H8.91L8.18.8a1 1 0 00-1-.8H1a1 1 0 100 2.05h5.36c.13.59 3.5 15.79 3.7 16.66a3.08 3.08 0 001.22 5.9h18.59a1 1 0 100-2.05H11.28a1 1 0 110-2zM32.62 6.15L29.1 18.46h-17L9.37 6.15zM10.25 27.69a3.08 3.08 0 103.08-3.08 3.08 3.08 0 00-3.08 3.08zm3.08-1a1 1 0 11-1 1 1 1 0 011-1.03z"/><path class="cls-1" d="M24.75 27.69a3.08 3.08 0 103.07-3.08 3.08 3.08 0 00-3.07 3.08zm3.07-1a1 1 0 11-1 1 1 1 0 011-1.03z"/></g></g></symbol><symbol id="close" viewBox="0 0 512.001 512.001"><path d="M284.286 256.002L506.143 34.144c7.811-7.811 7.811-20.475 0-28.285-7.811-7.81-20.475-7.811-28.285 0L256 227.717 34.143 5.859c-7.811-7.811-20.475-7.811-28.285 0-7.81 7.811-7.811 20.475 0 28.285l221.857 221.857L5.858 477.859c-7.811 7.811-7.811 20.475 0 28.285a19.938 19.938 0 0014.143 5.857 19.94 19.94 0 0014.143-5.857L256 284.287l221.857 221.857c3.905 3.905 9.024 5.857 14.143 5.857s10.237-1.952 14.143-5.857c7.811-7.811 7.811-20.475 0-28.285L284.286 256.002z"/></symbol><symbol id="delivery" viewBox="0 0 30.07 41"><g id="&#x421;&#x43B;&#x43E;&#x439;_2"><g id="&#x421;&#x43B;&#x43E;&#x439;_1-2"><path class="cls-1" d="M15 0A15 15 0 000 15c0 8.08 13.91 25 14.51 25.72a.68.68 0 001.05 0C16.15 40 30.07 23.11 30.07 15A15 15 0 0015 0zm0 39.23C12.46 36 1.37 21.78 1.37 15a13.67 13.67 0 0127.33 0c0 6.78-11.1 21-13.7 24.23z"/><path class="cls-1" d="M24.33 12.44l-8.88-6.83a.68.68 0 00-.83 0l-8.89 6.83a.69.69 0 00.42 1.23h2v7.51a.69.69 0 00.68.69h12.3a.69.69 0 00.69-.69v-7.51h2.05a.69.69 0 00.73-.67.68.68 0 00-.27-.56zM16.4 20.5h-2.73v-4.1h2.73zm4.78-8.2a.69.69 0 00-.68.68v7.52h-2.73v-4.78a.69.69 0 00-.69-.69H13a.69.69 0 00-.68.69v4.78H9.57V13a.69.69 0 00-.69-.68h-.72L15 7l6.88 5.29z"/></g></g></symbol><symbol id="email" viewBox="0 0 37 37"><g><path d="M18.5 0a18.5 18.5 0 1013.08 31.58.77.77 0 00-1.09-1.09 17 17 0 115-12V20a4.63 4.63 0 11-9.25 0v-6.9a.77.77 0 00-1.54 0v.82a7.71 7.71 0 10.46 8.45A6.16 6.16 0 0037 20v-1.5A18.52 18.52 0 0018.5 0zm0 24.67a6.17 6.17 0 116.17-6.17 6.18 6.18 0 01-6.17 6.17z"/></g></symbol><symbol id="family"><g clip-path="url(#clip0)"><path d="M57.299 31.447a2.714 2.714 0 001.671-2.926l-1.839-12.213c-.18-1.2-.99-2.23-2.114-2.69l-2.039-.832c.498-.561.801-1.299.801-2.107V7.66a3.184 3.184 0 00-3.18-3.18h-1.044a3.184 3.184 0 00-3.18 3.18v3.02c0 .839.326 1.601.858 2.17l-2.444.905a3.461 3.461 0 00-2.038 2.03l-4.185 11.15-3.44 5.057v-1.597a3.848 3.848 0 00-3.843-3.843 3.847 3.847 0 00-3.843 3.843v1.253l-3.765-5.473-3.346-14.606a.86.86 0 00-.056-.167 5.435 5.435 0 00-4.93-3.166h-1.359a3.513 3.513 0 00.498-1.805V3.534A3.538 3.538 0 0010.948 0h-.618a3.538 3.538 0 00-3.534 3.534V6.43c0 .659.182 1.276.498 1.805H5.422c-1.515 0-2.971.64-3.996 1.758a5.433 5.433 0 00-1.405 4.132l.002.021L1.57 28.023a4.069 4.069 0 003.224 3.537l1.24 22.776-2.013 2.17A1.43 1.43 0 005.07 58.91h10.299a1.43 1.43 0 001.049-2.405l-1.923-2.072.208-4a.865.865 0 00-1.726-.09l-.18 3.448h-1.614l-.1-19.99a.865.865 0 00-.864-.86h-.004a.864.864 0 00-.86.864v.004l.1 19.982h-1.72L6.482 30.734v-.001l-.137-2.499h7.782l-.936 18.008a.864.864 0 001.726.09l.984-18.917.462-8.883 3.312 8.389a.862.862 0 00.093.345l6.627 12.829c.172.333.263.708.263 1.084v7.63c0 .6.328 1.122.812 1.402l.667 7.165a1.643 1.643 0 001.64 1.593h2.836c.878 0 1.598-.693 1.639-1.562l1.155-7.428c.309-.295.502-.71.502-1.17v-4.874-2.771c0-.369.088-.737.26-1.075l6.251-12.768c.257-.25.477-.542.648-.873l.783-1.514-1.348 6.42a.864.864 0 101.692.356L46.7 19.767a.954.954 0 00-.618-1.104.955.955 0 00-1.178.465l-.303.586-1.178-.8.946-2.522a1.734 1.734 0 011.02-1.017l4.001-1.483c.036-.013.072-.023.107-.034l.058.001h1.044c.119 0 .236-.007.353-.02.08.024.158.05.236.082l3.175 1.298c.563.23.968.745 1.059 1.346l.551 3.66h-.942l-.306-1.513a.864.864 0 10-1.694.343l3.855 19.074a18.259 18.259 0 01-6.543 1.395 18.49 18.49 0 01-7.497-1.394l.584-2.783a.864.864 0 00-1.692-.355l-.602 2.87c-.16.76.243 1.528.958 1.828a20.14 20.14 0 003.28 1.053l.923 14.024-1.499 1.879a1.42 1.42 0 00-.17 1.513c.24.5.734.81 1.289.81h7.95a1.42 1.42 0 001.288-.81c.241-.5.175-1.08-.17-1.513l-1.57-1.967.96-13.936a20.128 20.128 0 003.261-1.055 1.626 1.626 0 00.962-1.815l-1.3-6.426zm-28.13-1.053c0-1.166.948-2.115 2.114-2.115s2.114.949 2.114 2.115v2.277a2.116 2.116 0 01-2.07 2.113 3.528 3.528 0 01-.488-.046 2.117 2.117 0 01-1.67-2.066v-2.278zm-8.054-4.53l-2.89-7.319L20 17.872l1.798 7.85-.683.143zM8.525 6.43V3.534c0-.996.81-1.805 1.805-1.805h.618c.995 0 1.805.81 1.805 1.805V6.43c0 .995-.81 1.805-1.805 1.805h-.618c-.996 0-1.805-.81-1.805-1.805zm4.62 49.09l1.541 1.661h-3.602V55.52h2.06zm-3.79 0v1.661H5.752l1.542-1.661h2.061zM6.251 26.506l-.065-1.186a.864.864 0 10-1.726.094l.109 2.003.125 2.31a2.342 2.342 0 01-1.406-1.896l-.977-8.762h1.804l.123 2.28a.864.864 0 001.727-.094l-.37-6.787a.865.865 0 00-1.726.094l.152 2.778H2.118l-.376-3.375A3.651 3.651 0 012.7 11.16a3.653 3.653 0 012.722-1.197h9.921c1.413 0 2.707.814 3.322 2.08l.945 4.127-2.019.767-.817-2.07a1.013 1.013 0 00-1.114-.633c-.478.079-.83.471-.854.954l-.589 11.318H6.251zm25.032 19.58a.864.864 0 00-.864.864v1.75h-2.033v-3.904h5.794V48.7h-2.033v-1.75a.864.864 0 00-.864-.865zm-2.057 4.343h1.193v6.812h-.56l-.633-6.812zm3.309 6.767a.528.528 0 00-.006.045h-.382v-6.812h1.44l-1.052 6.767zm2.085-17.878a4.106 4.106 0 00-.44 1.846v1.903h-5.794v-1.888c0-.65-.158-1.3-.456-1.877L21.864 27.56l.581-.122 4.706 6.84a5.197 5.197 0 003.355 2.158l.006.001h.005c.247.05.502.077.764.077h.124a5.178 5.178 0 004.27-2.26l4.065-5.973c.093.009.185.013.278.013L34.62 39.318zm9.182-18.057l-2.27 4.394a1.683 1.683 0 01-.946.817l2.212-5.893 1.004.682zM48.104 7.66c0-.8.65-1.451 1.451-1.451H50.6c.8 0 1.452.65 1.452 1.45v3.02c0 .665-.449 1.225-1.059 1.397l-1.662.036a1.452 1.452 0 01-1.226-1.433V7.66zm.9 33.579l-.055 12.852h-.964l-.857-13.025c.623.087 1.25.145 1.875.173zM47.668 55.82h1.358v1.42h-2.492l1.134-1.42zm3.087 1.42v-1.42h1.358l1.134 1.42h-2.492zm.967-3.149h-1.046l.055-12.852a20.164 20.164 0 001.888-.17l-.897 13.022zm5.31-24.52c-.03.035-.06.067-.094.096l-1.559-7.713h.853l1.028 6.825a.975.975 0 01-.228.793z"/></g></symbol><symbol id="healthcare"><path d="M29.5 15.716v-1.888h1.844c.51 0 .922-.412.922-.922V1.844a.921.921 0 00-.922-.922H5.53a.921.921 0 00-.922.922v11.062c0 .51.412.922.922.922h1.844v1.888a7.27 7.27 0 00-4.34 2.07 7.268 7.268 0 00-2.113 5.102v27.974c0 1.9.77 3.76 2.114 5.102a7.268 7.268 0 005.102 2.114h20.599c1.9 0 3.76-.77 5.102-2.114a7.268 7.268 0 002.114-5.102V22.888c0-1.9-.77-3.76-2.114-5.102a7.27 7.27 0 00-4.339-2.07zm-19.36-3.732V2.766h1.844v9.218h-1.843zm3.688-9.218h1.844v9.218h-1.844V2.766zm3.688 0h1.843v9.218h-1.843V2.766zm3.687 0h1.844v9.218h-1.844V2.766zm3.688 0h1.843v9.218h-1.843V2.766zm5.53 9.218h-1.843V2.766h1.844v9.218zM6.454 2.766h1.844v9.218H6.453V2.766zm21.203 11.062v1.844H9.22v-1.844h18.437zM2.766 30.422h31.343v14.75H2.766v-14.75zm29.77 24.239a5.41 5.41 0 01-3.8 1.573H8.139a5.41 5.41 0 01-3.799-1.573 5.41 5.41 0 01-1.573-3.8v-3.845h31.343v3.846a5.41 5.41 0 01-1.573 3.799zm1.573-26.083H2.766v-5.69a5.41 5.41 0 011.573-3.799c1-1 2.385-1.573 3.8-1.573h20.598a5.41 5.41 0 013.799 1.573c1 1 1.573 2.385 1.573 3.8v5.69z"/><path d="M6.453 32.266h1.844v11.062H6.453V32.266zM13.828 32.266h1.844v11.062h-1.844V32.266zM21.203 32.266h1.844v11.062h-1.844V32.266zM28.578 32.266h1.844v11.062h-1.844V32.266zM42.406 43.328a4.615 4.615 0 00-4.61 4.61v5.53a4.614 4.614 0 004.61 4.61 4.615 4.615 0 004.61-4.61v-5.53a4.615 4.615 0 00-4.61-4.61zm0 1.844a2.769 2.769 0 012.766 2.766v1.843H39.64v-1.843a2.769 2.769 0 012.765-2.766zm0 11.062a2.77 2.77 0 01-2.765-2.765v-1.844h5.53v1.844a2.77 2.77 0 01-2.765 2.765zM53.469 43.328a4.615 4.615 0 00-4.61 4.61v5.53a4.615 4.615 0 004.61 4.61 4.614 4.614 0 004.61-4.61v-5.53a4.615 4.615 0 00-4.61-4.61zm0 1.844a2.769 2.769 0 012.765 2.766v1.843h-5.53v-1.843a2.769 2.769 0 012.765-2.766zm0 11.062a2.77 2.77 0 01-2.766-2.765v-1.844h5.531v1.844a2.77 2.77 0 01-2.765 2.765zM57.156 28.801a4.838 4.838 0 00-4.832-4.832c-1.29 0-2.505.502-3.418 1.415l-6.928 6.929a4.8 4.8 0 00-1.416 3.417 4.839 4.839 0 004.833 4.833c1.29 0 2.505-.503 3.417-1.416l6.93-6.928a4.8 4.8 0 001.414-3.418zm-9.647 9.043a2.992 2.992 0 01-4.228-4.228l2.813-2.813 4.227 4.228-2.812 2.813zm6.929-6.929l-2.813 2.813-4.228-4.228 2.813-2.813a2.992 2.992 0 014.228 4.228z"/></symbol><symbol id="injection" viewBox="0 0 33.04 32.36"><g><path d="M32.6 5.6l.4-.4L27.84 0l-.5.24 1.16 1.11-3.09 3.09-3.09-3.09-.32.38 1.15 1.16L6.56 19.43a2.71 2.71 0 000 3.86l-.87 3.18L0 31.78l.58.58 5.89-5.13 3.18-.86a2.74 2.74 0 003.86 0L30 9.82 31.2 11l.38-.38-3.08-3.1 2.91-3.08zm-8.91-2.13l5.78 5.77-4 4-5.83-5.73zM6.56 26.37l.77-2.44L9 25.6zm6.15-.37a1.67 1.67 0 01-2.31 0l-3.47-3.47a1.63 1.63 0 010-2.31l3.47-3.46 1.73 1.73.58-.58L11 16.18 12.13 15l1.74 1.74.57-.58-1.73-1.71 1.16-1.18L15.6 15l.58-.58-1.74-1.73 4.63-4.62 5.77 5.78zm15.4-18.93L25.8 4.82l2.62-2.51 2.13 2.13z"/></g></symbol><symbol id="loader" viewBox="0 0 512 512"><path d="M256.001 0c-8.284 0-15 6.716-15 15v96.4c0 8.284 6.716 15 15 15s15-6.716 15-15V15c0-8.284-6.716-15-15-15zM256.001 385.601c-8.284 0-15 6.716-15 15V497c0 8.284 6.716 15 15 15s15-6.716 15-15v-96.399c0-8.285-6.716-15-15-15zM196.691 123.272l-48.2-83.485c-4.142-7.175-13.315-9.635-20.49-5.49-7.174 4.142-9.632 13.315-5.49 20.49l48.2 83.485c2.778 4.813 7.82 7.503 13.004 7.503 2.545 0 5.124-.648 7.486-2.013 7.175-4.142 9.632-13.315 5.49-20.49zM389.491 457.212l-48.199-83.483c-4.142-7.175-13.315-9.635-20.49-5.49-7.174 4.142-9.633 13.315-5.49 20.49l48.199 83.483c2.778 4.813 7.82 7.503 13.004 7.503 2.545 0 5.125-.648 7.486-2.013 7.174-4.142 9.633-13.315 5.49-20.49zM138.274 170.712L54.788 122.51c-7.174-4.145-16.348-1.685-20.49 5.49-4.142 7.174-1.684 16.348 5.49 20.49l83.486 48.202a14.93 14.93 0 007.486 2.013c5.184 0 10.226-2.691 13.004-7.503 4.142-7.174 1.684-16.348-5.49-20.49zM472.213 363.51l-83.484-48.198c-7.177-4.145-16.349-1.684-20.49 5.49-4.142 7.175-1.685 16.349 5.49 20.49l83.484 48.198a14.926 14.926 0 007.485 2.013c5.185 0 10.227-2.691 13.005-7.503 4.142-7.175 1.685-16.349-5.49-20.49zM111.401 241.002H15c-8.284 0-15 6.716-15 15s6.716 15 15 15h96.401c8.284 0 15-6.716 15-15s-6.716-15-15-15zM497 241.002h-96.398c-8.284 0-15 6.716-15 15s6.716 15 15 15H497c8.284 0 15-6.716 15-15s-6.716-15-15-15zM143.765 320.802c-4.141-7.175-13.314-9.635-20.49-5.49l-83.486 48.2c-7.174 4.142-9.632 13.315-5.49 20.49 2.778 4.813 7.82 7.503 13.004 7.503 2.545 0 5.124-.648 7.486-2.013l83.486-48.2c7.174-4.142 9.632-13.315 5.49-20.49zM477.702 128.002c-4.142-7.175-13.315-9.634-20.49-5.49l-83.484 48.2c-7.174 4.142-9.631 13.315-5.49 20.49 2.778 4.813 7.819 7.503 13.005 7.503 2.544 0 5.123-.648 7.485-2.013l83.484-48.2c7.175-4.142 9.632-13.316 5.49-20.49zM191.201 368.239c-7.175-4.145-16.349-1.685-20.49 5.49l-48.2 83.485c-4.142 7.175-1.684 16.349 5.49 20.49a14.93 14.93 0 007.486 2.013c5.184 0 10.227-2.691 13.004-7.503l48.2-83.485c4.142-7.174 1.685-16.348-5.49-20.49zM384.001 34.3c-7.175-4.145-16.349-1.686-20.49 5.49l-48.199 83.483c-4.143 7.173-1.684 16.347 5.49 20.49a14.93 14.93 0 007.486 2.013c5.184 0 10.226-2.69 13.004-7.503l48.199-83.483c4.143-7.174 1.684-16.348-5.49-20.49z"/></symbol><symbol id="logo_short" viewBox="0 0 182.37 182.6"><g><g><path d="M162.74 88.63c6.71-2.16 16.14-2.55 17.73-1.59a3.29 3.29 0 011.9 3.5c-.08 1.8-.32 2.87-1.9 3.51s-5.38.11-8.55.64a27 27 0 00-7 2.23c-5.44 2.29-8.23 4.78-12.66 8.29-5.66 4.47-9.11 7.1-16.15 8.61-6 1.28-14.25 1.38-19.95-1.92-5.54-3.21-8.47-6.41-10.76-12.43-2.39-6.28-2.43-11 0-17.22 2.11-5.43 4.65-8.28 9.5-11.47s8.26-4.07 13.93-4.15c5.49-.07 8.76.93 13.61 3.51a50.55 50.55 0 019.82 6.69 3.46 3.46 0 01.63 4.47c-1 1.66-3.8 1.91-5.06 1.27-4.54-2.28-6.89-4.81-11.72-6.37-5.29-1.72-9.24-2.45-14.25 0S114 82.07 113 87.67c-.94 5.76.78 10.11 5.07 14 5.6 5.12 13 4.78 19.31 1.91s17.44-12.4 25.36-14.95zM19.64 93c-6.72 2.16-16.15 2.55-17.73 1.59A3.27 3.27 0 010 91.06c.07-1.8.31-2.87 1.9-3.51s5.37-.11 8.55-.64a26.55 26.55 0 007-2.23c5.44-2.29 8.23-4.78 12.67-8.29 5.65-4.47 9.11-7.1 16.14-8.61 6-1.28 14.25-1.38 20 1.92 5.55 3.21 8.47 6.42 10.76 12.43 2.4 6.28 2.44 11 0 17.22-2.11 5.43-4.64 8.28-9.49 11.47s-8.26 4.07-13.94 4.15c-5.59.03-8.83-.97-13.69-3.51a50.07 50.07 0 01-9.81-6.69 3.45 3.45 0 01-.64-4.47c1-1.65 3.8-1.91 5.07-1.27 4.54 2.28 6.88 4.81 11.71 6.37 5.3 1.72 9.24 2.45 14.25 0s8-5.87 8.87-11.47c.94-5.76-.78-10.11-5.07-14C58.68 74.78 51.3 75.12 45 78S27.55 90.42 19.64 93zM94.86 162.82c2.15 6.77 2.53 16.26 1.58 17.86a3.26 3.26 0 01-3.44 1.91c-1.78-.07-2.85-.32-3.48-1.91s-.11-5.42-.64-8.61a27.1 27.1 0 00-2.21-7c-2.27-5.49-4.75-8.29-8.23-12.76-4.45-5.69-7.06-9.17-8.55-16.26-1.28-6-1.38-14.34 1.9-20.08 3.18-5.59 6.37-8.53 12.34-10.84 6.24-2.41 10.88-2.45 17.1 0 5.4 2.13 8.23 4.68 11.4 9.56s4 8.32 4.12 14c.07 5.53-.93 8.82-3.49 13.71a49.91 49.91 0 01-6.65 9.88 3.38 3.38 0 01-4.43.64c-1.64-1-1.9-3.82-1.27-5.1 2.27-4.57 4.78-6.93 6.34-11.8 1.7-5.33 2.43-9.3 0-14.34s-5.84-8-11.4-8.93c-5.71-1-10 .79-13.93 5.1-5.09 5.64-4.75 13.07-1.9 19.45s12.31 17.55 14.84 25.52zM89.6 19.77C87.46 13 87.07 3.51 88 1.92A3.26 3.26 0 0191.5 0c1.79.08 2.85.33 3.5 1.92s.11 5.41.63 8.61a27.25 27.25 0 002.22 7c2.27 5.48 4.74 8.29 8.23 12.75 4.44 5.7 7.05 9.18 8.55 16.26 1.27 6.06 1.37 14.35-1.9 20.09s-6.38 8.53-12.35 10.84c-6.23 2.41-10.88 2.45-17.1 0-5.39-2.13-8.23-4.68-11.4-9.56s-4-8.32-4.11-14c-.08-5.53.92-8.82 3.48-13.71a50.38 50.38 0 016.65-9.89 3.39 3.39 0 014.43-.63c1.65 1 1.9 3.82 1.27 5.1-2.27 4.57-4.78 6.93-6.33 11.79-1.71 5.34-2.43 9.31 0 14.35s5.83 8 11.39 8.93c5.72 1 10-.79 13.93-5.1 5.09-5.65 4.75-13.07 1.91-19.45S92.14 27.74 89.6 19.77z"/><path d="M91.82 63.13A8.93 8.93 0 1083 54.2a8.9 8.9 0 008.82 8.93z"/></g></g></symbol><symbol id="minus" viewBox="0 0 6.02 2.34"><g><path d="M0 2.34V0h6v2.34z"/></g></symbol><symbol id="person" viewBox="0 0 29.9 39"><g><path d="M26.66 27.88l-6.21-3.11a1.69 1.69 0 01-.95-1.53V21c.15-.18.31-.39.47-.62a15 15 0 001.92-3.77 2.59 2.59 0 001.51-2.31v-2.6a2.59 2.59 0 00-.65-1.7V6.54a5.8 5.8 0 00-1.36-4.24C20.06.77 17.89 0 15 0S9.84.77 8.51 2.29a5.83 5.83 0 00-1.36 4.25V10a2.59 2.59 0 00-.65 1.7v2.6a2.59 2.59 0 001 2A13.58 13.58 0 009.75 21v2.16a1.7 1.7 0 01-.9 1.5l-5.79 3.19A5.86 5.86 0 000 33v2.1C0 38.18 9.78 39 15 39s15-.82 15-3.9v-2a5.83 5.83 0 00-3.34-5.22zm1.94 7.22c0 .88-4.82 2.6-13.65 2.6S1.3 36 1.3 35.1V33a4.55 4.55 0 012.38-4l5.8-3.16a3 3 0 001.57-2.65v-2.63l-.15-.18a12.17 12.17 0 01-2.22-4.59l-.06-.26-.22-.14a1.28 1.28 0 01-.6-1.09v-2.6a1.27 1.27 0 01.44-1l.21-.19v-4.1a4.53 4.53 0 011.04-3.26C10.56 1.92 12.4 1.3 15 1.3s4.37.62 5.45 1.84a4.57 4.57 0 011.06 3.27v4.14l.21.19a1.27 1.27 0 01.44 1v2.6a1.28 1.28 0 01-.92 1.23l-.33.1-.1.33a14 14 0 01-1.84 3.71 8.21 8.21 0 01-.55.7l-.16.18v2.69a3 3 0 001.67 2.7L26.08 29a4.55 4.55 0 012.52 4.08z"/></g></symbol><symbol id="phone" viewBox="0 0 30 30"><g><g clip-path="url(#phone-a)"><path d="M29.21 23.14l-6.07-4.05a1.77 1.77 0 00-2.37.39L19 21.75a.76.76 0 01-1 .25l-.34-.19a20.44 20.44 0 01-5.3-4.16 20.69 20.69 0 01-4.16-5.3L8.05 12a.75.75 0 01.2-1l2.27-1.77a1.78 1.78 0 00.39-2.37L6.86.79A1.77 1.77 0 004.48.25L1.94 1.78A3.57 3.57 0 00.31 3.9C-.61 7.23.08 13 8.55 21.45 15.29 28.19 20.3 30 23.75 30a8.92 8.92 0 002.35-.31 3.57 3.57 0 002.12-1.63l1.53-2.54a1.77 1.77 0 00-.54-2.38zM28.89 25l-1.53 2.54a2.57 2.57 0 01-1.52 1.18c-3.08.84-8.45.14-16.58-8S.43 7.24 1.27 4.16a2.57 2.57 0 011.18-1.52L5 1.11a.78.78 0 011 .23l2.22 3.31 1.85 2.77a.77.77 0 01-.17 1l-2.27 1.79a1.75 1.75 0 00-.46 2.25l.18.33a21.23 21.23 0 004.33 5.53 21.23 21.23 0 005.53 4.33l.33.18a1.74 1.74 0 002.24-.46l1.77-2.28a.78.78 0 011-.16l6.1 4.07a.77.77 0 01.24 1z"/></g></g></symbol><symbol id="pills"><g clip-path="url(#clip0)"><path d="M30.196 30.21l11.098-11.144A.983.983 0 0039.9 17.68L29.5 28.125l-6.27-6.242a.983.983 0 00-1.388 1.393l6.964 6.934a.983.983 0 001.39 0z"/><path d="M58.986 29.485C58.986 13.201 45.785 0 29.5 0 13.216 0 .015 13.201.015 29.485a.076.076 0 000 .06C.05 45.808 13.235 58.981 29.5 59a29.03 29.03 0 009.907-1.723 6.802 6.802 0 008.617-.865 6.693 6.693 0 001.057-1.415 8.784 8.784 0 009.905-8.774 8.823 8.823 0 00-2.117-5.732 29.287 29.287 0 002.117-10.947.076.076 0 000-.059zm-10.92 22.06c.003.164 0 .328-.013.492-.01.098-.035.196-.05.294-.024.145-.044.29-.081.433-.027.104-.067.205-.098.307-.045.133-.085.268-.141.394-.013.024-.026.048-.037.073a4.658 4.658 0 01-1.009 1.475 4.89 4.89 0 01-6.469.424c-.26-.229-3.12-3.068-5.344-5.283l3.434-3.43 3.518-3.514.492.491 3.213 3.214 1.154 1.154a4.788 4.788 0 011.332 2.495c.052.243.085.49.098.737 0 .082-.005.163 0 .244zm-19.502-7.648a4.914 4.914 0 013.482-8.387 4.851 4.851 0 013.472 1.442l4.868 4.868-3.46 3.456-3.494 3.489-4.868-4.868zM31 49.117c-.491.038-.996.058-1.5.058-10.857 0-19.657-8.801-19.657-19.657 0-10.857 8.8-19.657 19.656-19.657 10.855 0 19.656 8.799 19.657 19.654a19.403 19.403 0 01-1.847 8.326c-.061.02-.12.047-.18.068-.08.03-.16.057-.24.089l-.15.06c-.11.047-.218.099-.326.145-.108.046-.202.098-.302.145-.055.029-.113.054-.168.083h-.006c-.07.038-.137.084-.207.123-.098.056-.197.111-.287.17-.09.059-.161.098-.24.155-.06.04-.118.082-.176.123-.058.041-.144.098-.214.154-.11.083-.215.17-.32.259-.054.045-.111.086-.164.134l-.106.093c-.112.098-.219.21-.326.316-.068.068-.14.133-.205.204l-.034.035c-.106.114-.204.236-.303.355-.058.07-.12.136-.175.208-.027.033-.051.07-.077.104-.05.065-.098.132-.143.196-.075.107-.156.21-.228.322l-.24-.241-.053-.053-5.529-5.523a6.88 6.88 0 00-9.73-.007l-.007.007a6.88 6.88 0 000 9.724l3.827 3.828zm19.14 3.986c-.09 0-.18-.002-.272-.006.06-.259.104-.522.132-.786.006-.053.005-.106.01-.16.023-.263.03-.529.021-.794 0-.084-.006-.168-.012-.252a6.844 6.844 0 00-.372-1.835c-.032-.092-.072-.182-.107-.273a7.155 7.155 0 00-.26-.583 8.68 8.68 0 00-.16-.295 5.743 5.743 0 00-.328-.518c-.062-.087-.122-.176-.187-.26-.035-.045-.064-.094-.098-.138h8.445a6.89 6.89 0 01-6.813 5.9zm6.81-7.863H46.585l-2.419-2.42c.01-.015.016-.032.025-.048.042-.072.09-.14.134-.211.083-.132.167-.263.258-.393.056-.078.118-.152.177-.227.088-.111.178-.221.272-.327a9.972 9.972 0 01.501-.504 6.835 6.835 0 01.556-.45 6.611 6.611 0 01.61-.395c.08-.046.161-.098.245-.14.14-.072.286-.137.432-.196.073-.032.143-.068.217-.098.225-.09.454-.167.688-.232a6.678 6.678 0 011.858-.256 6.869 6.869 0 016.81 5.897zm-2.88-14.742h2.907a27.308 27.308 0 01-1.651 8.55c-.029-.02-.06-.034-.089-.054a8.82 8.82 0 00-1.026-.628c-.065-.034-.133-.062-.197-.098-.328-.16-.666-.3-1.012-.418-.06-.02-.117-.045-.178-.064a8.708 8.708 0 00-1.438-.32 8.88 8.88 0 00-1.247-.089c-.175 0-.343.026-.515.036a21.389 21.389 0 001.498-7.898c0-11.942-9.68-21.623-21.623-21.623-11.941 0-21.622 9.681-21.622 21.623 0 11.941 9.68 21.622 21.622 21.622 1.091-.004 2.18-.094 3.257-.268l.107.107 4.816 4.816a27.106 27.106 0 01-7.197 1.206v-2.912a.983.983 0 00-1.965 0v2.924C14.1 56.478 2.538 44.914 2.005 30.498H4.93a.983.983 0 000-1.966H2.005C2.537 14.116 14.101 2.552 28.518 2.02v2.924a.983.983 0 001.965 0V2.02c14.417.531 25.98 12.096 26.512 26.512h-2.923a.983.983 0 000 1.966z"/></g></symbol><symbol id="plus" viewBox="0 0 11.45 11.62"><g><path d="M4.66 6.87H0V4.78h4.66V0h2.11v4.78h4.68v2.09H6.77v4.75H4.66z"/></g></symbol><symbol id="question" viewBox="0 0 35 35"><g id="&#x421;&#x43B;&#x43E;&#x439;_2"><g id="&#x421;&#x43B;&#x43E;&#x439;_1-2"><path class="cls-1" d="M29.87 5.13a17.48 17.48 0 00-24.74 0 17.5 17.5 0 00-2.79 21.12L0 35l8.75-2.34A17.5 17.5 0 0029.87 5.13zM17.5 33.5a16.66 16.66 0 01-8.38-2.44l-.37-.23-6.41 1.83 2.16-6.41-.5-.75a15.49 15.49 0 01-2.5-8 16.42 16.42 0 0116-16 16.42 16.42 0 0116 16 16.42 16.42 0 01-16 16z"/><path class="cls-1" d="M18.53 24.17h-2.06v2h2.06zM17.5 8.78a5.13 5.13 0 00-5.13 5.13h2.05a3.08 3.08 0 016.16 0 3 3 0 01-.79 2.09l-3.32 3.71v2.44h2.06v-1.69l2.79-3.13a5.13 5.13 0 00-3.82-8.55z"/></g></g></symbol><symbol id="sleeping-pills"><g clip-path="url(#clip0)"><path d="M51.95 24.203a12.515 12.515 0 00-3.744-2.204 12.493 12.493 0 00-5.326-.76c.234-.812.355-1.66.355-2.521a9.141 9.141 0 00-2.962-6.729 9.155 9.155 0 00-3.77-2.074.864.864 0 10-.451 1.668 7.318 7.318 0 013.055 1.682 7.409 7.409 0 012.4 5.453 7.368 7.368 0 01-1.937 4.984l-3.785 4.137-10.9-9.973 3.784-4.137a7.307 7.307 0 014.312-2.313.864.864 0 10-.265-1.707 9.142 9.142 0 00-4.974 2.496 12.499 12.499 0 00-1.162-4.927A12.521 12.521 0 0011.958.431a12.65 12.65 0 00-3.941 1.828 12.522 12.522 0 00-4.212 15.587 12.526 12.526 0 0011.363 7.277c.561 0 1.127-.04 1.694-.116a9.053 9.053 0 00-.11 6.2 9.087 9.087 0 00-3.466 1.832c-3.838 3.245-4.32 9.008-1.074 12.847l8.358 9.884a9.057 9.057 0 006.2 3.198 9.048 9.048 0 006.646-2.123c3.839-3.246 4.321-9.01 1.076-12.848l-6.042-7.145a8.99 8.99 0 002.885-1.681c.363 3.138 1.903 6.08 4.33 8.143a12.637 12.637 0 003.743 2.201 12.435 12.435 0 004 .79.864.864 0 00.028-1.727 10.722 10.722 0 01-2.431-.365l10.582-17.985a10.797 10.797 0 011.55 13.02 10.76 10.76 0 01-6.541 4.969.864.864 0 10.445 1.67 12.479 12.479 0 007.586-5.763 12.523 12.523 0 00-2.676-15.921zM25.013 8.006a10.75 10.75 0 01.878 6.2l-4.48 4.897-7.992-17.222a10.797 10.797 0 0111.594 6.125zM10.636 2.743c.351-.164.712-.306 1.077-.43l8.433 18.172-1.489 1.627c-.07.076-.137.154-.204.232L9.611 3.287c.33-.198.673-.382 1.025-.545zM5.373 17.119A10.797 10.797 0 018.18 4.31l8.785 18.931A10.795 10.795 0 015.373 17.12zm9.03 17.24a7.332 7.332 0 015.385-1.721 7.34 7.34 0 015.026 2.591l3.62 4.282-11.282 9.54-3.62-4.281c-2.63-3.11-2.24-7.781.87-10.412zM32.3 55.523c-3.11 2.63-7.781 2.24-10.412-.87l-3.62-4.283 11.282-9.54 3.62 4.282c2.63 3.11 2.24 7.781-.87 10.411zm-5.066-20.107l-1.102-1.304a9.055 9.055 0 00-6.2-3.198 9.253 9.253 0 00-1.45-.006 7.348 7.348 0 011.45-7.63l3.785-4.138 10.9 9.974-3.785 4.138a7.315 7.315 0 01-3.598 2.164zm5.749-1.955l7.861-8.593a9.138 9.138 0 001.287-1.807c1.5-.235 3.023-.152 4.478.239L36.028 41.286a10.905 10.905 0 01-3.044-7.824zm4.367 8.982l10.914-18.549c.35.16.696.336 1.033.533.332.195.654.411.965.642L39.349 43.62c-.35-.16-.696-.336-1.032-.533-.332-.194-.654-.41-.966-.642z"/></g></symbol><symbol id="sneeze" viewBox="0 0 30.55 23.9"><g><g><path d="M26.57 13.13l-1.36-3.28a3.19 3.19 0 01-.25-1A9.31 9.31 0 0016.15 0a9.16 9.16 0 00-9.31 11 9.24 9.24 0 002.64 4.77 1.36 1.36 0 01.27.39 1.18 1.18 0 01.09.46v7.28h9.56v-2.79h.87a1.93 1.93 0 00.94-.24 2 2 0 00.72-.65l1-1.46a.84.84 0 00.14-.4.87.87 0 00-.1-.42.83.83 0 00-.29-.3.75.75 0 00-.41-.12h-1.48l-1-1.19h4v-1.59h1.67a1.18 1.18 0 00.54-.14 1.21 1.21 0 00.43-.38 1.11 1.11 0 00.2-.53 1.07 1.07 0 00-.06-.56zm-.8.64a.35.35 0 01-.14.13.53.53 0 01-.18 0h-1.67a.79.79 0 00-.56.23.8.8 0 00-.24.57v.79h-3.15a.76.76 0 00-.42.12.86.86 0 00-.3.33.84.84 0 00-.07.44.71.71 0 00.17.41l.95 1.21a.74.74 0 00.28.22.85.85 0 00.35.08h1.45l-1 1.46a1.24 1.24 0 01-.43.39 1.26 1.26 0 01-.57.14h-.84a.83.83 0 00-.56.23.82.82 0 00-.24.57v2h-8v-6.46a2.09 2.09 0 00-.16-.78 2.23 2.23 0 00-.44-.65 8.32 8.32 0 01-1.9-2.75 8.19 8.19 0 01-.68-3.27 8.34 8.34 0 012.56-6 8.25 8.25 0 012.81-1.8A8.45 8.45 0 0116.12.8a8.54 8.54 0 018.05 8.09 4.06 4.06 0 00.3 1.27l1.36 3.25a.41.41 0 010 .19.28.28 0 01-.07.17zM25.37 15.93h.8v.8h-.8zM25.37 17.52h.8v.8h-.8zM27 16.73h.79v.79H27z"/><path d="M24.18 16.73H25v.79h-.79zM28.56 16.73h2v.79h-2zM26.45 15.59l.69-.4.39.69-.69.4zM27.83 14.79l1.72-1 .4.69-1.73 1zM26.44 18.66l.4-.69.69.4-.4.69zM27.83 19.46l.39-.69 1.73 1-.4.69zM4.21 5.78H10v9.05h3.29l-6.2 8.22-6.17-8.22h3.29z"/><path d="M.08 15.05l6.7 8.67a.4.4 0 00.62 0l6.7-8.67a.4.4 0 00-.31-.64h-3.55V5.35A.39.39 0 009.85 5H4.33a.4.4 0 00-.39.39v9.06H.39a.39.39 0 00-.35.23.38.38 0 00.04.37zm4.13 0c.22 0 .41-.42.41-.64V5.78h4.94v8.86c0 .21.08.41.3.41h3.52l-6.29 8-6.17-8z"/></g></g></symbol><symbol id="virus" viewBox="0 0 35.82 35.82"><g><g><path d="M21 25.52a9.25 9.25 0 01-1.47.45.43.43 0 00-.34.33l-.67 3.27a3.43 3.43 0 00.65 2.8 1.62 1.62 0 11-2.91 1 1.57 1.57 0 01.3-.94 3.53 3.53 0 00.67-2.84l-.63-3.29a.45.45 0 00-.34-.34 8.19 8.19 0 01-2.87-1.18.41.41 0 00-.47 0l-2.79 1.82a3.47 3.47 0 00-1.52 2.45 1.62 1.62 0 11-2.74-1.37 1.56 1.56 0 01.88-.45 3.55 3.55 0 002.48-1.53l1.82-2.79a.41.41 0 000-.47 8.11 8.11 0 01-1.18-2.87.45.45 0 00-.34-.34l-3.26-.67a3.42 3.42 0 00-2.81.65 1.62 1.62 0 110-2.6 3.61 3.61 0 002.84.67l3.26-.68a.45.45 0 00.34-.34 8.19 8.19 0 011.18-2.87.41.41 0 000-.47l-1.85-2.79a3.47 3.47 0 00-2.45-1.52 1.62 1.62 0 111.37-2.74 1.56 1.56 0 01.45.88 3.55 3.55 0 001.53 2.48l2.79 1.82a.42.42 0 00.6-.12.44.44 0 00-.13-.6L10.61 8.5a2.64 2.64 0 01-1.15-1.89A2.49 2.49 0 005.87 4.8a2.48 2.48 0 00.79 4.66 2.63 2.63 0 011.84 1.15l1.68 2.55a8.8 8.8 0 00-1.1 2.65l-3 .62a2.71 2.71 0 01-2.15-.52 2.37 2.37 0 00-1.45-.47A2.48 2.48 0 104 19.9a2.62 2.62 0 012.11-.49l3 .61a8.8 8.8 0 001.1 2.65L8.5 25.22a2.64 2.64 0 01-1.88 1.15 2.48 2.48 0 102.84 2.8 2.63 2.63 0 011.15-1.84l2.55-1.68a8.8 8.8 0 002.65 1.1l.62 3a2.71 2.71 0 01-.52 2.15 2.44 2.44 0 00-.47 1.45 2.46 2.46 0 002.48 2.48 3.07 3.07 0 00.53 0 2.48 2.48 0 001.45-3.92 2.62 2.62 0 01-.49-2.11l.61-3a9.21 9.21 0 001.35-.43.44.44 0 10-.33-.81zM14.71 10.35a8.46 8.46 0 011.55-.49.43.43 0 00.34-.33l.67-3.26a3.45 3.45 0 00-.65-2.81 1.62 1.62 0 112.91-1 1.58 1.58 0 01-.31.94 3.56 3.56 0 00-.66 2.84l.67 3.26a.45.45 0 00.34.34 8.07 8.07 0 012.86 1.18.42.42 0 00.48 0l2.79-1.79a3.47 3.47 0 001.52-2.45A1.62 1.62 0 1130 8.15a1.56 1.56 0 01-.88.45 3.55 3.55 0 00-2.48 1.53l-1.82 2.79a.41.41 0 000 .47A8.11 8.11 0 0126 16.26a.45.45 0 00.34.34l3.26.68a3.22 3.22 0 00.69.06 3.46 3.46 0 002.12-.72.42.42 0 00.08-.6.43.43 0 00-.6-.09 2.66 2.66 0 01-2.11.5l-3-.62a8.8 8.8 0 00-1.1-2.65l1.68-2.55a2.64 2.64 0 011.88-1.15 2.48 2.48 0 10-2.84-2.8 2.63 2.63 0 01-1.18 1.84l-2.55 1.68A8.8 8.8 0 0020 9.08l-.62-3a2.71 2.71 0 01.52-2.15 2.44 2.44 0 00.47-1.45A2.48 2.48 0 1015.93 4a2.62 2.62 0 01.49 2.11l-.61 3a9.31 9.31 0 00-1.44.47.44.44 0 00-.22.56.44.44 0 00.56.24z"/><path d="M35.77 17.38a2.49 2.49 0 00-1.93-1.9.43.43 0 00-.5.34.42.42 0 00.34.51 1.62 1.62 0 01-.34 3.2 1.57 1.57 0 01-.94-.3 3.53 3.53 0 00-2.84-.67l-3.26.67a.45.45 0 00-.34.34 8.11 8.11 0 01-1.18 2.87.41.41 0 000 .47l1.82 2.79a3.47 3.47 0 002.45 1.52A1.62 1.62 0 1127.68 30a1.53 1.53 0 01-.45-.88 3.55 3.55 0 00-1.53-2.52l-2.79-1.82a.42.42 0 00-.6.12.44.44 0 00.13.6l2.78 1.83a2.64 2.64 0 011.15 1.89 2.5 2.5 0 002.45 2.09h.26a2.48 2.48 0 001.82-3.83 2.43 2.43 0 00-1.73-1.09 2.63 2.63 0 01-1.84-1.15l-1.68-2.55a8.8 8.8 0 001.1-2.69l3-.62a2.71 2.71 0 012.15.52 2.45 2.45 0 001.45.48 2.53 2.53 0 001.93-.93 2.47 2.47 0 00.49-2.09zM16.82 14.8a.44.44 0 00-.44.43 1.56 1.56 0 11-1.55-1.56.43.43 0 00.43-.43.44.44 0 00-.43-.44 2.43 2.43 0 102.42 2.43.43.43 0 00-.43-.43zM22.39 20.21a.43.43 0 00-.43-.43A1.06 1.06 0 1123 18.72a.43.43 0 00.43.43.44.44 0 00.44-.43A1.93 1.93 0 1022 20.65a.44.44 0 00.39-.44zM15.32 21.62a.43.43 0 00-.43.43.44.44 0 00.43.44A1.36 1.36 0 1014 21.13a.44.44 0 00.44.44.44.44 0 00.43-.44.49.49 0 011 0 .49.49 0 01-.49.49zM19.24 11.25a.42.42 0 00.3.53 6.4 6.4 0 012.86 1.65.43.43 0 00.61-.61A7.17 7.17 0 0019.77 11a.42.42 0 00-.53.25zM17.91 10.71a.43.43 0 000 .86h.38a.44.44 0 00.45-.42.42.42 0 00-.42-.44z"/></g></g></symbol></svg>