<?xml version="1.0" encoding="UTF-8"?><!DOCTYPE svg PUBLIC "-//W3C//DTD SVG 1.1//EN" "http://www.w3.org/Graphics/SVG/1.1/DTD/svg11.dtd"><svg xmlns="http://www.w3.org/2000/svg" xmlns:xlink="http://www.w3.org/1999/xlink"><defs><style>.cls-1{fill:#6f6f6f;fill-opacity:.4}</style><clipPath id="clip0"><path d="M.244.244h33.511v33.511H.244z"/></clipPath><clipPath id="phone-a"><path d="M0 0h30v30H0z"/></clipPath><style>.cls-1{fill:#6f6f6f;fill-opacity:.2}</style><clipPath id="clip0"><path d="M.089.092h35.822v35.822H.089z"/></clipPath></defs><symbol id="basket"><path d="M11.277 22.627h18.596c.458 0 .86-.304.986-.744L34.96 7.528a1.026 1.026 0 00-.986-1.307H8.912l-.733-3.299a1.026 1.026 0 00-1.001-.803H1.025a1.025 1.025 0 100 2.05h5.33l3.702 16.66a3.08 3.08 0 00-1.854 2.823 3.08 3.08 0 003.076 3.076h18.594a1.025 1.025 0 100-2.05H11.279a1.026 1.026 0 01-.003-2.05zM32.615 8.271L29.1 20.576H12.102L9.367 8.271h23.248zM10.254 29.805a3.08 3.08 0 003.076 3.076 3.08 3.08 0 003.076-3.076 3.08 3.08 0 00-3.076-3.076 3.08 3.08 0 00-3.076 3.076zm3.076-1.026a1.027 1.027 0 010 2.051c-.565 0-1.025-.46-1.025-1.025 0-.566.46-1.026 1.025-1.026zM24.746 29.805a3.08 3.08 0 003.076 3.076 3.08 3.08 0 003.076-3.076 3.08 3.08 0 00-3.076-3.076 3.08 3.08 0 00-3.076 3.076zm3.076-1.026a1.027 1.027 0 010 2.05c-.565.001-1.025-.459-1.025-1.024 0-.566.46-1.026 1.025-1.026z"/></symbol><symbol id="delivery" viewBox="0 0 30.07 41"><g id="&#x421;&#x43B;&#x43E;&#x439;_2"><g id="&#x421;&#x43B;&#x43E;&#x439;_1-2"><path class="cls-1" d="M15 0A15 15 0 000 15c0 8.08 13.91 25 14.51 25.72a.68.68 0 001.05 0C16.15 40 30.07 23.11 30.07 15A15 15 0 0015 0zm0 39.23C12.46 36 1.37 21.78 1.37 15a13.67 13.67 0 0127.33 0c0 6.78-11.1 21-13.7 24.23z"/><path class="cls-1" d="M24.33 12.44l-8.88-6.83a.68.68 0 00-.83 0l-8.89 6.83a.69.69 0 00.42 1.23h2v7.51a.69.69 0 00.68.69h12.3a.69.69 0 00.69-.69v-7.51h2.05a.69.69 0 00.73-.67.68.68 0 00-.27-.56zM16.4 20.5h-2.73v-4.1h2.73zm4.78-8.2a.69.69 0 00-.68.68v7.52h-2.73v-4.78a.69.69 0 00-.69-.69H13a.69.69 0 00-.68.69v4.78H9.57V13a.69.69 0 00-.69-.68h-.72L15 7l6.88 5.29z"/></g></g></symbol><symbol id="email" viewBox="0 0 37 37"><g><path d="M18.5 0a18.5 18.5 0 1013.08 31.58.77.77 0 00-1.09-1.09 17 17 0 115-12V20a4.63 4.63 0 11-9.25 0v-6.9a.77.77 0 00-1.54 0v.82a7.71 7.71 0 10.46 8.45A6.16 6.16 0 0037 20v-1.5A18.52 18.52 0 0018.5 0zm0 24.67a6.17 6.17 0 116.17-6.17 6.18 6.18 0 01-6.17 6.17z"/></g></symbol><symbol id="injection"><g clip-path="url(#clip0)"><path d="M32.739 6.418l.439-.397-5.2-5.2-.5.24 1.154 1.109-3.088 3.087-3.087-3.087-.367.385 1.155 1.155L6.691 20.251c-1.497 1.59-.554 3.424 0 3.86l-.864 3.179L.134 32.6l.578.577 5.893-5.122 3.18-.864c.54.627 2.342 1.418 3.859 0l16.534-16.547 1.156 1.155.385-.374-3.087-3.08 2.913-3.088 1.194 1.161zm-8.916-2.13l5.778 5.778-4.045 4.044-5.778-5.778 4.045-4.044zM6.69 27.191l.772-2.435 1.668 1.67-2.44.765zm6.154-.37c-.62.62-1.69.62-2.311 0l-3.467-3.466c-.31-.31-.917-1.289 0-2.311l3.467-3.467 1.733 1.733.578-.577-1.733-1.734 1.155-1.155 1.734 1.733.577-.578-1.733-1.708 1.156-1.18 1.733 1.733.578-.578-1.734-1.733 4.623-4.623 5.777 5.778-12.133 12.133zm15.397-18.93L25.93 5.646l2.626-2.514 2.13 2.125-2.444 2.634z"/></g></symbol><symbol id="person" viewBox="0 0 29.9 39"><g><path d="M26.66 27.88l-6.21-3.11a1.69 1.69 0 01-.95-1.53V21c.15-.18.31-.39.47-.62a15 15 0 001.92-3.77 2.59 2.59 0 001.51-2.31v-2.6a2.59 2.59 0 00-.65-1.7V6.54a5.8 5.8 0 00-1.36-4.24C20.06.77 17.89 0 15 0S9.84.77 8.51 2.29a5.83 5.83 0 00-1.36 4.25V10a2.59 2.59 0 00-.65 1.7v2.6a2.59 2.59 0 001 2A13.58 13.58 0 009.75 21v2.16a1.7 1.7 0 01-.9 1.5l-5.79 3.19A5.86 5.86 0 000 33v2.1C0 38.18 9.78 39 15 39s15-.82 15-3.9v-2a5.83 5.83 0 00-3.34-5.22zm1.94 7.22c0 .88-4.82 2.6-13.65 2.6S1.3 36 1.3 35.1V33a4.55 4.55 0 012.38-4l5.8-3.16a3 3 0 001.57-2.65v-2.63l-.15-.18a12.17 12.17 0 01-2.22-4.59l-.06-.26-.22-.14a1.28 1.28 0 01-.6-1.09v-2.6a1.27 1.27 0 01.44-1l.21-.19v-4.1a4.53 4.53 0 011.04-3.26C10.56 1.92 12.4 1.3 15 1.3s4.37.62 5.45 1.84a4.57 4.57 0 011.06 3.27v4.14l.21.19a1.27 1.27 0 01.44 1v2.6a1.28 1.28 0 01-.92 1.23l-.33.1-.1.33a14 14 0 01-1.84 3.71 8.21 8.21 0 01-.55.7l-.16.18v2.69a3 3 0 001.67 2.7L26.08 29a4.55 4.55 0 012.52 4.08z"/></g></symbol><symbol id="phone" viewBox="0 0 30 30"><g><g clip-path="url(#phone-a)"><path d="M29.21 23.14l-6.07-4.05a1.77 1.77 0 00-2.37.39L19 21.75a.76.76 0 01-1 .25l-.34-.19a20.44 20.44 0 01-5.3-4.16 20.69 20.69 0 01-4.16-5.3L8.05 12a.75.75 0 01.2-1l2.27-1.77a1.78 1.78 0 00.39-2.37L6.86.79A1.77 1.77 0 004.48.25L1.94 1.78A3.57 3.57 0 00.31 3.9C-.61 7.23.08 13 8.55 21.45 15.29 28.19 20.3 30 23.75 30a8.92 8.92 0 002.35-.31 3.57 3.57 0 002.12-1.63l1.53-2.54a1.77 1.77 0 00-.54-2.38zM28.89 25l-1.53 2.54a2.57 2.57 0 01-1.52 1.18c-3.08.84-8.45.14-16.58-8S.43 7.24 1.27 4.16a2.57 2.57 0 011.18-1.52L5 1.11a.78.78 0 011 .23l2.22 3.31 1.85 2.77a.77.77 0 01-.17 1l-2.27 1.79a1.75 1.75 0 00-.46 2.25l.18.33a21.23 21.23 0 004.33 5.53 21.23 21.23 0 005.53 4.33l.33.18a1.74 1.74 0 002.24-.46l1.77-2.28a.78.78 0 011-.16l6.1 4.07a.77.77 0 01.24 1z"/></g></g></symbol><symbol id="question" viewBox="0 0 35 35"><g id="&#x421;&#x43B;&#x43E;&#x439;_2"><g id="&#x421;&#x43B;&#x43E;&#x439;_1-2"><path class="cls-1" d="M29.87 5.13a17.48 17.48 0 00-24.74 0 17.5 17.5 0 00-2.79 21.12L0 35l8.75-2.34A17.5 17.5 0 0029.87 5.13zM17.5 33.5a16.66 16.66 0 01-8.38-2.44l-.37-.23-6.41 1.83 2.16-6.41-.5-.75a15.49 15.49 0 01-2.5-8 16.42 16.42 0 0116-16 16.42 16.42 0 0116 16 16.42 16.42 0 01-16 16z"/><path class="cls-1" d="M18.53 24.17h-2.06v2h2.06zM17.5 8.78a5.13 5.13 0 00-5.13 5.13h2.05a3.08 3.08 0 016.16 0 3 3 0 01-.79 2.09l-3.32 3.71v2.44h2.06v-1.69l2.79-3.13a5.13 5.13 0 00-3.82-8.55z"/></g></g></symbol><symbol id="sneeze"><path d="M29.665 19.661l-1.916-4.608a4.368 4.368 0 01-.348-1.415c-.37-6.73-5.812-12.184-12.383-12.418a12.874 12.874 0 00-9.374 22.165 1.674 1.674 0 01.509 1.198v10.212h13.433v-3.919h1.227a2.794 2.794 0 002.329-1.246l1.37-2.05a1.12 1.12 0 00-.934-1.741h-2.043l-1.344-1.68h5.552v-2.238h2.347a1.678 1.678 0 001.575-2.26zm-1.12.906a.556.556 0 01-.456.235h-2.346a1.12 1.12 0 00-1.12 1.119v1.12h-4.432a1.119 1.119 0 00-.874 1.819l1.343 1.679a1.113 1.113 0 00.874.42h2.044l-1.368 2.05a1.68 1.68 0 01-1.397.748h-1.227a1.12 1.12 0 00-1.12 1.12v2.798H7.273v-9.092a2.798 2.798 0 00-.853-2.006 11.757 11.757 0 01-.032-16.951 11.632 11.632 0 018.591-3.288c5.998.214 10.964 5.206 11.307 11.363.042.614.187 1.217.43 1.783l1.903 4.576a.557.557 0 01-.072.507h-.001zM27.982 23.6h1.12v1.12h-1.12V23.6zM27.982 25.839h1.12v1.12h-1.12v-1.12zM30.22 24.72h1.12v1.12h-1.12v-1.12z"/><path d="M26.303 24.72h1.12v1.12h-1.12v-1.12zM32.46 24.72h2.798v1.12H32.46v-1.12zM29.49 23.12l.969-.559.559.97-.969.559-.56-.97zM31.43 21.992l2.423-1.4.56.97-2.424 1.4-.56-.97zM29.488 27.439l.56-.97.969.56-.56.969-.969-.56zM31.43 28.564l.559-.97 2.424 1.4-.56.969-2.424-1.4z"/></symbol><symbol id="virus"><g clip-path="url(#clip0)"><path d="M21.175 25.608a8.15 8.15 0 01-1.47.45.433.433 0 00-.337.337l-.678 3.262c-.2.987.037 2.011.65 2.81a1.615 1.615 0 11-2.907.966c0-.339.107-.668.307-.941a3.555 3.555 0 00.67-2.836l-.677-3.264a.433.433 0 00-.337-.336 8.147 8.147 0 01-2.867-1.189.433.433 0 00-.476 0l-2.788 1.83a3.477 3.477 0 00-1.524 2.446 1.614 1.614 0 11-1.857-1.823 3.554 3.554 0 002.479-1.53l1.826-2.787a.433.433 0 000-.476A8.132 8.132 0 0110 19.662a.433.433 0 00-.336-.337l-3.262-.678a3.474 3.474 0 00-2.81.65 1.616 1.616 0 11-.026-2.6 3.552 3.552 0 002.835.67l3.263-.677a.433.433 0 00.337-.337 8.137 8.137 0 011.188-2.867.433.433 0 000-.476L9.36 10.223a3.475 3.475 0 00-2.446-1.525A1.614 1.614 0 118.736 6.84a3.555 3.555 0 001.531 2.478l2.787 1.827a.433.433 0 10.475-.724l-2.787-1.828A2.7 2.7 0 019.59 6.706a2.444 2.444 0 00-.693-1.361 2.482 2.482 0 10-2.102 4.21 2.61 2.61 0 011.84 1.144l1.674 2.553A8.995 8.995 0 009.212 15.9l-2.987.62A2.703 2.703 0 014.077 16a2.483 2.483 0 10.038 3.99 2.615 2.615 0 012.108-.491l2.991.618a8.99 8.99 0 001.098 2.646l-1.674 2.553a2.702 2.702 0 01-1.887 1.151A2.483 2.483 0 109.6 29.261a2.61 2.61 0 011.143-1.84l2.554-1.675a8.994 8.994 0 002.646 1.099l.621 2.986a2.7 2.7 0 01-.52 2.149c-.308.421-.474.93-.473 1.452a2.481 2.481 0 002.487 2.482 2.48 2.48 0 001.977-3.973 2.61 2.61 0 01-.493-2.109l.617-2.99c.46-.109.91-.254 1.347-.435a.433.433 0 00-.33-.8v.002zM14.846 10.438a8.163 8.163 0 011.549-.482.433.433 0 00.337-.336l.678-3.262a3.476 3.476 0 00-.651-2.809 1.615 1.615 0 112.907-.967c.001.339-.106.668-.306.941a3.553 3.553 0 00-.67 2.836l.676 3.263c.036.17.168.301.338.336a8.132 8.132 0 012.866 1.188.434.434 0 00.476 0l2.788-1.829a3.476 3.476 0 001.525-2.446 1.615 1.615 0 111.857 1.822 3.556 3.556 0 00-2.479 1.532L24.91 13.01a.434.434 0 000 .476c.577.87.98 1.843 1.19 2.866.034.17.167.302.336.337l3.262.678c.226.047.458.07.69.07a3.51 3.51 0 002.119-.722.433.433 0 00-.525-.69 2.61 2.61 0 01-2.108.492l-2.988-.619a8.994 8.994 0 00-1.099-2.647l1.675-2.553a2.704 2.704 0 011.887-1.15c.516-.08.993-.323 1.362-.694a2.482 2.482 0 10-4.21-2.1 2.61 2.61 0 01-1.144 1.838l-2.554 1.675a8.989 8.989 0 00-2.647-1.098l-.62-2.987a2.702 2.702 0 01.52-2.148c.308-.422.474-.93.472-1.452a2.483 2.483 0 10-4.463 1.49 2.61 2.61 0 01.492 2.108l-.616 2.991c-.49.117-.97.275-1.434.472a.433.433 0 00.339.797v-.002z"/><path d="M35.901 17.472a2.48 2.48 0 00-1.921-1.897.433.433 0 10-.17.849 1.617 1.617 0 01-.335 3.2 1.586 1.586 0 01-.942-.307 3.552 3.552 0 00-2.835-.67l-3.263.677a.433.433 0 00-.336.337 8.136 8.136 0 01-1.189 2.866.434.434 0 000 .476l1.83 2.788a3.477 3.477 0 002.446 1.525 1.614 1.614 0 11-1.372 2.74 1.587 1.587 0 01-.45-.883 3.554 3.554 0 00-1.532-2.479l-2.786-1.826a.433.433 0 00-.475.724l2.788 1.828a2.702 2.702 0 011.15 1.888c.08.516.323.993.693 1.361a2.471 2.471 0 002.014.714 2.483 2.483 0 001.819-3.832 2.46 2.46 0 00-1.733-1.092 2.611 2.611 0 01-1.84-1.143l-1.674-2.555a8.978 8.978 0 001.098-2.646l2.987-.62a2.704 2.704 0 012.148.52c.422.308.93.473 1.453.472a2.486 2.486 0 002.425-3.017l.002.002zM16.952 14.888a.433.433 0 00-.433.434 1.56 1.56 0 11-1.559-1.56.433.433 0 100-.866 2.425 2.425 0 102.425 2.425.433.433 0 00-.433-.433zM22.525 20.304a.433.433 0 00-.433-.433 1.062 1.062 0 111.062-1.062.433.433 0 10.866 0 1.928 1.928 0 10-1.928 1.928c.24 0 .433-.194.433-.433zM15.454 21.712a.433.433 0 000 .867 1.354 1.354 0 10-1.354-1.354.433.433 0 10.866 0 .488.488 0 11.487.487h.001zM19.37 11.345a.433.433 0 00.308.529 6.345 6.345 0 012.858 1.647.433.433 0 10.612-.613 7.211 7.211 0 00-3.248-1.871.434.434 0 00-.53.308zM18.05 10.797a.433.433 0 100 .866c.12 0 .238.003.355.01h.025a.433.433 0 10.023-.866 7.922 7.922 0 00-.403-.01z"/></g></symbol></svg>