<?xml version="1.0" encoding="UTF-8"?><!DOCTYPE svg PUBLIC "-//W3C//DTD SVG 1.1//EN" "http://www.w3.org/Graphics/SVG/1.1/DTD/svg11.dtd"><svg xmlns="http://www.w3.org/2000/svg" xmlns:xlink="http://www.w3.org/1999/xlink"><defs><clipPath id="clip0"><path d="M0 0h30v30H0z"/></clipPath></defs><symbol id="basket"><path d="M11.277 22.627h18.596c.458 0 .86-.304.986-.744L34.96 7.528a1.026 1.026 0 00-.986-1.307H8.912l-.733-3.299a1.026 1.026 0 00-1.001-.803H1.025a1.025 1.025 0 100 2.05h5.33l3.702 16.66a3.08 3.08 0 00-1.854 2.823 3.08 3.08 0 003.076 3.076h18.594a1.025 1.025 0 100-2.05H11.279a1.026 1.026 0 01-.003-2.05zM32.615 8.271L29.1 20.576H12.102L9.367 8.271h23.248zM10.254 29.805a3.08 3.08 0 003.076 3.076 3.08 3.08 0 003.076-3.076 3.08 3.08 0 00-3.076-3.076 3.08 3.08 0 00-3.076 3.076zm3.076-1.026a1.027 1.027 0 010 2.051c-.565 0-1.025-.46-1.025-1.025 0-.566.46-1.026 1.025-1.026zM24.746 29.805a3.08 3.08 0 003.076 3.076 3.08 3.08 0 003.076-3.076 3.08 3.08 0 00-3.076-3.076 3.08 3.08 0 00-3.076 3.076zm3.076-1.026a1.027 1.027 0 010 2.05c-.565.001-1.025-.459-1.025-1.024 0-.566.46-1.026 1.025-1.026z"/></symbol><symbol id="delivery"><path d="M20.5 0C12.197 0 5.467 6.73 5.467 15.033c0 8.079 13.914 25.003 14.506 25.719a.683.683 0 001.054 0c.592-.716 14.506-17.64 14.506-25.719C35.533 6.731 28.803 0 20.5 0zm0 39.23C17.929 36.022 6.833 21.78 6.833 15.034 6.842 7.49 12.956 1.375 20.5 1.367c7.544.008 13.658 6.122 13.667 13.666 0 6.745-11.096 20.987-13.667 24.198z"/><path d="M29.8 12.443l-8.883-6.834a.683.683 0 00-.834 0L11.2 12.443a.683.683 0 00.417 1.224h2.05v7.517c0 .377.306.683.683.683h12.3a.683.683 0 00.683-.683v-7.517h2.05a.683.683 0 00.417-1.224zM21.867 20.5h-2.734v-4.1h2.734v4.1zm4.783-8.2a.683.683 0 00-.683.684V20.5h-2.734v-4.783a.683.683 0 00-.683-.683h-4.1a.683.683 0 00-.683.683V20.5h-2.734v-7.516a.683.683 0 00-.683-.684h-.724L20.5 7.013l6.874 5.287h-.724z"/></symbol><symbol id="email"><path d="M18.5 0C8.3 0 0 8.3 0 18.5S8.3 37 18.5 37c4.942 0 9.587-1.924 13.082-5.418a.77.77 0 10-1.09-1.09A16.847 16.847 0 0118.5 35.458c-9.35 0-16.958-7.607-16.958-16.958 0-9.35 7.607-16.958 16.958-16.958 9.35 0 16.958 7.607 16.958 16.958v1.542a4.63 4.63 0 01-4.625 4.625 4.63 4.63 0 01-4.625-4.625v-6.938a.77.77 0 10-1.541 0v.819c-1.407-1.89-3.637-3.131-6.167-3.131-4.25 0-7.708 3.458-7.708 7.708s3.458 7.708 7.708 7.708c2.835 0 5.29-1.555 6.63-3.841.92 2.25 3.126 3.841 5.703 3.841 3.4 0 6.167-2.766 6.167-6.166V18.5C37 8.3 28.7 0 18.5 0zm0 24.667a6.174 6.174 0 01-6.167-6.167c0-3.4 2.767-6.167 6.167-6.167s6.167 2.767 6.167 6.167-2.767 6.167-6.167 6.167z"/></symbol><symbol id="person"><path d="M31.21 27.878L25 24.773a1.71 1.71 0 01-.95-1.537v-2.198c.149-.181.305-.389.467-.618a14.875 14.875 0 001.92-3.769A2.58 2.58 0 0027.95 14.3v-2.6c0-.626-.234-1.232-.65-1.706V6.536c.036-.357.18-2.485-1.36-4.24C24.605.771 22.44 0 19.5 0c-2.939 0-5.105.772-6.44 2.295-1.54 1.755-1.396 3.884-1.36 4.241v3.458a2.592 2.592 0 00-.65 1.706v2.6c0 .791.36 1.529.973 2.02.595 2.358 1.841 4.135 2.277 4.705v2.15c0 .63-.343 1.207-.895 1.509l-5.799 3.163a5.862 5.862 0 00-3.056 5.148V35.1c0 3.085 9.78 3.9 14.95 3.9s14.95-.815 14.95-3.9v-1.978a5.833 5.833 0 00-3.24-5.244zm1.94 7.222c0 .882-4.818 2.6-13.65 2.6S5.85 35.982 5.85 35.1v-2.105a4.56 4.56 0 012.378-4.006l5.799-3.163a3.019 3.019 0 001.573-2.65v-2.613l-.152-.18c-.015-.02-1.608-1.946-2.216-4.593l-.06-.257-.22-.143a1.297 1.297 0 01-.602-1.09v-2.6c0-.365.155-.705.436-.959l.214-.193V6.5l-.006-.085c-.002-.018-.223-1.82 1.043-3.264C15.114 1.923 16.953 1.3 19.5 1.3c2.538 0 4.372.618 5.45 1.838 1.266 1.43 1.057 3.261 1.056 3.277L26 10.548l.215.194c.28.253.435.593.435.958v2.6c0 .567-.372 1.064-.924 1.234l-.324.1-.104.322a13.61 13.61 0 01-1.842 3.713 8.55 8.55 0 01-.544.701l-.162.185v2.681c0 1.15.639 2.185 1.668 2.7l6.21 3.104a4.539 4.539 0 012.522 4.082V35.1z"/></symbol><symbol id="phone"><g clip-path="url(#clip0)"><path d="M29.213 23.143l-6.072-4.05a1.772 1.772 0 00-2.373.386l-1.77 2.274a.756.756 0 01-.969.204l-.336-.185c-1.115-.608-2.503-1.365-5.3-4.162-2.795-2.797-3.554-4.186-4.162-5.3l-.184-.335a.757.757 0 01.2-.973l2.273-1.769c.727-.57.895-1.602.385-2.373L6.856.788A1.763 1.763 0 004.479.253L1.94 1.778a3.582 3.582 0 00-1.633 2.12C-.607 7.23.081 12.98 8.55 21.45c6.738 6.737 11.754 8.549 15.201 8.549.794.003 1.584-.1 2.35-.307a3.578 3.578 0 002.12-1.633l1.526-2.538a1.763 1.763 0 00-.534-2.378zm-.327 1.865l-1.523 2.54c-.337.575-.883.999-1.525 1.181-3.076.844-8.449.145-16.58-7.986C1.126 12.61.428 7.239 1.27 4.163a2.588 2.588 0 011.184-1.527l2.539-1.523a.765.765 0 011.031.232l2.2 3.302 1.846 2.77a.77.77 0 01-.167 1.029l-2.273 1.768a1.75 1.75 0 00-.463 2.246l.18.328c.64 1.172 1.433 2.63 4.333 5.529 2.9 2.9 4.358 3.694 5.53 4.333l.328.18a1.75 1.75 0 002.245-.463l1.768-2.273a.77.77 0 011.03-.167l6.072 4.05c.34.226.443.68.232 1.031z"/></g></symbol><symbol id="question"><path d="M29.874 5.126A17.386 17.386 0 0017.5 0C12.826 0 8.431 1.82 5.126 5.126A17.386 17.386 0 000 17.5c0 3.083.81 6.1 2.344 8.753L0 35l8.747-2.344A17.47 17.47 0 0017.5 35c4.674 0 9.069-1.82 12.374-5.126A17.386 17.386 0 0035 17.5c0-4.674-1.82-9.069-5.126-12.374zM17.5 33.5c-2.854 0-5.956-.95-8.377-2.436l-.376-.23-6.403 1.822L4.5 26.253 4 25.5c-1.485-2.421-2.5-5.146-2.5-8 0-8.519 7.481-16 16-16s16 7.481 16 16-7.481 16-16 16z"/><path d="M18.525 24.165h-2.05v2.05h2.05v-2.05zM17.5 8.784a5.133 5.133 0 00-5.127 5.127h2.05a3.08 3.08 0 013.077-3.076 3.08 3.08 0 013.076 3.076 3.07 3.07 0 01-.784 2.05l-3.317 3.71v2.443h2.05v-1.659l2.796-3.126a5.118 5.118 0 001.306-3.418c0-2.827-2.3-5.127-5.127-5.127z"/></symbol></svg>