<svg xmlns="http://www.w3.org/2000/svg" viewBox="0 0 35 30.76"><defs><style>.cls-1{fill:#6f6f6f;fill-opacity:0.5;}</style></defs><title>basket</title><g id="Слой_2" data-name="Слой 2"><g id="Слой_1-2" data-name="Слой 1"><path class="cls-1" d="M11.28,20.51H29.87a1,1,0,0,0,1-.75L35,5.41A1,1,0,0,0,34,4.1H8.91L8.18.8a1,1,0,0,0-1-.8H1A1,1,0,1,0,1,2.05H6.36c.13.59,3.5,15.79,3.7,16.66a3.08,3.08,0,0,0,1.22,5.9H29.87a1,1,0,1,0,0-2.05H11.28a1,1,0,1,1,0-2ZM32.62,6.15,29.1,18.46h-17L9.37,6.15Z"/><path class="cls-1" d="M10.25,27.69a3.08,3.08,0,1,0,3.08-3.08A3.08,3.08,0,0,0,10.25,27.69Zm3.08-1a1,1,0,1,1-1,1A1,1,0,0,1,13.33,26.66Z"/><path class="cls-1" d="M24.75,27.69a3.08,3.08,0,1,0,3.07-3.08A3.08,3.08,0,0,0,24.75,27.69Zm3.07-1a1,1,0,1,1-1,1A1,1,0,0,1,27.82,26.66Z"/></g></g></svg>